<?xml version="1.0" standalone="no"?>
<!DOCTYPE svg PUBLIC "-//W3C//DTD SVG 1.1//EN" "http://www.w3.org/Graphics/SVG/1.1/DTD/svg11.dtd" >
<svg xmlns="http://www.w3.org/2000/svg" xmlns:xlink="http://www.w3.org/1999/xlink" version="1.1">
<metadata>
Created by FontForge 20170731 at Tue Aug 12 13:05:24 2008
 By Aleksey,,,
Copyright (c) 2007 - 2008 Linotype GmbH, www.linotype.com. All rights reserved. This font software may not be reproduced, modified, disclosed or transferred without the express written approval of Linotype GmbH. Eurostile is a trademark of Linotype GmbH and may be registered in certain jurisdictions. This typeface is original artwork of Linotype Design Studio. The design may be protected in certain jurisdictions.
</metadata>
<defs>
<font id="EurostileNextLTCom-SmBdExt" horiz-adv-x="500" >
  <font-face 
    font-family="Eurostile Next LT Com Light Ext"
    font-weight="600"
    font-stretch="expanded"
    units-per-em="1000"
    panose-1="2 11 7 5 2 2 2 5 2 4"
    ascent="700"
    descent="-300"
    x-height="480"
    cap-height="680"
    bbox="-134 -241 1511 894"
    underline-thickness="50"
    underline-position="-150"
    unicode-range="U+000D-FB02"
  />
<missing-glyph horiz-adv-x="485" 
d="M210 111v63h53v-63h-53zM211 222v16q0 25 2.5 43t9 32.5t17.5 27.5t28 28q30 30 38 46.5t8 33.5q0 34 -21.5 57t-50.5 23t-50.5 -20.5t-26.5 -69.5l-48 8q7 69 42 99.5t86 30.5q52 0 85 -33.5t33 -90.5q0 -31 -12 -55.5t-48 -57.5q-17 -15 -26 -25.5t-13.5 -21t-5.5 -23
t-1 -31.5v-17h-46zM438 47v585h-391v-585h391zM485 680v-680h-485v680h485z" />
    <glyph glyph-name="IJ" unicode="IJ" horiz-adv-x="1080" 
d="M225 0h-149v680h149v-680zM658 -8q-99 0 -159.5 8.5t-94 33t-45 68t-11.5 113.5v47h146v-18q0 -44 5.5 -70.5t23 -40.5t50.5 -18.5t89 -4.5h20q59 0 94 4.5t53 19.5t23.5 44t5.5 79v423h149v-432q0 -83 -12 -133.5t-46.5 -77.5t-97 -36t-162.5 -9h-31z" />
    <glyph glyph-name="ij" unicode="ij" horiz-adv-x="560" 
d="M209 0h-138v480h138v-480zM209 561h-138v119h138v-119zM489 -20q0 -84 -34 -119t-118 -35q-32 0 -62 3v102q10 -1 16.5 -1h11.5q28 0 38 12.5t10 53.5v484h138v-500zM489 561h-138v119h138v-119z" />
    <glyph glyph-name="napostrophe" unicode="&#x22;n" horiz-adv-x="791" 
d="M723 0h-138v249q0 41 -5.5 67t-22 40.5t-47.5 20t-82 5.5h-13q-48 0 -81.5 -6.5t-54.5 -22t-30.5 -41.5t-9.5 -64v-248h-138v480h138v-84h2q13 24 30.5 41t42.5 28.5t59.5 17t82.5 5.5h13q76 0 125 -10t77.5 -35t40 -68t11.5 -110v-265zM92 604q0 -69 -26 -100.5
t-94 -32.5v58q23 2 30.5 12t7.5 41v7h-36v91h118v-76z" />
    <glyph glyph-name="fi" unicode="fi" horiz-adv-x="679" 
d="M245 0h-136v384h-93v96h93v38q0 47 11.5 79.5t35.5 52.5t61.5 28.5t90.5 8.5q32 0 59 -1.5t54 -3.5v-92q-20 2 -40.5 3t-37.5 1q-30 0 -49.5 -3.5t-30 -13t-14.5 -25.5t-4 -41v-31h150v-96h-150v-384zM608 0h-138v480h138v-480zM608 561h-138v119h138v-119z" />
    <glyph glyph-name="fl" unicode="fl" horiz-adv-x="679" 
d="M245 0h-136v384h-93v96h93v38q0 47 11.5 79.5t35.5 52.5t61.5 28.5t90.5 8.5q32 0 59 -1.5t54 -3.5v-92q-20 2 -40.5 3t-37.5 1q-30 0 -49.5 -3.5t-30 -13t-14.5 -25.5t-4 -41v-31h150v-96h-150v-384zM608 0h-138v680h138v-680z" />
    <glyph glyph-name=".notdef" horiz-adv-x="485" 
d="M210 111v63h53v-63h-53zM211 222v16q0 25 2.5 43t9 32.5t17.5 27.5t28 28q30 30 38 46.5t8 33.5q0 34 -21.5 57t-50.5 23t-50.5 -20.5t-26.5 -69.5l-48 8q7 69 42 99.5t86 30.5q52 0 85 -33.5t33 -90.5q0 -31 -12 -55.5t-48 -57.5q-17 -15 -26 -25.5t-13.5 -21t-5.5 -23
t-1 -31.5v-17h-46zM438 47v585h-391v-585h391zM485 680v-680h-485v680h485z" />
    <glyph glyph-name=".null" 
 />
    <glyph glyph-name="nonmarkingreturn" unicode="&#xd;" horiz-adv-x="0" 
 />
    <glyph glyph-name="space" unicode=" " horiz-adv-x="333" 
 />
    <glyph glyph-name="exclam" unicode="!" horiz-adv-x="315" 
d="M231 0h-147v155h147v-155zM222 233h-129l-9 447h147z" />
    <glyph glyph-name="quotedbl" unicode="&#x22;" horiz-adv-x="433" 
d="M175 450h-98v258h98v-258zM355 450h-98v258h98v-258z" />
    <glyph glyph-name="numbersign" unicode="#" horiz-adv-x="736" 
d="M83 518h135l32 162h104l-32 -162h164l32 162h104l-32 -162h101v-98h-120l-26 -137h120v-98h-139l-36 -185h-105l36 185h-163l-36 -185h-105l36 185h-96v98h115l27 137h-116v98zM277 283h163l27 137h-164z" />
    <glyph glyph-name="dollar" unicode="$" horiz-adv-x="895" 
d="M491 -81h-78v74q-117 1 -186.5 9.5t-105.5 30.5t-46.5 61t-10.5 102v21h147v-16q0 -32 6.5 -51t28 -29.5t61.5 -14.5t106 -4v189q-113 1 -180 10t-102.5 30.5t-46 58t-10.5 92.5v8q0 58 14.5 96t52.5 60.5t103.5 32t168.5 9.5v62h78v-63q108 -2 173.5 -11.5t100.5 -32.5
t46 -60.5t11 -94.5v-18h-148v11q0 29 -6 48t-25.5 30t-55.5 15.5t-96 5.5v-178q112 0 181.5 -8t107 -30t50.5 -60.5t13 -99.5v-8q0 -60 -15 -99.5t-54 -63t-107.5 -32.5t-175.5 -9v-73zM491 102q68 0 109 4t62.5 13.5t28.5 27t7 45.5v7q0 27 -6 44.5t-27 28t-62.5 15
t-111.5 4.5v-189zM219 483q0 -23 4.5 -38t24 -24.5t58.5 -13.5t107 -5v178q-64 -1 -102 -5t-58.5 -13.5t-27 -27t-6.5 -44.5v-7z" />
    <glyph glyph-name="percent" unicode="%" horiz-adv-x="972" 
d="M232 361q-50 0 -81.5 6t-49.5 23t-25 47.5t-7 80.5v8q0 49 7 79.5t25 47t49.5 22.5t81.5 6h21q51 0 83 -6t50.5 -22.5t25.5 -47t7 -79.5v-8q0 -50 -7 -80.5t-25.5 -47.5t-50.5 -23t-83 -6h-21zM251 427q25 0 40 3t23 12.5t10.5 27.5t2.5 48v8q0 30 -2.5 47.5t-10.5 26.5
t-23 12t-40 3h-14q-25 0 -40 -3t-23 -12t-10.5 -26.5t-2.5 -47.5v-8q0 -30 2.5 -48t10.5 -27.5t23 -12.5t40 -3h14zM353 0h-84l343 680h84zM715 -1q-50 0 -81.5 6t-49.5 23t-25 47.5t-7 80.5v8q0 49 7 79.5t25 47t49.5 22.5t81.5 6h21q51 0 83 -6t50.5 -22.5t25.5 -47
t7 -79.5v-8q0 -50 -7 -80.5t-25.5 -47.5t-50.5 -23t-83 -6h-21zM734 65q25 0 40 3t23 12.5t10.5 27.5t2.5 48v8q0 30 -2.5 47.5t-10.5 26.5t-23 12t-40 3h-14q-25 0 -40 -3t-23 -12t-10.5 -26.5t-2.5 -47.5v-8q0 -30 2.5 -48t10.5 -27.5t23 -12.5t40 -3h14z" />
    <glyph glyph-name="ampersand" unicode="&#x26;" horiz-adv-x="1018" 
d="M996 103l-54 -104l-122 68q-14 -22 -37.5 -36.5t-64 -23t-101.5 -12t-149 -3.5h-18q-130 0 -206.5 6.5t-116.5 28t-51.5 61.5t-11.5 107v13q0 44 7 76t23.5 53.5t44 33t69.5 16.5q-18 10 -31.5 21.5t-23 26.5t-14 34.5t-4.5 45.5v13q0 55 14 87t51 48t100.5 20.5
t162.5 4.5h18q109 0 172 -6t95 -26.5t40.5 -60.5t8.5 -108v-7h-135v7q0 32 -4.5 51t-22.5 29t-54 13t-100 3h-18q-61 0 -96.5 -2.5t-54 -9.5t-24 -20.5t-5.5 -35.5v-8q0 -27 15 -42.5t53 -34.5l384 -195q2 15 2.5 33.5t0.5 40.5v56h120v-32q0 -60 -1.5 -97t-5.5 -60z
M452 100q58 0 101 1t73 4t48.5 8.5t27.5 15.5l-398 205q-31 -3 -49.5 -11t-28.5 -21.5t-13 -32.5t-3 -44v-9q0 -39 6.5 -62t29.5 -35t69 -15.5t125 -3.5h12z" />
    <glyph glyph-name="quotesingle" unicode="'" horiz-adv-x="253" 
d="M175 450h-98v258h98v-258z" />
    <glyph glyph-name="parenleft" unicode="(" horiz-adv-x="420" 
d="M338 -8h-21q-77 0 -127 8t-79 41.5t-41 101.5t-12 187v21q0 119 12 186.5t41 101t79 41.5t127 8h21v-104h-18q-42 0 -67.5 -6t-38.5 -30t-17 -71.5t-4 -129.5v-13q0 -82 4 -129t17 -71t38.5 -30t67.5 -6h18v-106z" />
    <glyph glyph-name="parenright" unicode=")" horiz-adv-x="420" 
d="M82 -8v106h18q42 0 67.5 6t38.5 30t17 71.5t4 129.5v13q0 82 -4 129t-17 71t-38.5 30t-67.5 6h-18v104h20q51 0 90.5 -3t68 -14t48 -32.5t31.5 -59t17 -93.5t5 -135v-20q0 -79 -5 -135.5t-17 -94t-31.5 -59.5t-48 -33t-68 -14t-90.5 -3h-20z" />
    <glyph glyph-name="asterisk" unicode="*" horiz-adv-x="525" 
d="M313 698l-13 -124h-77l-13 124h103zM465 575l-122 -56l-28 49l109 80zM99 648l109 -80l-28 -49l-122 56zM210 324l13 124h77l13 -124h-103zM424 374l-109 80l28 49l122 -56zM58 447l122 56l28 -49l-109 -80z" />
    <glyph glyph-name="plus" unicode="+" horiz-adv-x="673" 
d="M387 33h-100v216h-218v98h218v211h100v-211h217v-98h-217v-216z" />
    <glyph glyph-name="comma" unicode="," horiz-adv-x="288" 
d="M218 -13q0 -39 -7.5 -65t-27 -41.5t-53 -22t-85.5 -6.5v82q40 0 52.5 10.5t12.5 36.5v19h-40v155h148v-168z" />
    <glyph glyph-name="hyphen" unicode="-" horiz-adv-x="486" 
d="M416 194h-346v111h346v-111z" />
    <glyph glyph-name="period" unicode="." horiz-adv-x="288" 
d="M218 0h-148v155h148v-155z" />
    <glyph glyph-name="slash" unicode="/" horiz-adv-x="535" 
d="M160 -8h-107l322 696h107z" />
    <glyph glyph-name="zero" unicode="0" horiz-adv-x="923" 
d="M471 111q85 0 135 6t75 28.5t32 67t7 122.5v12q0 78 -7 122.5t-32 66.5t-75 27.5t-135 5.5h-19q-85 0 -134.5 -5.5t-75 -27.5t-32.5 -66.5t-7 -122.5v-12q0 -78 7 -122.5t32.5 -67t75 -28.5t134.5 -6h19zM449 -8q-84 0 -145.5 4.5t-104.5 18t-69.5 37t-41.5 61t-20.5 91
t-5.5 126.5v20q0 73 5.5 126.5t20.5 91t41.5 61t69.5 37t104.5 18t145.5 4.5h25q84 0 145.5 -4.5t104.5 -18t69.5 -37t41.5 -61t20.5 -91t5.5 -126.5v-20q0 -73 -5.5 -126.5t-20.5 -91t-41.5 -61t-69.5 -37t-104.5 -18t-145.5 -4.5h-25z" />
    <glyph glyph-name="one" unicode="1" horiz-adv-x="600" 
d="M478 0h-142v555h-3l-243 -177l-70 101l278 201h180v-680z" />
    <glyph glyph-name="two" unicode="2" horiz-adv-x="887" 
d="M833 0h-769q0 8 -0.5 23t-0.5 31v30.5v21.5q0 80 11.5 129t49.5 76.5t109.5 38t191.5 13.5q85 3 135.5 7.5t77 16t34 31.5t7.5 53v10q0 30 -7.5 48.5t-31 29.5t-67 15t-116.5 4h-18q-75 0 -118.5 -4t-66.5 -16t-29.5 -34.5t-6.5 -59.5v-14h-139v14q0 73 12 117.5t49 68
t105.5 31t182.5 7.5h18q115 0 188 -8t115 -29t57.5 -58t15.5 -95v-24q0 -69 -14 -110.5t-49.5 -65t-96.5 -32.5t-155 -12q-108 -4 -168 -8.5t-89.5 -16t-36 -33t-6.5 -57.5v-30h626v-109z" />
    <glyph glyph-name="three" unicode="3" horiz-adv-x="896" 
d="M839 175q0 -57 -15 -92.5t-58.5 -55.5t-121 -27.5t-203.5 -7.5h-29q-111 0 -179.5 7t-105.5 29t-49.5 63.5t-12.5 109.5v26h140v-23q0 -36 6.5 -56t28.5 -30.5t64 -13t113 -2.5h20q83 0 133.5 2.5t78 12t36.5 28t9 50.5v13q0 28 -7.5 44.5t-24 24.5t-44 10.5t-67.5 2.5
h-194v105h194q36 0 60.5 4t39 13t20.5 24.5t6 38.5v14q0 28 -8.5 45.5t-34 27t-72.5 13t-123 3.5h-16q-69 0 -110.5 -2.5t-63.5 -13t-29 -30.5t-7 -56v-19h-138v23q0 68 12.5 109t49.5 63t104.5 29t176.5 7h26q123 0 198 -8t115 -28t53 -54t13 -86v-16q0 -39 -5.5 -64.5
t-19.5 -42.5t-37 -27t-57 -16v-2q34 -5 59.5 -13t42 -24t25 -42t8.5 -67v-23z" />
    <glyph glyph-name="four" unicode="4" horiz-adv-x="905" 
d="M743 0h-142v146h-545v165l507 369h180v-425h109v-109h-109v-146zM601 255v305h-6l-410 -301v-4h416z" />
    <glyph glyph-name="five" unicode="5" horiz-adv-x="893" 
d="M429 -8q-117 0 -187.5 7t-109 27.5t-50.5 58.5t-12 101v17h137v-13q0 -29 8 -46t33.5 -26.5t72.5 -12.5t126 -3h20q77 0 123 3.5t70 15.5t31.5 34.5t7.5 60.5v13q0 37 -5.5 59.5t-28 34.5t-68.5 16t-126 4h-38q-60 0 -98.5 -2t-62 -8t-35 -16.5t-16.5 -26.5h-134v390h725
v-110h-591v-184h2q11 19 28 32t45.5 20.5t70 10.5t100.5 3h42q105 0 170 -9t101 -32t48.5 -64.5t12.5 -105.5v-28q0 -69 -13.5 -112.5t-55 -67.5t-117 -32.5t-198.5 -8.5h-28z" />
    <glyph glyph-name="six" unicode="6" horiz-adv-x="898" 
d="M438 -8q-81 0 -140.5 3.5t-100.5 14.5t-66.5 32t-39.5 55.5t-19 85.5t-5 122v39q0 79 6 135t21.5 94t43.5 61t71.5 35t105 15.5t144.5 3.5h25q106 0 171.5 -7t102 -27.5t49 -58.5t12.5 -100v-16h-137v12q0 28 -7 45.5t-28 27t-61 12.5t-106 3h-17q-85 0 -135 -5.5
t-75.5 -25t-33 -57.5t-7.5 -103v-30h2q11 15 28 26.5t43.5 20t65.5 12.5t93 4h20q120 0 193 -6.5t112.5 -28.5t53 -63.5t13.5 -110.5v-14q0 -66 -13.5 -106t-53.5 -62.5t-113 -30t-192 -7.5h-26zM459 102q80 0 127 3.5t71 15t30.5 32t6.5 53.5v11q0 33 -7 52.5t-31 29.5
t-71 13t-126 3h-17q-75 0 -121 -3t-70.5 -12t-33 -25.5t-8.5 -43.5v-8q0 -41 6 -64.5t29.5 -36.5t70 -16.5t127.5 -3.5h17z" />
    <glyph glyph-name="seven" unicode="7" horiz-adv-x="849" 
d="M336 0h-173l468 556v3h-590v121h763v-115z" />
    <glyph glyph-name="eight" unicode="8" horiz-adv-x="894" 
d="M454 401q79 0 124.5 3t68 12t28 26t5.5 46v8q0 28 -6 45t-29 26t-68 12t-123 3h-16q-78 0 -123 -3t-68 -12t-29 -26t-6 -45v-8q0 -29 5.5 -46t28 -26t68 -12t124.5 -3h16zM455 100q76 0 122.5 2t71.5 11t33 27t8 50v15q0 32 -8 50t-33 27t-71.5 11t-122.5 2h-16
q-77 0 -123 -2t-71 -11t-33 -27t-8 -50v-15q0 -32 8 -50t33 -27t71 -11t123 -2h16zM434 -8q-120 0 -193 6t-113 25t-53 53t-13 91v10q0 43 7 73t23.5 49.5t43 30t66.5 15.5v2q-39 5 -64 14.5t-40 27t-21 46t-6 72.5v10q0 54 11.5 87t49.5 52t110 25.5t192 6.5h24
q120 0 192 -6.5t110 -25.5t49.5 -52t11.5 -87v-10q0 -42 -6 -70.5t-21.5 -46.5t-42.5 -27.5t-70 -15.5v-2q43 -5 72 -15t46.5 -29t25 -49t7.5 -75v-10q0 -57 -13.5 -91t-53 -53t-113 -25t-193.5 -6h-25z" />
    <glyph glyph-name="nine" unicode="9" horiz-adv-x="899" 
d="M415 -8q-107 0 -173.5 7t-104 27.5t-51 58.5t-13.5 100v16h137v-12q0 -28 8 -45t30.5 -26.5t64 -12.5t107.5 -3h16q86 0 136.5 5t76.5 24.5t33 57.5t7 103v30h-2q-11 -15 -27.5 -26.5t-43.5 -19.5t-65.5 -12.5t-93.5 -4.5h-21q-120 0 -192.5 6.5t-112.5 28.5t-53 63.5
t-13 110.5v14q0 67 13.5 107.5t53.5 62.5t113 29t192 7h25q122 0 195.5 -8.5t112.5 -40t51 -94t12 -170.5v-39q0 -79 -6 -135t-21.5 -94t-43 -61t-71 -35t-105 -15.5t-145.5 -3.5h-26zM458 365q75 0 121 3.5t71 12.5t33 25.5t8 43.5v8q0 40 -6 64t-29.5 37t-70 16.5
t-127.5 3.5h-17q-80 0 -126.5 -3.5t-70.5 -15t-30.5 -31.5t-6.5 -53v-12q0 -33 7 -53t31 -30t70.5 -13t125.5 -3h17z" />
    <glyph glyph-name="colon" unicode=":" horiz-adv-x="304" 
d="M226 325h-148v155h148v-155zM226 0h-148v155h148v-155z" />
    <glyph glyph-name="semicolon" unicode=";" horiz-adv-x="304" 
d="M226 325h-148v155h148v-155zM226 -13q0 -39 -7.5 -65t-27 -41.5t-53 -22t-85.5 -6.5v82q40 0 52.5 10.5t12.5 36.5v19h-40v155h148v-168z" />
    <glyph glyph-name="less" unicode="&#x3c;" horiz-adv-x="673" 
d="M604 48l-535 212v80l535 212v-103l-390 -149v-2l390 -147v-103z" />
    <glyph glyph-name="equal" unicode="=" horiz-adv-x="673" 
d="M604 342h-535v98h535v-98zM604 138h-535v98h535v-98z" />
    <glyph glyph-name="greater" unicode="&#x3e;" horiz-adv-x="673" 
d="M604 260l-535 -212v103l389 147v2l-389 149v103l535 -212v-80z" />
    <glyph glyph-name="question" unicode="?" horiz-adv-x="777" 
d="M421 222h-132v15q0 37 6 63t23 43t46 27t76 16q54 7 86 13.5t48.5 17t21.5 27.5t5 45v10q0 26 -6.5 42.5t-26.5 26t-57 13t-98 3.5h-18q-66 0 -106 -3t-61.5 -13.5t-28.5 -32t-7 -57.5v-21h-130v21q0 70 15.5 111.5t54 63.5t102.5 28.5t161 6.5h18q95 0 156.5 -7t97 -27
t49.5 -55.5t14 -92.5v-18q0 -52 -8 -85.5t-29 -55t-58 -33.5t-95 -19q-39 -5 -62.5 -9.5t-36 -10.5t-16.5 -15t-4 -24v-14zM430 0h-147v147h147v-147z" />
    <glyph glyph-name="at" unicode="@" horiz-adv-x="1038" 
d="M519 157q45 0 72 5t41.5 18t19.5 35t5 57v8q0 36 -5.5 58.5t-21 35t-42.5 16.5t-69 4h-13q-36 0 -59 -4t-36 -16t-18 -34.5t-5 -59.5v-8q0 -38 5 -60.5t18 -34.5t36 -16t59 -4h13zM936 8q0 -36 -17.5 -58.5t-62.5 -35.5t-123 -17.5t-199 -4.5h-29q-95 0 -164.5 4
t-118.5 16t-80 34.5t-49 60t-24.5 92.5t-6.5 131v60q0 113 16.5 180t64 102.5t134.5 46.5t228 11h27q99 0 170 -3.5t120.5 -15.5t79.5 -34t46.5 -58.5t22 -90t5.5 -128.5v-50q0 -56 -9.5 -92t-29.5 -56.5t-52.5 -28t-77.5 -7.5q-63 0 -95 14.5t-43 60.5h-4q-9 -23 -21 -38
t-30.5 -24t-45.5 -12.5t-66 -3.5h-18q-64 0 -104 6t-63 27t-31.5 61.5t-8.5 108.5v13q0 65 8.5 105t31.5 61.5t63 28.5t104 7h18q37 0 63.5 -3t45 -11t31 -22.5t23.5 -38.5h2v67h99v-251q0 -23 2.5 -38.5t8.5 -24.5t17.5 -12.5t29.5 -3.5q21 0 33.5 3.5t20 15.5t10 35.5
t2.5 63.5v35q0 64 -3 109t-15 75.5t-35 48t-63 26.5t-99 11.5t-142 2.5h-28q-120 0 -191 -8t-107.5 -37t-47.5 -85.5t-11 -152.5v-52q0 -63 4 -108t16.5 -75t36.5 -48.5t63.5 -27.5t97.5 -12t139 -3h28q105 0 166 2.5t92 8.5t39.5 16t8.5 25v6h97v-10z" />
    <glyph glyph-name="A" unicode="A" horiz-adv-x="951" 
d="M947 0h-167l-73 136h-468l-73 -136h-162l380 680h187zM654 242l-174 330h-8l-177 -330h359z" />
    <glyph glyph-name="B" unicode="B" horiz-adv-x="931" 
d="M76 0v680h524q80 0 130.5 -10t79 -30.5t39 -52.5t10.5 -76q0 -74 -28 -109.5t-75 -45.5v-2q63 -8 94.5 -46.5t31.5 -115.5q0 -54 -12.5 -91t-41 -59.5t-75 -32t-115.5 -9.5h-562zM613 110q40 0 64 5t37 16t17.5 29.5t4.5 44.5q0 27 -4 45t-16 29t-33.5 15.5t-55.5 4.5
h-403v-189h389zM606 400q62 0 85 19.5t23 66.5q0 25 -5 41.5t-17 26.5t-33 14.5t-53 4.5h-382v-173h382z" />
    <glyph glyph-name="C" unicode="C" horiz-adv-x="963" 
d="M484 -8q-136 0 -219.5 11.5t-129 47.5t-61 102.5t-15.5 176.5v20q0 73 6 126.5t22.5 91t46 61t77 36.5t114.5 18t159 5h31q124 0 199.5 -9t116 -33t53.5 -65.5t13 -107.5v-26h-144v13q0 34 -6.5 56t-31 34.5t-73 17t-132.5 4.5h-21q-96 0 -152 -6t-84.5 -28.5t-36 -67.5
t-7.5 -124v-12q0 -78 7.5 -122.5t36 -67t84.5 -28.5t152 -6h21q85 0 135 4.5t75.5 17t33 36t7.5 61.5v11h144v-32q0 -63 -14.5 -104.5t-56.5 -66.5t-118.5 -35t-200.5 -10h-31z" />
    <glyph glyph-name="D" unicode="D" horiz-adv-x="1007" 
d="M948 330q0 -72 -5.5 -124t-21 -89t-44.5 -59.5t-76.5 -35.5t-115 -17.5t-161.5 -4.5h-448v680h448q93 0 161 -4t115 -16.5t76 -35t45 -59.5t21.5 -89.5t5.5 -125.5v-20zM512 118q100 0 157.5 7t86 29.5t36 65.5t7.5 115v12q0 75 -7.5 118t-37 65t-86.5 28t-156 6h-287
v-446h287z" />
    <glyph glyph-name="E" unicode="E" horiz-adv-x="819" 
d="M786 0h-710v680h702v-114h-554v-164h527v-111h-527v-174h562v-117z" />
    <glyph glyph-name="F" unicode="F" horiz-adv-x="778" 
d="M224 0h-148v680h678v-117h-530v-186h507v-111h-507v-266z" />
    <glyph glyph-name="G" unicode="G" horiz-adv-x="964" 
d="M484 -8q-138 0 -222 12t-129 48t-59.5 102.5t-14.5 175.5v20q0 73 6 126.5t22.5 91t46 61t77 37t114.5 18t159 4.5h30q120 0 195 -8.5t117 -31.5t56.5 -64t14.5 -105v-21h-145v8q0 34 -7.5 55t-32.5 32.5t-73 15.5t-130 4h-20q-96 0 -152 -6t-84.5 -29t-36.5 -68.5
t-8 -123.5v-12q0 -52 3 -88.5t13 -61.5t28.5 -40t49.5 -22.5t77 -10t110 -2.5h20q86 0 136 5t75.5 18.5t32.5 37.5t7 62v31h-309v103h454v-130q0 -74 -15.5 -121.5t-58 -74.5t-119 -37.5t-198.5 -10.5h-30z" />
    <glyph glyph-name="H" unicode="H" horiz-adv-x="978" 
d="M902 0h-149v288h-528v-288h-149v680h149v-268h528v268h149v-680z" />
    <glyph glyph-name="I" unicode="I" horiz-adv-x="301" 
d="M225 0h-149v680h149v-680z" />
    <glyph glyph-name="J" unicode="J" horiz-adv-x="765" 
d="M343 -8q-99 0 -159.5 8.5t-94 33t-45 68t-11.5 113.5v47h146v-18q0 -44 5.5 -70.5t23 -40.5t50.5 -18.5t89 -4.5h20q59 0 94 4.5t53 19.5t23.5 44t5.5 79v423h149v-432q0 -83 -12 -133.5t-46.5 -77.5t-97 -36t-162.5 -9h-31z" />
    <glyph glyph-name="K" unicode="K" horiz-adv-x="912" 
d="M912 0h-215l-363 285h-109v-285h-149v680h149v-274h116l337 274h198l-422 -331z" />
    <glyph glyph-name="L" unicode="L" horiz-adv-x="729" 
d="M717 0h-641v680h149v-562h492v-118z" />
    <glyph glyph-name="M" unicode="M" horiz-adv-x="1224" 
d="M1148 0h-146v551h-3l-327 -551h-118l-329 551h-3v-551h-146v680h227l311 -526h3l308 526h223v-680z" />
    <glyph glyph-name="N" unicode="N" horiz-adv-x="1019" 
d="M943 0h-224l-491 553h-5v-553h-147v680h228l487 -553h5v553h147v-680z" />
    <glyph glyph-name="O" unicode="O" horiz-adv-x="1010" 
d="M490 -8q-94 0 -162.5 4.5t-116 17.5t-77.5 36t-46.5 60.5t-22.5 91.5t-6 128v20q0 74 6 128t22.5 91.5t46.5 61t77.5 36t116 17t162.5 4.5h30q94 0 162.5 -4.5t116 -17t77.5 -36t46.5 -61t22.5 -91.5t6 -128v-20q0 -74 -6 -128t-22.5 -91.5t-46.5 -61t-77.5 -36t-116 -17
t-162.5 -4.5h-30zM515 109q99 0 156 6t86 29t36.5 68t7.5 123v11q0 78 -7.5 123.5t-36.5 68.5t-86 29t-156 6h-20q-99 0 -156 -6t-86 -29t-36.5 -68.5t-7.5 -123.5v-11q0 -78 7.5 -123t36.5 -68t86 -29t156 -6h20z" />
    <glyph glyph-name="P" unicode="P" horiz-adv-x="891" 
d="M505 326q69 0 109.5 4t60.5 16t25.5 34.5t5.5 60.5v11q0 39 -5.5 62t-25.5 35t-60.5 15.5t-109.5 3.5h-281v-242h281zM224 0h-148v680h455q100 0 163 -8t98 -32.5t47.5 -68.5t12.5 -116v-17q0 -72 -12.5 -116t-48 -68.5t-98 -32.5t-162.5 -8h-307v-213z" />
    <glyph glyph-name="Q" unicode="Q" horiz-adv-x="1025" 
d="M490 -8q-94 0 -162.5 4.5t-116 17.5t-77.5 36t-46.5 60.5t-22.5 91.5t-6 128v20q0 74 6 128t22.5 91.5t46.5 61t77.5 36t116 17t162.5 4.5h30q94 0 162.5 -4.5t116 -17t77.5 -36t46.5 -61t22.5 -91.5t6 -128v-20q0 -58 -3.5 -103.5t-13.5 -80.5l87 -48l-61 -99l-81 55
q-23 -19 -55 -31t-76 -19t-100.5 -9.5t-127.5 -2.5h-30zM515 109q93 0 149 4t87 22l-236 138l64 99l221 -143q2 21 3 47.5t1 58.5v11q0 78 -8 123.5t-37 68.5t-86.5 29t-157.5 6h-20q-99 0 -156 -6t-86 -29t-36.5 -68.5t-7.5 -123.5v-11q0 -78 7.5 -123t36.5 -68t86 -29
t156 -6h20z" />
    <glyph glyph-name="R" unicode="R" horiz-adv-x="928" 
d="M542 333q52 0 85 5t51.5 17t25 32.5t6.5 52.5v15q0 37 -6 59t-25 34t-53.5 16t-91.5 4h-310v-235h318zM859 0h-148v65q0 51 -6.5 82.5t-28.5 48t-64 22t-113 5.5h-275v-223h-148v680h514q81 0 133.5 -9t83 -32t42 -61.5t11.5 -98.5v-25q0 -80 -29.5 -118.5t-92.5 -51.5
v-4q36 -6 59.5 -15.5t37 -28t19 -48.5t5.5 -76v-112z" />
    <glyph glyph-name="S" unicode="S" horiz-adv-x="925" 
d="M864 196q0 -62 -13.5 -102t-54 -62.5t-113.5 -31t-192 -8.5h-32q-133 0 -210.5 7.5t-118 29.5t-52 62t-11.5 105v21h148v-16q0 -33 8 -52t32.5 -29t70.5 -13t123 -3h27q81 0 129 3.5t73 13.5t32.5 27t7.5 44v7q0 28 -6.5 46t-31.5 28t-75 13.5t-137 3.5q-89 0 -152.5 3
t-107 11.5t-69 22t-39.5 35t-18 51t-4 69.5v8q0 61 13.5 99.5t51.5 60.5t106.5 30t178.5 8h34q85 0 146.5 -4t103.5 -12.5t68 -23.5t40 -37.5t18.5 -52.5t4.5 -70v-18h-147v11q0 30 -7 49t-29 29.5t-64 14.5t-112 4h-26q-79 0 -125.5 -3t-70.5 -12.5t-31 -27t-7 -45.5v-7
q0 -25 6 -40.5t31.5 -24.5t77.5 -12t144 -3q84 0 145 -3t103.5 -11t68.5 -22t40 -36t19 -53.5t5 -73.5v-8z" />
    <glyph glyph-name="T" unicode="T" horiz-adv-x="799" 
d="M474 0h-149v563h-313v117h775v-117h-313v-563z" />
    <glyph glyph-name="U" unicode="U" horiz-adv-x="966" 
d="M472 -8q-126 0 -204 11.5t-121.5 40.5t-58.5 79t-15 127v430h149v-398q0 -58 8.5 -92t35 -52t75.5 -23t130 -5h22q81 0 130.5 5.5t76 23.5t35.5 52t9 91v398h149v-430q0 -77 -15 -126.5t-58.5 -79t-122 -41t-205.5 -11.5h-20z" />
    <glyph glyph-name="V" unicode="V" horiz-adv-x="942" 
d="M561 0h-181l-376 680h169l300 -551h4l294 551h167z" />
    <glyph glyph-name="W" unicode="W" horiz-adv-x="1282" 
d="M1025 0h-181l-201 512h-2l-202 -512h-183l-248 680h159l192 -547h2l211 547h149l212 -548h2l186 548h153z" />
    <glyph glyph-name="X" unicode="X" horiz-adv-x="950" 
d="M939 0h-193l-271 277l-272 -277h-193l352 346l-323 334h186l250 -259l250 259h186l-323 -334z" />
    <glyph glyph-name="Y" unicode="Y" horiz-adv-x="917" 
d="M532 0h-149v247l-379 433h180l275 -315h4l270 315h180l-381 -433v-247z" />
    <glyph glyph-name="Z" unicode="Z" horiz-adv-x="882" 
d="M836 0h-790v114l584 456v1h-566v109h763v-117l-584 -451v-1h593v-111z" />
    <glyph glyph-name="bracketleft" unicode="[" horiz-adv-x="420" 
d="M335 -8h-265v696h265v-98h-131v-500h131v-98z" />
    <glyph glyph-name="backslash" unicode="\" horiz-adv-x="536" 
d="M482 -8h-107l-322 696h107z" />
    <glyph glyph-name="bracketright" unicode="]" horiz-adv-x="420" 
d="M350 -8h-265v98h131v500h-131v98h265v-696z" />
    <glyph glyph-name="asciicircum" unicode="^" horiz-adv-x="750" 
d="M726 302h-143l-207 269h-2l-209 -269h-141l297 378h106z" />
    <glyph glyph-name="underscore" unicode="_" horiz-adv-x="574" 
d="M574 -152h-574v71h574v-71z" />
    <glyph glyph-name="grave" unicode="`" 
d="M301 534l-212 104l54 77l190 -138z" />
    <glyph glyph-name="a" unicode="a" horiz-adv-x="718" 
d="M651 0h-136v56h-3q-13 -17 -27.5 -29t-36.5 -19.5t-54.5 -11.5t-80.5 -4h-21q-75 0 -121.5 7t-73 23.5t-35.5 45t-9 72.5v17q0 42 11 69.5t38 44t72.5 23t115.5 6.5h22q87 0 132.5 -9.5t65.5 -36.5h4v36q0 37 -4.5 59.5t-20 34.5t-45.5 15.5t-81 3.5h-20
q-45 0 -73.5 -2.5t-44 -9.5t-21 -18t-5.5 -29v-8h-131v11q0 42 14 69.5t46.5 43t86.5 22t134 6.5h23q90 0 144.5 -7.5t84.5 -32t40 -70.5t10 -122v-256zM358 77q50 0 81 3t48.5 11t23.5 21t6 34v6q0 21 -6.5 34.5t-24 21t-49.5 10t-83 2.5h-13q-50 0 -80 -2.5t-46 -10
t-21.5 -21t-5.5 -34.5v-6q0 -21 5 -34.5t21.5 -21t47.5 -10.5t82 -3h14z" />
    <glyph glyph-name="b" unicode="b" horiz-adv-x="764" 
d="M424 -8q-45 0 -79.5 3.5t-60.5 12.5t-44.5 24t-32.5 38h-2v-70h-134v680h138v-269h2q24 44 73 60.5t134 16.5h19q83 0 136.5 -8.5t84.5 -34.5t43 -73t12 -124v-13q0 -77 -11.5 -124.5t-42 -73.5t-84 -35.5t-138.5 -9.5h-13zM408 94q55 0 88 5t50.5 20t23 42.5t5.5 73.5
v13q0 46 -5.5 73.5t-23 42.5t-50.5 19.5t-88 4.5h-29q-56 0 -89.5 -4.5t-52 -19.5t-24.5 -42.5t-6 -73.5v-13q0 -45 6 -73t24.5 -43t52 -20t89.5 -5h29z" />
    <glyph glyph-name="c" unicode="c" horiz-adv-x="722" 
d="M356 -8q-94 0 -153.5 10.5t-93 37.5t-46 74t-12.5 121v13q0 74 12.5 120.5t46 73t93 36.5t153.5 10h37q83 0 136.5 -8t85 -27.5t43.5 -53t12 -83.5v-20h-132v5q0 27 -6.5 44t-23.5 26.5t-45.5 13t-73.5 3.5h-29q-56 0 -90 -4.5t-52 -19.5t-24 -42.5t-6 -73.5v-13
q0 -47 6 -74.5t24.5 -42.5t52 -19.5t89.5 -4.5h29q49 0 79 4.5t45.5 15t20.5 28t5 43.5v5h132v-22q0 -50 -12 -83.5t-43.5 -54t-85.5 -29.5t-137 -9h-37z" />
    <glyph glyph-name="d" unicode="d" horiz-adv-x="764" 
d="M693 0h-133v70h-2q-14 -23 -32.5 -38t-44.5 -24t-60.5 -12.5t-80.5 -3.5h-13q-85 0 -138.5 9.5t-84 35.5t-42 73.5t-11.5 124.5v13q0 77 12 124t43 73t84.5 34.5t136.5 8.5h20q84 0 133 -17t73 -60h2v269h138v-680zM385 94q56 0 90 5t52 20t24 42.5t6 73.5v13
q0 46 -6 73.5t-24.5 42.5t-52.5 19.5t-89 4.5h-28q-55 0 -88 -4.5t-51 -19.5t-23.5 -42.5t-5.5 -73.5v-13q0 -46 5.5 -73.5t23.5 -42.5t51 -20t88 -5h28z" />
    <glyph glyph-name="e" unicode="e" horiz-adv-x="715" 
d="M358 -8q-95 0 -154.5 9.5t-93.5 36t-46.5 74t-12.5 122.5v12q0 73 13 120t46 74t89 37.5t143 10.5h29q89 0 145.5 -9t88.5 -32.5t44 -63.5t12 -103v-65h-474v-10q0 -39 6 -63t24.5 -36.5t52.5 -17t89 -4.5h19q49 0 80 3.5t47.5 11.5t22.5 22.5t6 35.5v6h130v-11
q0 -46 -14.5 -77t-47 -49.5t-85 -26t-128.5 -7.5h-31zM530 294v15q0 28 -5.5 46t-22.5 28t-49.5 14t-86.5 4h-11q-54 0 -87 -5t-51 -17t-24 -33t-6 -52h343z" />
    <glyph glyph-name="f" unicode="f" horiz-adv-x="399" 
d="M245 0h-136v384h-93v96h93v38q0 47 11.5 79.5t35.5 52.5t61.5 28.5t90.5 8.5q32 0 59 -1.5t54 -3.5v-92q-20 2 -40.5 3t-37.5 1q-30 0 -49.5 -3.5t-30 -13t-14.5 -25.5t-4 -41v-31h150v-96h-150v-384z" />
    <glyph glyph-name="g" unicode="g" horiz-adv-x="754" 
d="M345 -178q-80 0 -134 6t-86 22.5t-45.5 45.5t-13.5 76v12h138v-7q0 -14 5 -24t20 -16.5t43 -10t73 -3.5h29q57 0 91 4t52 17.5t23.5 38t5.5 66.5v63h-3q-11 -21 -27 -35.5t-40 -24.5t-57.5 -14.5t-79.5 -4.5h-13q-81 0 -134.5 8t-84.5 31.5t-43.5 66.5t-12.5 113v12
q0 70 11.5 114t42 68.5t83 33t133.5 8.5h13q43 0 76 -3.5t59 -12.5t45 -24t33 -38h2v70h134v-412q0 -78 -13.5 -126t-48.5 -75t-94.5 -36t-152.5 -9h-29zM378 134q54 0 87 5t51 18t24.5 36.5t6.5 61.5v13q0 37 -6.5 60.5t-25 37t-51.5 18t-86 4.5h-26q-53 0 -85 -4.5
t-50 -17t-24 -36t-6 -62.5v-13q0 -38 6 -62t24 -37t50 -17.5t85 -4.5h26z" />
    <glyph glyph-name="h" unicode="h" horiz-adv-x="761" 
d="M693 0h-138v249q0 41 -5.5 67t-22 40.5t-47.5 20t-82 5.5h-13q-48 0 -81.5 -6.5t-54.5 -22t-30.5 -41.5t-9.5 -64v-248h-138v680h138v-284h2q13 24 30.5 41t42.5 28.5t59.5 17t82.5 5.5h13q76 0 125 -10t77.5 -35t40 -68t11.5 -110v-265z" />
    <glyph glyph-name="i" unicode="i" horiz-adv-x="280" 
d="M209 0h-138v480h138v-480zM209 561h-138v119h138v-119z" />
    <glyph glyph-name="j" unicode="j" horiz-adv-x="280" 
d="M209 -20q0 -84 -34 -119t-118 -35q-32 0 -62 3v102q10 -1 16.5 -1h11.5q28 0 38 12.5t10 53.5v484h138v-500zM209 561h-138v119h138v-119z" />
    <glyph glyph-name="k" unicode="k" horiz-adv-x="682" 
d="M680 0h-186l-244 209h-41v-209h-138v680h138v-375h42l212 175h180l-280 -224z" />
    <glyph glyph-name="l" unicode="l" horiz-adv-x="280" 
d="M209 0h-138v680h138v-680z" />
    <glyph glyph-name="m" unicode="m" horiz-adv-x="1145" 
d="M1079 0h-138v250q0 41 -5.5 67t-19.5 40.5t-39 19.5t-64 5h-13q-45 0 -75 -6.5t-48 -22.5t-25.5 -41.5t-7.5 -64.5v-247h-138v250q0 40 -5 65.5t-19.5 40.5t-39 20.5t-63.5 5.5h-12q-45 0 -75.5 -6.5t-48.5 -21.5t-26 -40.5t-8 -63.5v-250h-138v480h138v-84h2
q10 19 25.5 36t38.5 29.5t55 19.5t75 7h13q50 0 86 -6t60.5 -19t40 -34t24.5 -50h1q9 22 25 42t41 35t60 23.5t82 8.5h14q69 0 113 -10t69.5 -35t35 -68t9.5 -109v-266z" />
    <glyph glyph-name="n" unicode="n" horiz-adv-x="761" 
d="M693 0h-138v249q0 41 -5.5 67t-22 40.5t-47.5 20t-82 5.5h-13q-48 0 -81.5 -6.5t-54.5 -22t-30.5 -41.5t-9.5 -64v-248h-138v480h138v-84h2q13 24 30.5 41t42.5 28.5t59.5 17t82.5 5.5h13q76 0 125 -10t77.5 -35t40 -68t11.5 -110v-265z" />
    <glyph glyph-name="o" unicode="o" horiz-adv-x="744" 
d="M386 93q57 0 91 4.5t52 19.5t23.5 43t5.5 75v13q0 46 -5.5 74t-23.5 43t-52 19.5t-91 4.5h-28q-57 0 -91 -4.5t-52 -19.5t-23.5 -43t-5.5 -74v-13q0 -46 5.5 -74t23.5 -43t52 -20t91 -5h28zM354 -8q-94 0 -153 9.5t-92.5 36.5t-45.5 74.5t-12 122.5v13q0 76 12.5 123
t46 73t92.5 35t152 9h37q94 0 153 -9t92 -35t45 -73t12 -123v-13q0 -75 -12 -122.5t-45 -74.5t-92 -36.5t-153 -9.5h-37z" />
    <glyph glyph-name="p" unicode="p" horiz-adv-x="764" 
d="M209 -170h-138v650h134v-69h2q15 23 33.5 38t44.5 23.5t60 12t79 3.5h13q85 0 138.5 -9t84 -35.5t42 -74t11.5 -123.5v-13q0 -77 -12 -124t-43 -73t-84.5 -35t-136.5 -9h-19q-85 0 -133 17t-74 61h-2v-240zM408 94q55 0 88 5t50.5 20t23 42.5t5.5 73.5v13q0 46 -5.5 73.5
t-23.5 42.5t-51 19.5t-87 4.5h-29q-56 0 -89.5 -4.5t-52 -19.5t-24.5 -42.5t-6 -73.5v-13q0 -46 6 -73.5t24.5 -42.5t52 -20t89.5 -5h29z" />
    <glyph glyph-name="q" unicode="q" horiz-adv-x="764" 
d="M693 -170h-138v240h-2q-13 -22 -31 -37t-43 -24t-57.5 -13t-74.5 -4h-20q-83 0 -136.5 9t-84.5 35t-43 73t-12 124v13q0 76 11.5 123.5t42 74t84 35.5t138.5 9h13q45 0 79.5 -3.5t60 -12t44.5 -23.5t34 -38h2v69h133v-650zM385 94q55 0 89 5t52.5 20t24.5 42.5t6 73.5v13
q0 46 -6 73.5t-24 42.5t-52 19.5t-90 4.5h-28q-55 0 -88 -4.5t-51 -19.5t-23.5 -42.5t-5.5 -73.5v-13q0 -46 5.5 -73.5t23.5 -42.5t51 -20t88 -5h28z" />
    <glyph glyph-name="r" unicode="r" horiz-adv-x="621" 
d="M209 0h-138v480h136v-99h3q9 26 24 46t38 33.5t55.5 20.5t77.5 7h10q57 0 93 -8.5t55.5 -28t26.5 -50.5t7 -76v-21.5t-1 -24.5h-125v26q0 25 -4.5 41t-17.5 25t-36 12t-60 3h-9q-69 0 -102 -29t-33 -107v-250z" />
    <glyph glyph-name="s" unicode="s" horiz-adv-x="714" 
d="M335 -8q-88 0 -142.5 7.5t-85 24t-41 42t-10.5 61.5v21h136v-4q0 -18 5 -29.5t19.5 -18.5t41.5 -9.5t72 -2.5h42q54 0 86 2.5t48.5 9t21.5 17.5t5 28v6q0 17 -5 27.5t-23.5 16.5t-54.5 8.5t-97 2.5q-95 0 -151.5 6t-87 21.5t-40 42t-9.5 67.5v11q0 39 11.5 65.5t41 42.5
t80.5 23t130 7h33q88 0 143 -6t86 -21.5t41.5 -42t10.5 -66.5v-12h-132v5q0 18 -4.5 29t-19 17.5t-42.5 9t-75 2.5h-26q-47 0 -76 -2t-44.5 -8t-20.5 -16t-5 -26v-7q0 -15 5 -24.5t23 -14.5t52.5 -7t93.5 -2q93 0 150.5 -6t89.5 -21.5t43 -42.5t11 -70v-13q0 -44 -13 -73.5
t-45.5 -46.5t-88.5 -24t-142 -7h-41z" />
    <glyph glyph-name="t" unicode="t" horiz-adv-x="594" 
d="M312 -8q-61 0 -100.5 8.5t-62.5 30.5t-32 60.5t-9 98.5v194h-92v96h92v125h137v-125h311v-96h-311v-172q0 -41 3 -64.5t12.5 -35.5t28 -15.5t48.5 -3.5h14q30 0 48.5 4t28.5 14.5t13 28.5t3 47v27h120v-49q0 -50 -11 -83.5t-37.5 -53.5t-70.5 -28t-110 -8h-23z" />
    <glyph glyph-name="u" unicode="u" horiz-adv-x="755" 
d="M684 0h-138v87h-1q-12 -25 -29 -43t-42.5 -29.5t-61 -17t-83.5 -5.5h-12q-78 0 -127.5 9.5t-77.5 34.5t-38.5 68t-10.5 111v265h138v-248q0 -42 5 -68.5t21.5 -41.5t47.5 -20.5t83 -5.5h13q48 0 81.5 6.5t54.5 22t30 42t9 66.5v247h138v-480z" />
    <glyph glyph-name="v" unicode="v" horiz-adv-x="681" 
d="M424 0h-170l-250 480h149l187 -374h3l186 374h148z" />
    <glyph glyph-name="w" unicode="w" horiz-adv-x="1018" 
d="M815 0h-180l-125 319h-4l-124 -319h-180l-194 480h146l139 -381h4l148 381h128l149 -381h3l139 381h146z" />
    <glyph glyph-name="x" unicode="x" horiz-adv-x="695" 
d="M681 0h-167l-167 184l-166 -184h-167l233 251l-215 229h167l149 -167l148 167h167l-216 -229z" />
    <glyph glyph-name="y" unicode="y" horiz-adv-x="658" 
d="M102 -74q11 -1 22.5 -1h19.5q32 0 53.5 4t37 14t27.5 27.5t26 44.5h-46l-238 465h147l180 -367h6l172 367h145l-211 -422q-37 -74 -65.5 -119.5t-57.5 -70.5t-63.5 -33.5t-84.5 -8.5h-32.5t-37.5 2v98z" />
    <glyph glyph-name="z" unicode="z" horiz-adv-x="603" 
d="M572 0h-538v92l357 292v2h-342v94h515v-100l-349 -281v-2h357v-97z" />
    <glyph glyph-name="braceleft" unicode="{" horiz-adv-x="420" 
d="M332 -8h-92q-72 0 -107 25t-35 94v118q0 39 -13 60t-52 21v66q39 0 52 21t13 60v112q0 69 35 94t107 25h92v-82h-29q-23 0 -38 -3.5t-23 -11t-11 -19t-3 -28.5v-84q0 -26 -2 -46.5t-10 -34.5t-24.5 -23t-46.5 -12v-2q30 -3 46.5 -12t24.5 -23t10 -34.5t2 -46.5v-90
q0 -17 3 -28.5t11 -19t23 -11t38 -3.5h29v-82z" />
    <glyph glyph-name="bar" unicode="|" horiz-adv-x="365" 
d="M232 -70h-99v820h99v-820z" />
    <glyph glyph-name="braceright" unicode="}" horiz-adv-x="420" 
d="M88 -8v82h29q46 0 60.5 14t14.5 48v90q0 26 2 46.5t10 34.5t24.5 23t46.5 12v2q-30 3 -46.5 12t-24.5 23t-10 34.5t-2 46.5v84q0 34 -14.5 48t-60.5 14h-29v82h92q73 0 108 -25t35 -94v-112q0 -39 13 -60t51 -21v-66q-38 0 -51 -21t-13 -60v-118q0 -69 -35 -94t-108 -25
h-92z" />
    <glyph glyph-name="asciitilde" unicode="~" horiz-adv-x="673" 
d="M599 326q-31 -60 -65.5 -89t-87.5 -29q-35 0 -62 11t-51 26q-26 16 -50.5 28t-52.5 12q-31 0 -50 -18t-36 -50l-70 46q30 60 65 88.5t88 28.5q33 0 60 -11t53 -27t51 -27.5t51 -11.5q32 0 50.5 18.5t35.5 49.5z" />
    <glyph glyph-name="uni00A0" unicode="&#xa0;" horiz-adv-x="333" 
 />
    <glyph glyph-name="exclamdown" unicode="&#xa1;" horiz-adv-x="315" 
d="M231 325h-147v155h147v-155zM231 -200h-147l9 447h129z" />
    <glyph glyph-name="cent" unicode="&#xa2;" horiz-adv-x="757" 
d="M419 -35h-77v115q-86 1 -139.5 12.5t-83.5 38.5t-41 73.5t-11 118.5v13q0 73 11 119.5t41.5 72.5t84 36.5t138.5 11.5v104h77v-104q79 0 130.5 -8.5t82 -28t43 -52.5t12.5 -83v-20h-126v5q0 26 -5.5 42.5t-20.5 26t-43 13t-73 4.5v-292q46 1 74 5.5t43.5 14.5t20.5 27
t5 42v6h127v-27q0 -48 -12 -81t-42.5 -52.5t-82.5 -28.5t-133 -9v-115zM197 323q0 -44 5 -70.5t20.5 -41.5t44 -21t75.5 -7v291q-48 -1 -76.5 -6t-44 -20t-20 -42t-4.5 -70v-13z" />
    <glyph glyph-name="sterling" unicode="&#xa3;" horiz-adv-x="905" 
d="M851 0h-784v109q30 5 49 16t30.5 30.5t16 49.5t6.5 73h-108v97h109q1 102 13.5 163.5t48 95t99.5 44t166 10.5h18q87 0 146 -6.5t95 -27t51.5 -59t15.5 -103.5v-14h-141v10q0 29 -6 47t-24 28t-51 13.5t-86 3.5h-18q-63 0 -100.5 -5.5t-58 -26.5t-27 -62t-7.5 -111h312
v-97h-314q-2 -40 -6.5 -67t-14 -45t-24 -30t-35.5 -21v-3h629v-112z" />
    <glyph glyph-name="currency" unicode="&#xa4;" horiz-adv-x="775" 
d="M636 -7l-96 95q-31 -22 -69.5 -33.5t-81.5 -11.5q-83 0 -152 47l-99 -97l-63 64l96 96q-48 62 -48 156q0 45 11.5 83t32.5 69l-92 92l64 64l94 -93q32 23 71.5 35.5t84.5 12.5t84 -12t71 -34l91 91l65 -64l-90 -90q22 -30 34.5 -69t12.5 -85q0 -48 -13.5 -87.5
t-36.5 -71.5l93 -93zM389 148q35 0 63.5 13t48.5 34.5t31 51t11 62.5t-11 61.5t-31.5 50.5t-49 34.5t-62.5 12.5q-35 0 -63 -12.5t-48 -34.5t-31 -50.5t-11 -61.5t11 -62.5t31 -51t48 -34.5t63 -13z" />
    <glyph glyph-name="yen" unicode="&#xa5;" horiz-adv-x="882" 
d="M515 0h-147v199h-291v62h291v15l-70 81h-221v62h169l-222 261h173l244 -316h2l241 316h174l-223 -261h170v-62h-222l-68 -81v-15h290v-62h-290v-199z" />
    <glyph glyph-name="brokenbar" unicode="&#xa6;" horiz-adv-x="365" 
d="M232 427h-99v323h99v-323zM232 -70h-99v329h99v-329z" />
    <glyph glyph-name="section" unicode="&#xa7;" horiz-adv-x="910" 
d="M832 -43q0 -48 -15.5 -80.5t-56 -51.5t-110 -27t-176.5 -8h-32q-120 0 -192.5 7.5t-111 27t-50.5 54.5t-12 91v23h150v-13q0 -24 6 -39.5t28.5 -25.5t66.5 -14t119 -4h12q77 0 122 4t68 13t29.5 24.5t6.5 38.5v7q0 24 -7.5 39.5t-30 24.5t-65 12.5t-112.5 3.5h-42
q-102 0 -168.5 6.5t-105.5 24t-54 47t-15 74.5v15q0 55 27 84.5t99 43.5v1q-39 4 -63.5 15t-38.5 29t-19 43t-5 56v10q0 52 14 86t53 54t108 27.5t179 7.5h34q123 0 194 -8.5t107 -30t45.5 -59t9.5 -94.5v-19h-146v12q0 27 -7 45t-28.5 28.5t-61 15t-105.5 4.5h-27
q-74 0 -118 -3.5t-67.5 -12t-30.5 -23.5t-7 -38v-9q0 -24 6.5 -39t28.5 -24t64 -12t113 -3h27q111 0 181.5 -6.5t111 -23.5t55.5 -47t15 -77v-12q0 -66 -30.5 -95.5t-99.5 -37.5v-1q37 -6 62 -16t40 -27.5t21.5 -43.5t6.5 -63v-11zM461 156q75 0 119 3.5t67 12t30 24t7 39.5
v11q0 24 -6.5 39.5t-29 25t-66 13t-116.5 3.5h-13q-74 0 -118 -4t-67.5 -13.5t-30.5 -24.5t-7 -37v-12q0 -23 6.5 -38.5t28.5 -24.5t63.5 -13t112.5 -4h20z" />
    <glyph glyph-name="dieresis" unicode="&#xa8;" 
d="M195 561h-118v119h118v-119zM427 561h-118v119h118v-119z" />
    <glyph glyph-name="copyright" unicode="&#xa9;" horiz-adv-x="966" 
d="M484 140q-74 0 -120.5 6.5t-73 27.5t-36.5 60t-10 104v10q0 66 10 104.5t36.5 59t73 26.5t120.5 6h16q64 0 106.5 -6.5t67.5 -22.5t35 -43.5t10 -68.5v-16h-107v5q0 21 -5 34.5t-17.5 21t-35 10t-58.5 2.5h-9q-46 0 -73 -3t-41 -14.5t-18 -34t-4 -60.5v-10q0 -38 4 -60.5
t18 -34t41 -15t73 -3.5h9q37 0 59.5 3.5t35.5 11.5t17.5 22t4.5 35v5h107v-24q0 -40 -9.5 -66.5t-34.5 -42.5t-67.5 -22.5t-108.5 -6.5h-16zM497 38q78 0 134 3.5t94 14t61.5 30t35.5 52.5t16 81t4 115v12q0 67 -4 115t-16 81t-35.5 52.5t-61.5 30t-94 14t-134 3.5h-28
q-78 0 -134 -3.5t-94 -14t-61.5 -30t-35.5 -52.5t-16 -81t-4 -115v-12q0 -67 4 -115t16 -81t35.5 -52.5t61.5 -30t94 -14t134 -3.5h28zM469 -8q-129 0 -207.5 11t-120.5 46t-55.5 102t-13.5 179v20q0 112 13.5 179t55.5 102t120.5 46t207.5 11h28q129 0 207 -11t120.5 -46
t56 -102t13.5 -179v-20q0 -112 -13.5 -179t-56 -102t-120.5 -46t-207 -11h-28z" />
    <glyph glyph-name="ordfeminine" unicode="&#xaa;" horiz-adv-x="483" 
d="M241 433q58 0 78 7t20 28v5q0 23 -22 30t-81 7h-9q-29 0 -46 -1.5t-26 -6t-12 -11.5t-3 -18v-5q0 -11 2.5 -17.5t12.5 -10.5t28 -5.5t50 -1.5h8zM424 379h-86v24h-1q-7 -8 -15 -13t-21.5 -8.5t-34 -5t-52.5 -1.5h-12q-44 0 -72 3.5t-45 13.5t-23.5 27t-6.5 44v15
q0 27 8 43.5t25 25.5t45 12t67 3h14q31 0 51 -1t33.5 -3.5t22 -7t15.5 -11.5h1v18q0 21 -3 33.5t-12.5 19.5t-28.5 9.5t-50 2.5h-13q-46 0 -62.5 -6.5t-16.5 -25.5v-6h-85v7q0 28 8 45t28.5 27t54.5 13.5t86 3.5h13q53 0 86 -4.5t51 -19t24.5 -43t6.5 -76.5v-158z" />
    <glyph glyph-name="guillemotleft" unicode="&#xab;" horiz-adv-x="544" 
d="M266 102l-94 -31l-113 200l113 201l94 -31l-93 -170zM480 102l-95 -31l-113 200l113 201l95 -31l-94 -170z" />
    <glyph glyph-name="logicalnot" unicode="&#xac;" horiz-adv-x="673" 
d="M604 133h-101v196h-434v98h535v-294z" />
    <glyph glyph-name="uni00AD" unicode="&#xad;" horiz-adv-x="486" 
d="M416 194h-346v111h346v-111z" />
    <glyph glyph-name="registered" unicode="&#xae;" horiz-adv-x="680" 
d="M364 475q37 0 48.5 6.5t11.5 27.5v5q0 24 -11 30.5t-49 6.5h-96v-76h96zM483 351h-58v26q0 18 -2.5 28.5t-11 15.5t-24.5 6.5t-43 1.5h-76v-78h-61v245h178q30 0 49 -3t30 -11t15.5 -22.5t4.5 -36.5v-9q0 -28 -10 -40.5t-27 -18.5v-1q21 -5 28.5 -17.5t7.5 -44.5v-41z
M348 304q73 0 116.5 5.5t66 22.5t29 50t6.5 87v10q0 54 -6.5 86.5t-29 49.5t-66 22.5t-116.5 5.5h-16q-74 0 -117 -5.5t-66 -22.5t-29.5 -49.5t-6.5 -86.5v-10q0 -54 6.5 -87t29.5 -50t66 -22.5t117 -5.5h16zM332 266q-83 0 -134 7t-80 28.5t-39 61.5t-10 106v10
q0 66 10 106t39 61.5t80 28t134 6.5h16q82 0 133.5 -6.5t80 -28t38.5 -61.5t10 -106v-10q0 -66 -10 -106t-38.5 -61.5t-80 -28.5t-133.5 -7h-16z" />
    <glyph glyph-name="macron" unicode="&#xaf;" 
d="M404 588h-308v72h308v-72z" />
    <glyph glyph-name="degree" unicode="&#xb0;" horiz-adv-x="412" 
d="M206 403q-34 0 -63.5 12t-51 33.5t-34 50.5t-12.5 63t12.5 63t34 50t51 33t63.5 12t63.5 -12t51.5 -33t34.5 -50t12.5 -63t-12.5 -63t-34.5 -50.5t-51.5 -33.5t-63.5 -12zM206 463q42 0 69.5 28.5t27.5 70.5q0 21 -7.5 39t-20 31.5t-30.5 21t-39 7.5t-39 -7.5t-30.5 -21
t-20 -31.5t-7.5 -39q0 -42 27.5 -70.5t69.5 -28.5z" />
    <glyph glyph-name="plusminus" unicode="&#xb1;" horiz-adv-x="673" 
d="M604 0h-535v98h535v-98zM604 338h-218v-169h-100v169h-217v98h217v170h100v-170h218v-98z" />
    <glyph glyph-name="twosuperior" unicode="&#xb2;" horiz-adv-x="551" 
d="M515 453h-468v67q0 36 10.5 61t35.5 40.5t67.5 23t106.5 9.5q50 2 79.5 4.5t44.5 8.5t19.5 15.5t4.5 24.5v7q0 15 -4.5 24.5t-19.5 14.5t-42.5 7t-72.5 2h-10q-41 0 -65 -2t-36.5 -8t-16.5 -17t-4 -29v-10h-90v17q0 37 7.5 59.5t29.5 35t63 17t109 4.5h15q74 0 119.5 -5
t70 -18t33 -34t8.5 -53v-8q0 -34 -9.5 -57t-34.5 -37t-68.5 -20.5t-111.5 -8.5q-48 -2 -77.5 -4.5t-45 -9t-20.5 -17t-5 -28.5v-9h378v-67z" />
    <glyph glyph-name="threesuperior" unicode="&#xb3;" horiz-adv-x="562" 
d="M265 449q-69 0 -111.5 4t-66 16.5t-31 35.5t-7.5 61v15h91v-14q0 -18 4 -28t17 -15t38.5 -6.5t68.5 -1.5h12q51 0 80 2t43.5 7t18.5 14.5t4 23.5v6q0 12 -3 20.5t-12 13t-25 6.5t-42 2h-119v62h120q23 0 36.5 2t21 6.5t10 12.5t2.5 19v8q0 12 -4 20t-18 12.5t-41 6.5
t-72 2h-10q-41 0 -66 -1.5t-38 -6.5t-17 -15t-4 -28v-12h-90v14q0 37 8 60t30.5 35.5t64 16.5t109.5 4h16q73 0 118 -4t69.5 -15t32.5 -29.5t8 -46.5v-7q0 -41 -13 -58.5t-51 -24.5v-1q38 -5 56 -21.5t18 -57.5v-13q0 -33 -9.5 -53t-35.5 -31t-72.5 -14.5t-120.5 -3.5h-18z
" />
    <glyph glyph-name="acute" unicode="&#xb4;" 
d="M190 534l-32 43l190 138l55 -77z" />
    <glyph glyph-name="mu" unicode="&#xb5;" horiz-adv-x="768" 
d="M697 0h-138v87h-1q-12 -24 -28.5 -42t-40.5 -30t-56.5 -17.5t-76.5 -5.5h-11q-48 0 -83.5 12t-51.5 36h-1v-227h-138v667h138v-255q0 -39 8 -64t27.5 -39.5t51 -20t78.5 -5.5h13q48 0 80.5 7t53 22.5t29.5 42t9 65.5v247h138v-480z" />
    <glyph glyph-name="paragraph" unicode="&#xb6;" horiz-adv-x="782" 
d="M705 -164h-98v770h-75v-770h-99v374h-70q-93 0 -150 11t-88 37.5t-41.5 70t-10.5 109.5v17q0 69 11.5 113t46.5 69t98.5 34t167.5 9h308v-844z" />
    <glyph glyph-name="periodcentered" unicode="&#xb7;" horiz-adv-x="288" 
d="M218 188h-148v155h148v-155z" />
    <glyph glyph-name="cedilla" unicode="&#xb8;" horiz-adv-x="449" 
d="M97 -187l-35 41l189 137l62 -73z" />
    <glyph glyph-name="onesuperior" unicode="&#xb9;" horiz-adv-x="369" 
d="M304 453h-98v296h-4l-117 -82l-45 60l142 98h122v-372z" />
    <glyph glyph-name="ordmasculine" unicode="&#xba;" horiz-adv-x="491" 
d="M254 444q33 0 52.5 2.5t30 11t13.5 23.5t3 41v13q0 25 -3 40.5t-13.5 23.5t-30 11t-52.5 3h-17q-33 0 -52.5 -3t-30 -11t-13.5 -23.5t-3 -40.5v-13q0 -26 3 -41t13.5 -23.5t30 -11t52.5 -2.5h17zM234 375q-56 0 -92 5t-56 21t-27.5 44.5t-7.5 76.5v13q0 48 7.5 76.5
t27.5 43.5t56 20t92 5h22q56 0 92 -5t56.5 -20t28 -43.5t7.5 -76.5v-13q0 -48 -7.5 -76.5t-28 -44.5t-56.5 -21t-92 -5h-22z" />
    <glyph glyph-name="guillemotright" unicode="&#xbb;" horiz-adv-x="544" 
d="M159 72l-95 31l94 169l-94 170l95 31l113 -201zM372 72l-94 31l94 169l-94 170l94 31l113 -201z" />
    <glyph glyph-name="onequarter" unicode="&#xbc;" horiz-adv-x="1112" 
d="M370 0h-84l343 680h84zM326 308h-98v296h-4l-117 -82l-45 60l142 98h122v-372zM988 0h-97v80h-337v102l314 190h120v-227h67v-65h-67v-80zM891 145v161h-2l-257 -159v-2h259z" />
    <glyph glyph-name="onehalf" unicode="&#xbd;" horiz-adv-x="1127" 
d="M370 0h-84l343 680h84zM326 308h-98v296h-4l-117 -82l-45 60l142 98h122v-372zM1066 0h-468v67q0 36 10.5 61t35.5 40.5t67.5 23t106.5 9.5q50 2 79.5 4.5t44.5 8.5t19.5 15.5t4.5 24.5v7q0 15 -4.5 24.5t-19.5 14.5t-42.5 7t-72.5 2h-10q-41 0 -65 -2t-36.5 -8
t-16.5 -17t-4 -29v-10h-90v17q0 37 7.5 59.5t29.5 35t63 17t109 4.5h15q74 0 119.5 -5t70 -18t33 -34t8.5 -53v-8q0 -34 -9.5 -57t-34.5 -37t-68.5 -20.5t-111.5 -8.5q-48 -2 -77.5 -4.5t-45 -9t-20.5 -17t-5 -28.5v-9h378v-67z" />
    <glyph glyph-name="threequarters" unicode="&#xbe;" horiz-adv-x="1279" 
d="M536 0h-84l343 680h85zM290 304q-69 0 -111.5 4t-66 16.5t-31 35.5t-7.5 61v15h91v-14q0 -18 4 -28t17 -15t38.5 -6.5t68.5 -1.5h12q51 0 80 2t43.5 7t18.5 14.5t4 23.5v6q0 12 -3 20.5t-12 13t-25 6.5t-42 2h-119v62h120q23 0 36.5 2t21 6.5t10 12.5t2.5 19v8
q0 12 -4 20t-18 12.5t-41 6.5t-72 2h-10q-41 0 -66 -1.5t-38 -6.5t-17 -15t-4 -28v-12h-90v14q0 37 8 60t30.5 35.5t64 16.5t109.5 4h16q73 0 118 -4t69.5 -15t32.5 -29.5t8 -46.5v-7q0 -41 -13 -58.5t-51 -24.5v-1q38 -5 56 -21.5t18 -57.5v-13q0 -33 -9.5 -53t-35.5 -31
t-72.5 -14.5t-120.5 -3.5h-18zM1155 0h-97v80h-337v102l314 190h120v-227h67v-65h-67v-80zM1058 145v161h-2l-257 -159v-2h259z" />
    <glyph glyph-name="questiondown" unicode="&#xbf;" horiz-adv-x="775" 
d="M494 333h-147v147h147v-147zM364 -208q-95 0 -156.5 7t-97 27t-49.5 55.5t-14 92.5v18q0 52 8 85.5t29 55t58 33t95 19.5q39 5 62.5 9.5t36 10.5t16.5 15t4 24v14h132v-15q0 -38 -6 -63.5t-23 -42.5t-46.5 -27t-75.5 -16q-54 -8 -86 -14t-48.5 -16.5t-21.5 -27.5t-5 -45
v-10q0 -26 6.5 -42.5t26.5 -26t57 -13t98 -3.5h18q66 0 106 3t61.5 13.5t28.5 32t7 57.5v21h130v-21q0 -70 -16 -111.5t-54 -63.5t-102 -28.5t-161 -6.5h-18z" />
    <glyph glyph-name="Agrave" unicode="&#xc0;" horiz-adv-x="951" 
d="M947 0h-167l-73 136h-468l-73 -136h-162l380 680h187zM654 242l-174 330h-8l-177 -330h359zM560 729l-227 72l46 82l207 -108z" />
    <glyph glyph-name="Aacute" unicode="&#xc1;" horiz-adv-x="951" 
d="M947 0h-167l-73 136h-468l-73 -136h-162l380 680h187zM654 242l-174 330h-8l-177 -330h359zM623 801l-226 -72l-26 46l207 108z" />
    <glyph glyph-name="Acircumflex" unicode="&#xc2;" horiz-adv-x="951" 
d="M947 0h-167l-73 136h-468l-73 -136h-162l380 680h187zM654 242l-174 330h-8l-177 -330h359zM607 736l-129 67l-129 -67l-38 45l167 112l167 -112z" />
    <glyph glyph-name="Atilde" unicode="&#xc3;" horiz-adv-x="951" 
d="M947 0h-167l-73 136h-468l-73 -136h-162l380 680h187zM654 242l-174 330h-8l-177 -330h359zM639 858q-7 -54 -31 -83.5t-69 -29.5q-18 0 -35 6.5t-37 18.5q-39 23 -62 23q-16 0 -28.5 -10t-19.5 -36l-48 15q5 49 31 79t67 30q32 0 72 -23q42 -26 64 -26q20 0 30 14t14 36
z" />
    <glyph glyph-name="Adieresis" unicode="&#xc4;" horiz-adv-x="951" 
d="M947 0h-167l-73 136h-468l-73 -136h-162l380 680h187zM654 242l-174 330h-8l-177 -330h359zM419 744h-118v119h118v-119zM651 744h-118v119h118v-119z" />
    <glyph glyph-name="Aring" unicode="&#xc5;" horiz-adv-x="951" 
d="M947 0h-167l-73 136h-468l-73 -136h-162l380 680h187zM654 242l-174 330h-8l-177 -330h359zM477 721q-38 0 -62.5 4.5t-39 14t-20.5 25t-6 37.5v6q0 22 6 37.5t20.5 25.5t39 14t62.5 4h6q37 0 62 -4t39.5 -14t20.5 -25.5t6 -37.5v-6q0 -22 -6 -37.5t-20.5 -25t-39.5 -14
t-62 -4.5h-6zM483 763q47 0 62.5 8.5t15.5 30.5v6q0 22 -15.5 30t-62.5 8h-6q-47 0 -62.5 -8t-15.5 -30v-6q0 -22 15.5 -30.5t62.5 -8.5h6z" />
    <glyph glyph-name="AE" unicode="&#xc6;" horiz-adv-x="1429" 
d="M270 136l-100 -136h-167l504 680h881v-114h-555v-164h528v-111h-528v-174h563v-117h-710v136h-416zM348 242h338v322h-101z" />
    <glyph glyph-name="Ccedilla" unicode="&#xc7;" horiz-adv-x="963" 
d="M484 -8q-136 0 -219.5 11.5t-129 47.5t-61 102.5t-15.5 176.5v20q0 73 6 126.5t22.5 91t46 61t77 36.5t114.5 18t159 5h31q124 0 199.5 -9t116 -33t53.5 -65.5t13 -107.5v-26h-144v13q0 34 -6.5 56t-31 34.5t-73 17t-132.5 4.5h-21q-96 0 -152 -6t-84.5 -28.5t-36 -67.5
t-7.5 -124v-12q0 -78 7.5 -122.5t36 -67t84.5 -28.5t152 -6h21q85 0 135 4.5t75.5 17t33 36t7.5 61.5v11h144v-32q0 -63 -14.5 -104.5t-56.5 -66.5t-118.5 -35t-200.5 -10h-31zM366 -187l-35 41l189 137l62 -73z" />
    <glyph glyph-name="Egrave" unicode="&#xc8;" horiz-adv-x="819" 
d="M786 0h-710v680h702v-114h-554v-164h527v-111h-527v-174h562v-117zM515 729l-227 72l46 82l207 -108z" />
    <glyph glyph-name="Eacute" unicode="&#xc9;" horiz-adv-x="819" 
d="M786 0h-710v680h702v-114h-554v-164h527v-111h-527v-174h562v-117zM566 801l-226 -72l-26 46l207 108z" />
    <glyph glyph-name="Ecircumflex" unicode="&#xca;" horiz-adv-x="819" 
d="M786 0h-710v680h702v-114h-554v-164h527v-111h-527v-174h562v-117zM560 736l-129 67l-129 -67l-38 45l167 112l167 -112z" />
    <glyph glyph-name="Edieresis" unicode="&#xcb;" horiz-adv-x="819" 
d="M786 0h-710v680h702v-114h-554v-164h527v-111h-527v-174h562v-117zM372 744h-118v119h118v-119zM604 744h-118v119h118v-119z" />
    <glyph glyph-name="Igrave" unicode="&#xcc;" horiz-adv-x="301" 
d="M225 0h-149v680h149v-680zM190 729l-227 72l46 82l207 -108z" />
    <glyph glyph-name="Iacute" unicode="&#xcd;" horiz-adv-x="301" 
d="M225 0h-149v680h149v-680zM332 801l-226 -72l-26 46l207 108z" />
    <glyph glyph-name="Icircumflex" unicode="&#xce;" horiz-adv-x="301" 
d="M225 0h-149v680h149v-680zM281 736l-129 67l-129 -67l-38 45l167 112l167 -112z" />
    <glyph glyph-name="Idieresis" unicode="&#xcf;" horiz-adv-x="301" 
d="M225 0h-149v680h149v-680zM94 744h-118v119h118v-119zM326 744h-118v119h118v-119z" />
    <glyph glyph-name="Eth" unicode="&#xd0;" horiz-adv-x="1007" 
d="M19 387h57v293h448q93 0 161 -4t115 -16.5t76 -35t45 -59.5t21.5 -89.5t5.5 -125.5v-20q0 -72 -5.5 -124t-21 -89t-44.5 -59.5t-76.5 -35.5t-115 -17.5t-161.5 -4.5h-448v308h-57v79zM512 118q100 0 157.5 7t86 29.5t36 65.5t7.5 115v12q0 75 -7.5 118t-37 65t-86.5 28
t-156 6h-287v-177h221v-79h-221v-190h287z" />
    <glyph glyph-name="Ntilde" unicode="&#xd1;" horiz-adv-x="1019" 
d="M943 0h-224l-491 553h-5v-553h-147v680h228l487 -553h5v553h147v-680zM680 858q-7 -54 -31 -83.5t-69 -29.5q-18 0 -35 6.5t-37 18.5q-39 23 -62 23q-16 0 -28.5 -10t-19.5 -36l-48 15q5 49 31 79t67 30q32 0 72 -23q42 -26 64 -26q20 0 30 14t14 36z" />
    <glyph glyph-name="Ograve" unicode="&#xd2;" horiz-adv-x="1010" 
d="M490 -8q-94 0 -162.5 4.5t-116 17.5t-77.5 36t-46.5 60.5t-22.5 91.5t-6 128v20q0 74 6 128t22.5 91.5t46.5 61t77.5 36t116 17t162.5 4.5h30q94 0 162.5 -4.5t116 -17t77.5 -36t46.5 -61t22.5 -91.5t6 -128v-20q0 -74 -6 -128t-22.5 -91.5t-46.5 -61t-77.5 -36t-116 -17
t-162.5 -4.5h-30zM515 109q99 0 156 6t86 29t36.5 68t7.5 123v11q0 78 -7.5 123.5t-36.5 68.5t-86 29t-156 6h-20q-99 0 -156 -6t-86 -29t-36.5 -68.5t-7.5 -123.5v-11q0 -78 7.5 -123t36.5 -68t86 -29t156 -6h20zM597 729l-227 72l46 82l207 -108z" />
    <glyph glyph-name="Oacute" unicode="&#xd3;" horiz-adv-x="1010" 
d="M490 -8q-94 0 -162.5 4.5t-116 17.5t-77.5 36t-46.5 60.5t-22.5 91.5t-6 128v20q0 74 6 128t22.5 91.5t46.5 61t77.5 36t116 17t162.5 4.5h30q94 0 162.5 -4.5t116 -17t77.5 -36t46.5 -61t22.5 -91.5t6 -128v-20q0 -74 -6 -128t-22.5 -91.5t-46.5 -61t-77.5 -36t-116 -17
t-162.5 -4.5h-30zM515 109q99 0 156 6t86 29t36.5 68t7.5 123v11q0 78 -7.5 123.5t-36.5 68.5t-86 29t-156 6h-20q-99 0 -156 -6t-86 -29t-36.5 -68.5t-7.5 -123.5v-11q0 -78 7.5 -123t36.5 -68t86 -29t156 -6h20zM640 801l-226 -72l-26 46l207 108z" />
    <glyph glyph-name="Ocircumflex" unicode="&#xd4;" horiz-adv-x="1010" 
d="M490 -8q-94 0 -162.5 4.5t-116 17.5t-77.5 36t-46.5 60.5t-22.5 91.5t-6 128v20q0 74 6 128t22.5 91.5t46.5 61t77.5 36t116 17t162.5 4.5h30q94 0 162.5 -4.5t116 -17t77.5 -36t46.5 -61t22.5 -91.5t6 -128v-20q0 -74 -6 -128t-22.5 -91.5t-46.5 -61t-77.5 -36t-116 -17
t-162.5 -4.5h-30zM515 109q99 0 156 6t86 29t36.5 68t7.5 123v11q0 78 -7.5 123.5t-36.5 68.5t-86 29t-156 6h-20q-99 0 -156 -6t-86 -29t-36.5 -68.5t-7.5 -123.5v-11q0 -78 7.5 -123t36.5 -68t86 -29t156 -6h20zM634 736l-129 67l-129 -67l-38 45l167 112l167 -112z" />
    <glyph glyph-name="Otilde" unicode="&#xd5;" horiz-adv-x="1010" 
d="M490 -8q-94 0 -162.5 4.5t-116 17.5t-77.5 36t-46.5 60.5t-22.5 91.5t-6 128v20q0 74 6 128t22.5 91.5t46.5 61t77.5 36t116 17t162.5 4.5h30q94 0 162.5 -4.5t116 -17t77.5 -36t46.5 -61t22.5 -91.5t6 -128v-20q0 -74 -6 -128t-22.5 -91.5t-46.5 -61t-77.5 -36t-116 -17
t-162.5 -4.5h-30zM515 109q99 0 156 6t86 29t36.5 68t7.5 123v11q0 78 -7.5 123.5t-36.5 68.5t-86 29t-156 6h-20q-99 0 -156 -6t-86 -29t-36.5 -68.5t-7.5 -123.5v-11q0 -78 7.5 -123t36.5 -68t86 -29t156 -6h20zM670 858q-7 -54 -31 -83.5t-69 -29.5q-18 0 -35 6.5
t-37 18.5q-39 23 -62 23q-16 0 -28.5 -10t-19.5 -36l-48 15q5 49 31 79t67 30q32 0 72 -23q42 -26 64 -26q20 0 30 14t14 36z" />
    <glyph glyph-name="Odieresis" unicode="&#xd6;" horiz-adv-x="1010" 
d="M490 -8q-94 0 -162.5 4.5t-116 17.5t-77.5 36t-46.5 60.5t-22.5 91.5t-6 128v20q0 74 6 128t22.5 91.5t46.5 61t77.5 36t116 17t162.5 4.5h30q94 0 162.5 -4.5t116 -17t77.5 -36t46.5 -61t22.5 -91.5t6 -128v-20q0 -74 -6 -128t-22.5 -91.5t-46.5 -61t-77.5 -36t-116 -17
t-162.5 -4.5h-30zM515 109q99 0 156 6t86 29t36.5 68t7.5 123v11q0 78 -7.5 123.5t-36.5 68.5t-86 29t-156 6h-20q-99 0 -156 -6t-86 -29t-36.5 -68.5t-7.5 -123.5v-11q0 -78 7.5 -123t36.5 -68t86 -29t156 -6h20zM450 744h-118v119h118v-119zM682 744h-118v119h118v-119z
" />
    <glyph glyph-name="multiply" unicode="&#xd7;" horiz-adv-x="673" 
d="M584 127l-70 -70l-178 175l-177 -175l-70 67l178 176l-178 176l70 68l178 -175l175 174l69 -65l-176 -175z" />
    <glyph glyph-name="Oslash" unicode="&#xd8;" horiz-adv-x="1010" 
d="M54 -8l-40 62l76 50q-19 38 -25 93t-6 133v20q0 74 6 128t22.5 91.5t46.5 61t77.5 36t116 17t162.5 4.5h30q71 0 127 -2.5t100 -9t76 -18t55 -29.5l83 56l41 -61l-80 -54q17 -38 23 -91.5t6 -128.5v-20q0 -74 -6 -128t-22.5 -91.5t-46.5 -61t-77.5 -36t-116 -17
t-162.5 -4.5h-30q-137 0 -221.5 10.5t-130.5 43.5zM495 575q-99 0 -156 -6.5t-86.5 -29.5t-37.5 -69t-8 -124v-11q0 -48 2.5 -83t10.5 -60l533 350q-30 21 -86.5 27t-151.5 6h-20zM515 108q99 0 156.5 6.5t86.5 29.5t37 68t8 123v11q0 45 -2 78.5t-9 58.5l-525 -349
q31 -17 85.5 -21.5t142.5 -4.5h20z" />
    <glyph glyph-name="Ugrave" unicode="&#xd9;" horiz-adv-x="966" 
d="M472 -8q-126 0 -204 11.5t-121.5 40.5t-58.5 79t-15 127v430h149v-398q0 -58 8.5 -92t35 -52t75.5 -23t130 -5h22q81 0 130.5 5.5t76 23.5t35.5 52t9 91v398h149v-430q0 -77 -15 -126.5t-58.5 -79t-122 -41t-205.5 -11.5h-20zM569 729l-227 72l46 82l207 -108z" />
    <glyph glyph-name="Uacute" unicode="&#xda;" horiz-adv-x="966" 
d="M472 -8q-126 0 -204 11.5t-121.5 40.5t-58.5 79t-15 127v430h149v-398q0 -58 8.5 -92t35 -52t75.5 -23t130 -5h22q81 0 130.5 5.5t76 23.5t35.5 52t9 91v398h149v-430q0 -77 -15 -126.5t-58.5 -79t-122 -41t-205.5 -11.5h-20zM614 801l-226 -72l-26 46l207 108z" />
    <glyph glyph-name="Ucircumflex" unicode="&#xdb;" horiz-adv-x="966" 
d="M472 -8q-126 0 -204 11.5t-121.5 40.5t-58.5 79t-15 127v430h149v-398q0 -58 8.5 -92t35 -52t75.5 -23t130 -5h22q81 0 130.5 5.5t76 23.5t35.5 52t9 91v398h149v-430q0 -77 -15 -126.5t-58.5 -79t-122 -41t-205.5 -11.5h-20zM612 736l-129 67l-129 -67l-38 45l167 112
l167 -112z" />
    <glyph glyph-name="Udieresis" unicode="&#xdc;" horiz-adv-x="966" 
d="M472 -8q-126 0 -204 11.5t-121.5 40.5t-58.5 79t-15 127v430h149v-398q0 -58 8.5 -92t35 -52t75.5 -23t130 -5h22q81 0 130.5 5.5t76 23.5t35.5 52t9 91v398h149v-430q0 -77 -15 -126.5t-58.5 -79t-122 -41t-205.5 -11.5h-20zM426 744h-118v119h118v-119zM658 744h-118
v119h118v-119z" />
    <glyph glyph-name="Yacute" unicode="&#xdd;" horiz-adv-x="917" 
d="M532 0h-149v247l-379 433h180l275 -315h4l270 315h180l-381 -433v-247zM623 801l-226 -72l-26 46l207 108z" />
    <glyph glyph-name="Thorn" unicode="&#xde;" horiz-adv-x="892" 
d="M505 230q69 0 109.5 4t60.5 16t25.5 34.5t5.5 60.5v11q0 39 -5.5 62t-25.5 35t-60.5 15.5t-109.5 3.5h-281v-242h281zM224 0h-148v680h148v-96h307q100 0 163 -8t98 -32.5t47.5 -68.5t12.5 -116v-17q0 -72 -12.5 -116t-48 -68.5t-98 -32.5t-162.5 -8h-307v-117z" />
    <glyph glyph-name="germandbls" unicode="&#xdf;" horiz-adv-x="760" 
d="M456 -8q-61 0 -98 8t-57.5 26.5t-27 49t-6.5 75.5v31h103v-14q0 -23 3.5 -38.5t13 -25t27 -13.5t44.5 -4h17q29 0 48 4t30.5 18.5t16 41.5t4.5 73v24q0 41 -5.5 66t-22.5 38.5t-47.5 18t-79.5 4.5h-62v80h48q35 0 57 3t35 10.5t17.5 20t4.5 31.5v9q0 19 -5 31.5t-20 20.5
t-42.5 11.5t-72.5 3.5h-29q-44 0 -71.5 -5t-43 -17.5t-21 -35t-5.5 -57.5v-481h-138v478q0 60 12.5 100t43 64.5t82 34.5t128.5 10h56q78 0 127.5 -8t77.5 -24.5t38.5 -42t10.5 -61.5v-12q0 -55 -25 -80t-73 -32v-1q43 -3 73.5 -13t49.5 -32t28 -58.5t9 -93.5v-17
q0 -66 -12.5 -108.5t-38.5 -67.5t-67 -34.5t-98 -9.5h-37z" />
    <glyph glyph-name="agrave" unicode="&#xe0;" horiz-adv-x="718" 
d="M651 0h-136v56h-3q-13 -17 -27.5 -29t-36.5 -19.5t-54.5 -11.5t-80.5 -4h-21q-75 0 -121.5 7t-73 23.5t-35.5 45t-9 72.5v17q0 42 11 69.5t38 44t72.5 23t115.5 6.5h22q87 0 132.5 -9.5t65.5 -36.5h4v36q0 37 -4.5 59.5t-20 34.5t-45.5 15.5t-81 3.5h-20
q-45 0 -73.5 -2.5t-44 -9.5t-21 -18t-5.5 -29v-8h-131v11q0 42 14 69.5t46.5 43t86.5 22t134 6.5h23q90 0 144.5 -7.5t84.5 -32t40 -70.5t10 -122v-256zM358 77q50 0 81 3t48.5 11t23.5 21t6 34v6q0 21 -6.5 34.5t-24 21t-49.5 10t-83 2.5h-13q-50 0 -80 -2.5t-46 -10
t-21.5 -21t-5.5 -34.5v-6q0 -21 5 -34.5t21.5 -21t47.5 -10.5t82 -3h14zM453 534l-212 104l54 77l190 -138z" />
    <glyph glyph-name="aacute" unicode="&#xe1;" horiz-adv-x="718" 
d="M651 0h-136v56h-3q-13 -17 -27.5 -29t-36.5 -19.5t-54.5 -11.5t-80.5 -4h-21q-75 0 -121.5 7t-73 23.5t-35.5 45t-9 72.5v17q0 42 11 69.5t38 44t72.5 23t115.5 6.5h22q87 0 132.5 -9.5t65.5 -36.5h4v36q0 37 -4.5 59.5t-20 34.5t-45.5 15.5t-81 3.5h-20
q-45 0 -73.5 -2.5t-44 -9.5t-21 -18t-5.5 -29v-8h-131v11q0 42 14 69.5t46.5 43t86.5 22t134 6.5h23q90 0 144.5 -7.5t84.5 -32t40 -70.5t10 -122v-256zM358 77q50 0 81 3t48.5 11t23.5 21t6 34v6q0 21 -6.5 34.5t-24 21t-49.5 10t-83 2.5h-13q-50 0 -80 -2.5t-46 -10
t-21.5 -21t-5.5 -34.5v-6q0 -21 5 -34.5t21.5 -21t47.5 -10.5t82 -3h14zM272 534l-32 43l190 138l55 -77z" />
    <glyph glyph-name="acircumflex" unicode="&#xe2;" horiz-adv-x="718" 
d="M651 0h-136v56h-3q-13 -17 -27.5 -29t-36.5 -19.5t-54.5 -11.5t-80.5 -4h-21q-75 0 -121.5 7t-73 23.5t-35.5 45t-9 72.5v17q0 42 11 69.5t38 44t72.5 23t115.5 6.5h22q87 0 132.5 -9.5t65.5 -36.5h4v36q0 37 -4.5 59.5t-20 34.5t-45.5 15.5t-81 3.5h-20
q-45 0 -73.5 -2.5t-44 -9.5t-21 -18t-5.5 -29v-8h-131v11q0 42 14 69.5t46.5 43t86.5 22t134 6.5h23q90 0 144.5 -7.5t84.5 -32t40 -70.5t10 -122v-256zM358 77q50 0 81 3t48.5 11t23.5 21t6 34v6q0 21 -6.5 34.5t-24 21t-49.5 10t-83 2.5h-13q-50 0 -80 -2.5t-46 -10
t-21.5 -21t-5.5 -34.5v-6q0 -21 5 -34.5t21.5 -21t47.5 -10.5t82 -3h14zM486 547l-129 73l-129 -73l-38 45l167 117l167 -117z" />
    <glyph glyph-name="atilde" unicode="&#xe3;" horiz-adv-x="718" 
d="M651 0h-136v56h-3q-13 -17 -27.5 -29t-36.5 -19.5t-54.5 -11.5t-80.5 -4h-21q-75 0 -121.5 7t-73 23.5t-35.5 45t-9 72.5v17q0 42 11 69.5t38 44t72.5 23t115.5 6.5h22q87 0 132.5 -9.5t65.5 -36.5h4v36q0 37 -4.5 59.5t-20 34.5t-45.5 15.5t-81 3.5h-20
q-45 0 -73.5 -2.5t-44 -9.5t-21 -18t-5.5 -29v-8h-131v11q0 42 14 69.5t46.5 43t86.5 22t134 6.5h23q90 0 144.5 -7.5t84.5 -32t40 -70.5t10 -122v-256zM358 77q50 0 81 3t48.5 11t23.5 21t6 34v6q0 21 -6.5 34.5t-24 21t-49.5 10t-83 2.5h-13q-50 0 -80 -2.5t-46 -10
t-21.5 -21t-5.5 -34.5v-6q0 -21 5 -34.5t21.5 -21t47.5 -10.5t82 -3h14zM517 669q-7 -54 -31 -83.5t-69 -29.5q-18 0 -35 6.5t-37 18.5q-39 23 -62 23q-16 0 -28.5 -10t-19.5 -36l-48 14q5 50 31 80t67 30q32 0 72 -23q42 -26 64 -26q20 0 30 14t14 36z" />
    <glyph glyph-name="adieresis" unicode="&#xe4;" horiz-adv-x="718" 
d="M651 0h-136v56h-3q-13 -17 -27.5 -29t-36.5 -19.5t-54.5 -11.5t-80.5 -4h-21q-75 0 -121.5 7t-73 23.5t-35.5 45t-9 72.5v17q0 42 11 69.5t38 44t72.5 23t115.5 6.5h22q87 0 132.5 -9.5t65.5 -36.5h4v36q0 37 -4.5 59.5t-20 34.5t-45.5 15.5t-81 3.5h-20
q-45 0 -73.5 -2.5t-44 -9.5t-21 -18t-5.5 -29v-8h-131v11q0 42 14 69.5t46.5 43t86.5 22t134 6.5h23q90 0 144.5 -7.5t84.5 -32t40 -70.5t10 -122v-256zM358 77q50 0 81 3t48.5 11t23.5 21t6 34v6q0 21 -6.5 34.5t-24 21t-49.5 10t-83 2.5h-13q-50 0 -80 -2.5t-46 -10
t-21.5 -21t-5.5 -34.5v-6q0 -21 5 -34.5t21.5 -21t47.5 -10.5t82 -3h14zM303 561h-118v119h118v-119zM535 561h-118v119h118v-119z" />
    <glyph glyph-name="aring" unicode="&#xe5;" horiz-adv-x="718" 
d="M651 0h-136v56h-3q-13 -17 -27.5 -29t-36.5 -19.5t-54.5 -11.5t-80.5 -4h-21q-75 0 -121.5 7t-73 23.5t-35.5 45t-9 72.5v17q0 42 11 69.5t38 44t72.5 23t115.5 6.5h22q87 0 132.5 -9.5t65.5 -36.5h4v36q0 37 -4.5 59.5t-20 34.5t-45.5 15.5t-81 3.5h-20
q-45 0 -73.5 -2.5t-44 -9.5t-21 -18t-5.5 -29v-8h-131v11q0 42 14 69.5t46.5 43t86.5 22t134 6.5h23q90 0 144.5 -7.5t84.5 -32t40 -70.5t10 -122v-256zM358 77q50 0 81 3t48.5 11t23.5 21t6 34v6q0 21 -6.5 34.5t-24 21t-49.5 10t-83 2.5h-13q-50 0 -80 -2.5t-46 -10
t-21.5 -21t-5.5 -34.5v-6q0 -21 5 -34.5t21.5 -21t47.5 -10.5t82 -3h14zM358 544q-38 0 -62.5 4.5t-39 14t-20.5 25t-6 37.5v6q0 22 6 37.5t20.5 25t39 13.5t62.5 4h6q37 0 62 -4t39.5 -13.5t20.5 -25t6 -37.5v-6q0 -22 -6 -37.5t-20.5 -25t-39.5 -14t-62 -4.5h-6zM364 586
q47 0 62.5 8.5t15.5 30.5v6q0 22 -15.5 30t-62.5 8h-6q-47 0 -62.5 -8t-15.5 -30v-6q0 -22 15.5 -30.5t62.5 -8.5h6z" />
    <glyph glyph-name="ae" unicode="&#xe6;" horiz-adv-x="1170" 
d="M1119 152q0 -48 -16 -79t-49 -49t-84.5 -25t-121.5 -7h-31q-61 0 -106 3.5t-77 13.5t-53.5 28t-34.5 48h-3q-12 -28 -30.5 -46t-45.5 -28.5t-64.5 -14.5t-89.5 -4h-21q-76 0 -123 7t-72.5 23.5t-34.5 45t-9 72.5v17q0 42 11 69.5t38 44t72.5 23t115.5 6.5h22
q87 0 133 -9.5t66 -37.5h3v37q0 37 -4 59.5t-19 34.5t-44 15.5t-78 3.5h-20q-48 0 -77 -2.5t-45.5 -9t-22 -18t-5.5 -29.5v-8h-131v11q0 42 14 69.5t47.5 43.5t88.5 22t137 6h23q54 0 90 -3.5t59 -11.5t36.5 -20.5t22.5 -31.5h1q13 19 29 32t40 20.5t59 11t86 3.5h29
q80 0 134.5 -7.5t88.5 -29t48.5 -61.5t14.5 -104v-71h-467v-18q0 -36 6 -58t24.5 -34.5t51.5 -16.5t87 -4h19q48 0 78 3.5t46.5 11.5t22.5 22.5t6 35.5v6h129v-11zM358 77q50 0 81 3t48.5 11t23.5 21t6 34v6q0 21 -6.5 34t-24 20.5t-49.5 10.5t-83 3h-13q-50 0 -80 -2.5
t-46.5 -10t-21.5 -21t-5 -34.5v-5q0 -22 5 -35.5t21 -21t47 -10.5t83 -3h14zM986 294v11q0 30 -5.5 48.5t-22.5 29t-49 14.5t-84 4h-12q-53 0 -84.5 -4t-49 -15.5t-23.5 -32.5t-7 -55h337z" />
    <glyph glyph-name="ccedilla" unicode="&#xe7;" horiz-adv-x="722" 
d="M356 -8q-94 0 -153.5 10.5t-93 37.5t-46 74t-12.5 121v13q0 74 12.5 120.5t46 73t93 36.5t153.5 10h37q83 0 136.5 -8t85 -27.5t43.5 -53t12 -83.5v-20h-132v5q0 27 -6.5 44t-23.5 26.5t-45.5 13t-73.5 3.5h-29q-56 0 -90 -4.5t-52 -19.5t-24 -42.5t-6 -73.5v-13
q0 -47 6 -74.5t24.5 -42.5t52 -19.5t89.5 -4.5h29q49 0 79 4.5t45.5 15t20.5 28t5 43.5v5h132v-22q0 -50 -12 -83.5t-43.5 -54t-85.5 -29.5t-137 -9h-37zM236 -187l-35 41l189 137l62 -73z" />
    <glyph glyph-name="egrave" unicode="&#xe8;" horiz-adv-x="715" 
d="M358 -8q-95 0 -154.5 9.5t-93.5 36t-46.5 74t-12.5 122.5v12q0 73 13 120t46 74t89 37.5t143 10.5h29q89 0 145.5 -9t88.5 -32.5t44 -63.5t12 -103v-65h-474v-10q0 -39 6 -63t24.5 -36.5t52.5 -17t89 -4.5h19q49 0 80 3.5t47.5 11.5t22.5 22.5t6 35.5v6h130v-11
q0 -46 -14.5 -77t-47 -49.5t-85 -26t-128.5 -7.5h-31zM530 294v15q0 28 -5.5 46t-22.5 28t-49.5 14t-86.5 4h-11q-54 0 -87 -5t-51 -17t-24 -33t-6 -52h343zM459 534l-212 104l54 77l190 -138z" />
    <glyph glyph-name="eacute" unicode="&#xe9;" horiz-adv-x="715" 
d="M358 -8q-95 0 -154.5 9.5t-93.5 36t-46.5 74t-12.5 122.5v12q0 73 13 120t46 74t89 37.5t143 10.5h29q89 0 145.5 -9t88.5 -32.5t44 -63.5t12 -103v-65h-474v-10q0 -39 6 -63t24.5 -36.5t52.5 -17t89 -4.5h19q49 0 80 3.5t47.5 11.5t22.5 22.5t6 35.5v6h130v-11
q0 -46 -14.5 -77t-47 -49.5t-85 -26t-128.5 -7.5h-31zM530 294v15q0 28 -5.5 46t-22.5 28t-49.5 14t-86.5 4h-11q-54 0 -87 -5t-51 -17t-24 -33t-6 -52h343zM265 534l-32 43l190 138l55 -77z" />
    <glyph glyph-name="ecircumflex" unicode="&#xea;" horiz-adv-x="715" 
d="M358 -8q-95 0 -154.5 9.5t-93.5 36t-46.5 74t-12.5 122.5v12q0 73 13 120t46 74t89 37.5t143 10.5h29q89 0 145.5 -9t88.5 -32.5t44 -63.5t12 -103v-65h-474v-10q0 -39 6 -63t24.5 -36.5t52.5 -17t89 -4.5h19q49 0 80 3.5t47.5 11.5t22.5 22.5t6 35.5v6h130v-11
q0 -46 -14.5 -77t-47 -49.5t-85 -26t-128.5 -7.5h-31zM530 294v15q0 28 -5.5 46t-22.5 28t-49.5 14t-86.5 4h-11q-54 0 -87 -5t-51 -17t-24 -33t-6 -52h343zM488 547l-129 73l-129 -73l-38 45l167 117l167 -117z" />
    <glyph glyph-name="edieresis" unicode="&#xeb;" horiz-adv-x="715" 
d="M358 -8q-95 0 -154.5 9.5t-93.5 36t-46.5 74t-12.5 122.5v12q0 73 13 120t46 74t89 37.5t143 10.5h29q89 0 145.5 -9t88.5 -32.5t44 -63.5t12 -103v-65h-474v-10q0 -39 6 -63t24.5 -36.5t52.5 -17t89 -4.5h19q49 0 80 3.5t47.5 11.5t22.5 22.5t6 35.5v6h130v-11
q0 -46 -14.5 -77t-47 -49.5t-85 -26t-128.5 -7.5h-31zM530 294v15q0 28 -5.5 46t-22.5 28t-49.5 14t-86.5 4h-11q-54 0 -87 -5t-51 -17t-24 -33t-6 -52h343zM304 561h-118v119h118v-119zM536 561h-118v119h118v-119z" />
    <glyph glyph-name="igrave" unicode="&#xec;" horiz-adv-x="280" 
d="M209 0h-138v480h138v-480zM171 534l-212 104l54 77l190 -138z" />
    <glyph glyph-name="iacute" unicode="&#xed;" horiz-adv-x="280" 
d="M209 0h-138v480h138v-480zM108 534l-32 43l190 138l55 -77z" />
    <glyph glyph-name="icircumflex" unicode="&#xee;" horiz-adv-x="280" 
d="M209 0h-138v480h138v-480zM270 547l-129 73l-129 -73l-38 45l167 117l167 -117z" />
    <glyph glyph-name="idieresis" unicode="&#xef;" horiz-adv-x="280" 
d="M209 0h-138v480h138v-480zM89 561h-117v119h117v-119zM308 561h-117v119h117v-119z" />
    <glyph glyph-name="eth" unicode="&#xf0;" horiz-adv-x="738" 
d="M350 -8q-95 0 -154 9t-91 34t-43 70.5t-11 118.5v13q0 69 11.5 112.5t38 68t70.5 33.5t109 9h37q56 0 95.5 -3t67.5 -11t45 -21.5t28 -33.5h2q-16 134 -170 176l-110 -66l-29 46l59 35q-34 6 -75.5 9t-97.5 4l26 93q152 -3 254 -28l105 63l29 -46l-62 -38
q60 -23 99 -57.5t62 -83t32.5 -112t9.5 -143.5v-17q0 -70 -12.5 -115t-45.5 -71.5t-91.5 -37t-150.5 -10.5h-37zM383 95q57 0 91 5t51.5 19t23 38.5t5.5 64.5v12q0 39 -8 63.5t-28 39t-54.5 19.5t-86.5 5h-29q-54 0 -86.5 -5t-50 -19t-23 -38.5t-5.5 -63.5v-13
q0 -41 5.5 -66t23.5 -38.5t52 -18t90 -4.5h29z" />
    <glyph glyph-name="ntilde" unicode="&#xf1;" horiz-adv-x="761" 
d="M693 0h-138v249q0 41 -5.5 67t-22 40.5t-47.5 20t-82 5.5h-13q-48 0 -81.5 -6.5t-54.5 -22t-30.5 -41.5t-9.5 -64v-248h-138v480h138v-84h2q13 24 30.5 41t42.5 28.5t59.5 17t82.5 5.5h13q76 0 125 -10t77.5 -35t40 -68t11.5 -110v-265zM563 669q-7 -54 -31 -83.5
t-69 -29.5q-18 0 -35 6.5t-37 18.5q-39 23 -62 23q-16 0 -28.5 -10t-19.5 -36l-48 14q5 50 31 80t67 30q32 0 72 -23q42 -26 64 -26q20 0 30 14t14 36z" />
    <glyph glyph-name="ograve" unicode="&#xf2;" horiz-adv-x="744" 
d="M386 93q57 0 91 4.5t52 19.5t23.5 43t5.5 75v13q0 46 -5.5 74t-23.5 43t-52 19.5t-91 4.5h-28q-57 0 -91 -4.5t-52 -19.5t-23.5 -43t-5.5 -74v-13q0 -46 5.5 -74t23.5 -43t52 -20t91 -5h28zM354 -8q-94 0 -153 9.5t-92.5 36.5t-45.5 74.5t-12 122.5v13q0 76 12.5 123
t46 73t92.5 35t152 9h37q94 0 153 -9t92 -35t45 -73t12 -123v-13q0 -75 -12 -122.5t-45 -74.5t-92 -36.5t-153 -9.5h-37zM469 534l-212 104l54 77l190 -138z" />
    <glyph glyph-name="oacute" unicode="&#xf3;" horiz-adv-x="744" 
d="M386 93q57 0 91 4.5t52 19.5t23.5 43t5.5 75v13q0 46 -5.5 74t-23.5 43t-52 19.5t-91 4.5h-28q-57 0 -91 -4.5t-52 -19.5t-23.5 -43t-5.5 -74v-13q0 -46 5.5 -74t23.5 -43t52 -20t91 -5h28zM354 -8q-94 0 -153 9.5t-92.5 36.5t-45.5 74.5t-12 122.5v13q0 76 12.5 123
t46 73t92.5 35t152 9h37q94 0 153 -9t92 -35t45 -73t12 -123v-13q0 -75 -12 -122.5t-45 -74.5t-92 -36.5t-153 -9.5h-37zM283 534l-32 43l190 138l55 -77z" />
    <glyph glyph-name="ocircumflex" unicode="&#xf4;" horiz-adv-x="744" 
d="M386 93q57 0 91 4.5t52 19.5t23.5 43t5.5 75v13q0 46 -5.5 74t-23.5 43t-52 19.5t-91 4.5h-28q-57 0 -91 -4.5t-52 -19.5t-23.5 -43t-5.5 -74v-13q0 -46 5.5 -74t23.5 -43t52 -20t91 -5h28zM354 -8q-94 0 -153 9.5t-92.5 36.5t-45.5 74.5t-12 122.5v13q0 76 12.5 123
t46 73t92.5 35t152 9h37q94 0 153 -9t92 -35t45 -73t12 -123v-13q0 -75 -12 -122.5t-45 -74.5t-92 -36.5t-153 -9.5h-37zM501 547l-129 73l-129 -73l-38 45l167 117l167 -117z" />
    <glyph glyph-name="otilde" unicode="&#xf5;" horiz-adv-x="744" 
d="M386 93q57 0 91 4.5t52 19.5t23.5 43t5.5 75v13q0 46 -5.5 74t-23.5 43t-52 19.5t-91 4.5h-28q-57 0 -91 -4.5t-52 -19.5t-23.5 -43t-5.5 -74v-13q0 -46 5.5 -74t23.5 -43t52 -20t91 -5h28zM354 -8q-94 0 -153 9.5t-92.5 36.5t-45.5 74.5t-12 122.5v13q0 76 12.5 123
t46 73t92.5 35t152 9h37q94 0 153 -9t92 -35t45 -73t12 -123v-13q0 -75 -12 -122.5t-45 -74.5t-92 -36.5t-153 -9.5h-37zM537 669q-7 -54 -31 -83.5t-69 -29.5q-18 0 -35 6.5t-37 18.5q-39 23 -62 23q-16 0 -28.5 -10t-19.5 -36l-48 14q5 50 31 80t67 30q32 0 72 -23
q42 -26 64 -26q20 0 30 14t14 36z" />
    <glyph glyph-name="odieresis" unicode="&#xf6;" horiz-adv-x="744" 
d="M386 93q57 0 91 4.5t52 19.5t23.5 43t5.5 75v13q0 46 -5.5 74t-23.5 43t-52 19.5t-91 4.5h-28q-57 0 -91 -4.5t-52 -19.5t-23.5 -43t-5.5 -74v-13q0 -46 5.5 -74t23.5 -43t52 -20t91 -5h28zM354 -8q-94 0 -153 9.5t-92.5 36.5t-45.5 74.5t-12 122.5v13q0 76 12.5 123
t46 73t92.5 35t152 9h37q94 0 153 -9t92 -35t45 -73t12 -123v-13q0 -75 -12 -122.5t-45 -74.5t-92 -36.5t-153 -9.5h-37zM315 561h-118v119h118v-119zM547 561h-118v119h118v-119z" />
    <glyph glyph-name="divide" unicode="&#xf7;" horiz-adv-x="673" 
d="M407 491q0 -29 -21 -50t-50 -21t-50.5 21t-21.5 50t21.5 50t50.5 21t50 -21t21 -50zM407 107q0 -29 -21 -50t-50 -21q-15 0 -28 5.5t-22.5 15.5t-15.5 23t-6 27q0 29 21.5 50t50.5 21t50 -21t21 -50zM604 249h-535v98h535v-98z" />
    <glyph glyph-name="oslash" unicode="&#xf8;" horiz-adv-x="744" 
d="M668 404q14 -27 19.5 -65t5.5 -91v-13q0 -75 -12 -122.5t-45 -74.5t-92 -36.5t-153 -9.5h-37q-87 0 -143 8t-91 29l-64 -46l-38 53l58 41q-14 27 -19.5 65.5t-5.5 92.5v13q0 76 12.5 123t46 73t92.5 35t152 9h37q85 0 140.5 -7.5t89.5 -27.5l63 47l42 -53zM182 235
q0 -26 1.5 -46t6.5 -35l323 223q-20 8 -51 11.5t-76 3.5h-28q-57 0 -91.5 -5t-53.5 -20.5t-25 -44t-6 -74.5v-13zM386 90q57 0 91.5 5t53.5 21t25 44t6 75v13q0 50 -7 78l-323 -222q20 -8 50.5 -11t75.5 -3h28z" />
    <glyph glyph-name="ugrave" unicode="&#xf9;" horiz-adv-x="755" 
d="M684 0h-138v87h-1q-12 -25 -29 -43t-42.5 -29.5t-61 -17t-83.5 -5.5h-12q-78 0 -127.5 9.5t-77.5 34.5t-38.5 68t-10.5 111v265h138v-248q0 -42 5 -68.5t21.5 -41.5t47.5 -20.5t83 -5.5h13q48 0 81.5 6.5t54.5 22t30 42t9 66.5v247h138v-480zM468 534l-212 104l54 77
l190 -138z" />
    <glyph glyph-name="uacute" unicode="&#xfa;" horiz-adv-x="755" 
d="M684 0h-138v87h-1q-12 -25 -29 -43t-42.5 -29.5t-61 -17t-83.5 -5.5h-12q-78 0 -127.5 9.5t-77.5 34.5t-38.5 68t-10.5 111v265h138v-248q0 -42 5 -68.5t21.5 -41.5t47.5 -20.5t83 -5.5h13q48 0 81.5 6.5t54.5 22t30 42t9 66.5v247h138v-480zM298 534l-32 43l190 138
l55 -77z" />
    <glyph glyph-name="ucircumflex" unicode="&#xfb;" horiz-adv-x="755" 
d="M684 0h-138v87h-1q-12 -25 -29 -43t-42.5 -29.5t-61 -17t-83.5 -5.5h-12q-78 0 -127.5 9.5t-77.5 34.5t-38.5 68t-10.5 111v265h138v-248q0 -42 5 -68.5t21.5 -41.5t47.5 -20.5t83 -5.5h13q48 0 81.5 6.5t54.5 22t30 42t9 66.5v247h138v-480zM503 547l-129 73l-129 -73
l-38 45l167 117l167 -117z" />
    <glyph glyph-name="udieresis" unicode="&#xfc;" horiz-adv-x="755" 
d="M684 0h-138v87h-1q-12 -25 -29 -43t-42.5 -29.5t-61 -17t-83.5 -5.5h-12q-78 0 -127.5 9.5t-77.5 34.5t-38.5 68t-10.5 111v265h138v-248q0 -42 5 -68.5t21.5 -41.5t47.5 -20.5t83 -5.5h13q48 0 81.5 6.5t54.5 22t30 42t9 66.5v247h138v-480zM326 561h-118v119h118v-119z
M558 561h-118v119h118v-119z" />
    <glyph glyph-name="yacute" unicode="&#xfd;" horiz-adv-x="658" 
d="M102 -74q11 -1 22.5 -1h19.5q32 0 53.5 4t37 14t27.5 27.5t26 44.5h-46l-238 465h147l180 -367h6l172 367h145l-211 -422q-37 -74 -65.5 -119.5t-57.5 -70.5t-63.5 -33.5t-84.5 -8.5h-32.5t-37.5 2v98zM279 534l-32 43l190 138l55 -77z" />
    <glyph glyph-name="thorn" unicode="&#xfe;" horiz-adv-x="764" 
d="M209 -170h-138v850h138v-269h2q14 24 32.5 39t44 23.5t59 11.5t77.5 3h13q85 0 138.5 -9t84 -35t42 -73.5t11.5 -124.5v-13q0 -77 -12 -124t-43 -73t-84.5 -35t-136.5 -9h-19q-86 0 -134 17.5t-73 60.5h-2v-240zM408 94q55 0 88 5t50.5 20t23 42.5t5.5 73.5v13
q0 46 -5.5 73.5t-23 42.5t-50.5 19.5t-88 4.5h-29q-56 0 -89.5 -4.5t-52 -19.5t-24.5 -42.5t-6 -73.5v-13q0 -45 6 -73t24.5 -43t52 -20t89.5 -5h29z" />
    <glyph glyph-name="ydieresis" unicode="&#xff;" horiz-adv-x="658" 
d="M102 -74q11 -1 22.5 -1h19.5q32 0 53.5 4t37 14t27.5 27.5t26 44.5h-46l-238 465h147l180 -367h6l172 367h145l-211 -422q-37 -74 -65.5 -119.5t-57.5 -70.5t-63.5 -33.5t-84.5 -8.5h-32.5t-37.5 2v98zM279 561h-118v119h118v-119zM511 561h-118v119h118v-119z" />
    <glyph glyph-name="Amacron" unicode="&#x100;" horiz-adv-x="951" 
d="M947 0h-167l-73 136h-468l-73 -136h-162l380 680h187zM654 242l-174 330h-8l-177 -330h359zM628 767h-308v72h308v-72z" />
    <glyph glyph-name="amacron" unicode="&#x101;" horiz-adv-x="718" 
d="M651 0h-136v56h-3q-13 -17 -27.5 -29t-36.5 -19.5t-54.5 -11.5t-80.5 -4h-21q-75 0 -121.5 7t-73 23.5t-35.5 45t-9 72.5v17q0 42 11 69.5t38 44t72.5 23t115.5 6.5h22q87 0 132.5 -9.5t65.5 -36.5h4v36q0 37 -4.5 59.5t-20 34.5t-45.5 15.5t-81 3.5h-20
q-45 0 -73.5 -2.5t-44 -9.5t-21 -18t-5.5 -29v-8h-131v11q0 42 14 69.5t46.5 43t86.5 22t134 6.5h23q90 0 144.5 -7.5t84.5 -32t40 -70.5t10 -122v-256zM358 77q50 0 81 3t48.5 11t23.5 21t6 34v6q0 21 -6.5 34.5t-24 21t-49.5 10t-83 2.5h-13q-50 0 -80 -2.5t-46 -10
t-21.5 -21t-5.5 -34.5v-6q0 -21 5 -34.5t21.5 -21t47.5 -10.5t82 -3h14zM512 588h-308v72h308v-72z" />
    <glyph glyph-name="Abreve" unicode="&#x102;" horiz-adv-x="951" 
d="M947 0h-167l-73 136h-468l-73 -136h-162l380 680h187zM654 242l-174 330h-8l-177 -330h359zM649 864q-2 -33 -16 -57t-37.5 -40.5t-55 -24.5t-66.5 -8t-66 8t-55 24.5t-38.5 40.5t-15.5 57h69q8 -35 37 -47.5t69 -12.5q42 0 70 12t36 48h69z" />
    <glyph glyph-name="abreve" unicode="&#x103;" horiz-adv-x="718" 
d="M651 0h-136v56h-3q-13 -17 -27.5 -29t-36.5 -19.5t-54.5 -11.5t-80.5 -4h-21q-75 0 -121.5 7t-73 23.5t-35.5 45t-9 72.5v17q0 42 11 69.5t38 44t72.5 23t115.5 6.5h22q87 0 132.5 -9.5t65.5 -36.5h4v36q0 37 -4.5 59.5t-20 34.5t-45.5 15.5t-81 3.5h-20
q-45 0 -73.5 -2.5t-44 -9.5t-21 -18t-5.5 -29v-8h-131v11q0 42 14 69.5t46.5 43t86.5 22t134 6.5h23q90 0 144.5 -7.5t84.5 -32t40 -70.5t10 -122v-256zM358 77q50 0 81 3t48.5 11t23.5 21t6 34v6q0 21 -6.5 34.5t-24 21t-49.5 10t-83 2.5h-13q-50 0 -80 -2.5t-46 -10
t-21.5 -21t-5.5 -34.5v-6q0 -21 5 -34.5t21.5 -21t47.5 -10.5t82 -3h14zM533 679q-2 -33 -16 -57.5t-37.5 -41t-55 -24.5t-66.5 -8t-66 8t-55 24.5t-38.5 41t-15.5 57.5h69q8 -35 37 -48t69 -13q42 0 70 12t36 49h69z" />
    <glyph glyph-name="Aogonek" unicode="&#x104;" horiz-adv-x="951" 
d="M947 0h-25q-67 -26 -91.5 -52t-24.5 -49q0 -19 12 -26.5t39 -7.5q36 0 74 7v-56q-26 -8 -54 -12t-57 -4q-51 0 -77 17.5t-26 55.5q0 40 26.5 68t85.5 59h-49l-73 136h-468l-73 -136h-162l380 680h187zM654 242l-174 330h-8l-177 -330h359z" />
    <glyph glyph-name="aogonek" unicode="&#x105;" horiz-adv-x="718" 
d="M647 -185q-51 -15 -110 -15q-51 0 -76.5 17.5t-25.5 55.5q0 20 6 36.5t19.5 31.5t35 29t51.5 30h-32v56h-3q-13 -17 -27.5 -29t-36.5 -19.5t-54.5 -11.5t-80.5 -4h-21q-75 0 -121.5 7t-73 23.5t-35.5 45t-9 72.5v17q0 42 11 69.5t38 44t72.5 23t115.5 6.5h22
q87 0 132.5 -9.5t65.5 -36.5h4v36q0 38 -4.5 60.5t-20 34t-45.5 15t-81 3.5h-20q-45 0 -73.5 -2.5t-44 -9.5t-21 -18t-5.5 -29v-8h-131v11q0 42 14 69.5t46.5 43t86.5 22t134 6.5h23q90 0 144.5 -7.5t84.5 -32t40 -70.5t10 -122v-256h-17q-64 -26 -87.5 -52.5t-23.5 -48.5
q0 -19 12 -26.5t39 -7.5q17 0 35 1.5t38 5.5v-57zM358 77q50 0 81 3t48.5 11t23.5 21t6 34v6q0 21 -6.5 34.5t-24 21t-49.5 10t-83 2.5h-13q-50 0 -80 -2.5t-46 -10t-21.5 -21t-5.5 -34.5v-6q0 -21 5 -34.5t21.5 -21t47.5 -10.5t82 -3h14z" />
    <glyph glyph-name="Cacute" unicode="&#x106;" horiz-adv-x="963" 
d="M484 -8q-136 0 -219.5 11.5t-129 47.5t-61 102.5t-15.5 176.5v20q0 73 6 126.5t22.5 91t46 61t77 36.5t114.5 18t159 5h31q124 0 199.5 -9t116 -33t53.5 -65.5t13 -107.5v-26h-144v13q0 34 -6.5 56t-31 34.5t-73 17t-132.5 4.5h-21q-96 0 -152 -6t-84.5 -28.5t-36 -67.5
t-7.5 -124v-12q0 -78 7.5 -122.5t36 -67t84.5 -28.5t152 -6h21q85 0 135 4.5t75.5 17t33 36t7.5 61.5v11h144v-32q0 -63 -14.5 -104.5t-56.5 -66.5t-118.5 -35t-200.5 -10h-31zM624 801l-226 -72l-26 46l207 108z" />
    <glyph glyph-name="cacute" unicode="&#x107;" horiz-adv-x="722" 
d="M356 -8q-94 0 -153.5 10.5t-93 37.5t-46 74t-12.5 121v13q0 74 12.5 120.5t46 73t93 36.5t153.5 10h37q83 0 136.5 -8t85 -27.5t43.5 -53t12 -83.5v-20h-132v5q0 27 -6.5 44t-23.5 26.5t-45.5 13t-73.5 3.5h-29q-56 0 -90 -4.5t-52 -19.5t-24 -42.5t-6 -73.5v-13
q0 -47 6 -74.5t24.5 -42.5t52 -19.5t89.5 -4.5h29q49 0 79 4.5t45.5 15t20.5 28t5 43.5v5h132v-22q0 -50 -12 -83.5t-43.5 -54t-85.5 -29.5t-137 -9h-37zM292 534l-32 43l190 138l55 -77z" />
    <glyph glyph-name="Ccircumflex" unicode="&#x108;" horiz-adv-x="963" 
d="M484 -8q-136 0 -219.5 11.5t-129 47.5t-61 102.5t-15.5 176.5v20q0 73 6 126.5t22.5 91t46 61t77 36.5t114.5 18t159 5h31q124 0 199.5 -9t116 -33t53.5 -65.5t13 -107.5v-26h-144v13q0 34 -6.5 56t-31 34.5t-73 17t-132.5 4.5h-21q-96 0 -152 -6t-84.5 -28.5t-36 -67.5
t-7.5 -124v-12q0 -78 7.5 -122.5t36 -67t84.5 -28.5t152 -6h21q85 0 135 4.5t75.5 17t33 36t7.5 61.5v11h144v-32q0 -63 -14.5 -104.5t-56.5 -66.5t-118.5 -35t-200.5 -10h-31zM612 736l-129 67l-129 -67l-38 45l167 112l167 -112z" />
    <glyph glyph-name="ccircumflex" unicode="&#x109;" horiz-adv-x="722" 
d="M356 -8q-94 0 -153.5 10.5t-93 37.5t-46 74t-12.5 121v13q0 74 12.5 120.5t46 73t93 36.5t153.5 10h37q83 0 136.5 -8t85 -27.5t43.5 -53t12 -83.5v-20h-132v5q0 27 -6.5 44t-23.5 26.5t-45.5 13t-73.5 3.5h-29q-56 0 -90 -4.5t-52 -19.5t-24 -42.5t-6 -73.5v-13
q0 -47 6 -74.5t24.5 -42.5t52 -19.5t89.5 -4.5h29q49 0 79 4.5t45.5 15t20.5 28t5 43.5v5h132v-22q0 -50 -12 -83.5t-43.5 -54t-85.5 -29.5t-137 -9h-37zM494 547l-129 73l-129 -73l-38 45l167 117l167 -117z" />
    <glyph glyph-name="Cdotaccent" unicode="&#x10a;" horiz-adv-x="963" 
d="M484 -8q-136 0 -219.5 11.5t-129 47.5t-61 102.5t-15.5 176.5v20q0 73 6 126.5t22.5 91t46 61t77 36.5t114.5 18t159 5h31q124 0 199.5 -9t116 -33t53.5 -65.5t13 -107.5v-26h-144v13q0 34 -6.5 56t-31 34.5t-73 17t-132.5 4.5h-21q-96 0 -152 -6t-84.5 -28.5t-36 -67.5
t-7.5 -124v-12q0 -78 7.5 -122.5t36 -67t84.5 -28.5t152 -6h21q85 0 135 4.5t75.5 17t33 36t7.5 61.5v11h144v-32q0 -63 -14.5 -104.5t-56.5 -66.5t-118.5 -35t-200.5 -10h-31zM551 744h-138v119h138v-119z" />
    <glyph glyph-name="cdotaccent" unicode="&#x10b;" horiz-adv-x="722" 
d="M356 -8q-94 0 -153.5 10.5t-93 37.5t-46 74t-12.5 121v13q0 74 12.5 120.5t46 73t93 36.5t153.5 10h37q83 0 136.5 -8t85 -27.5t43.5 -53t12 -83.5v-20h-132v5q0 27 -6.5 44t-23.5 26.5t-45.5 13t-73.5 3.5h-29q-56 0 -90 -4.5t-52 -19.5t-24 -42.5t-6 -73.5v-13
q0 -47 6 -74.5t24.5 -42.5t52 -19.5t89.5 -4.5h29q49 0 79 4.5t45.5 15t20.5 28t5 43.5v5h132v-22q0 -50 -12 -83.5t-43.5 -54t-85.5 -29.5t-137 -9h-37zM431 561h-138v119h138v-119z" />
    <glyph glyph-name="Ccaron" unicode="&#x10c;" horiz-adv-x="963" 
d="M484 -8q-136 0 -219.5 11.5t-129 47.5t-61 102.5t-15.5 176.5v20q0 73 6 126.5t22.5 91t46 61t77 36.5t114.5 18t159 5h31q124 0 199.5 -9t116 -33t53.5 -65.5t13 -107.5v-26h-144v13q0 34 -6.5 56t-31 34.5t-73 17t-132.5 4.5h-21q-96 0 -152 -6t-84.5 -28.5t-36 -67.5
t-7.5 -124v-12q0 -78 7.5 -122.5t36 -67t84.5 -28.5t152 -6h21q85 0 135 4.5t75.5 17t33 36t7.5 61.5v11h144v-32q0 -63 -14.5 -104.5t-56.5 -66.5t-118.5 -35t-200.5 -10h-31zM485 720l-167 112l38 45l129 -67l129 67l38 -45z" />
    <glyph glyph-name="ccaron" unicode="&#x10d;" horiz-adv-x="722" 
d="M356 -8q-94 0 -153.5 10.5t-93 37.5t-46 74t-12.5 121v13q0 74 12.5 120.5t46 73t93 36.5t153.5 10h37q83 0 136.5 -8t85 -27.5t43.5 -53t12 -83.5v-20h-132v5q0 27 -6.5 44t-23.5 26.5t-45.5 13t-73.5 3.5h-29q-56 0 -90 -4.5t-52 -19.5t-24 -42.5t-6 -73.5v-13
q0 -47 6 -74.5t24.5 -42.5t52 -19.5t89.5 -4.5h29q49 0 79 4.5t45.5 15t20.5 28t5 43.5v5h132v-22q0 -50 -12 -83.5t-43.5 -54t-85.5 -29.5t-137 -9h-37zM364 529l-167 117l38 45l129 -72l129 72l38 -45z" />
    <glyph glyph-name="Dcaron" unicode="&#x10e;" horiz-adv-x="1007" 
d="M948 330q0 -72 -5.5 -124t-21 -89t-44.5 -59.5t-76.5 -35.5t-115 -17.5t-161.5 -4.5h-448v680h448q93 0 161 -4t115 -16.5t76 -35t45 -59.5t21.5 -89.5t5.5 -125.5v-20zM512 118q100 0 157.5 7t86 29.5t36 65.5t7.5 115v12q0 75 -7.5 118t-37 65t-86.5 28t-156 6h-287
v-446h287zM497 720l-167 112l38 45l129 -67l129 67l38 -45z" />
    <glyph glyph-name="dcaron" unicode="&#x10f;" horiz-adv-x="764" 
d="M693 0h-133v70h-2q-14 -23 -32.5 -38t-44.5 -24t-60.5 -12.5t-80.5 -3.5h-13q-85 0 -138.5 9.5t-84 35.5t-42 73.5t-11.5 124.5v13q0 77 12 124t43 73t84.5 34.5t136.5 8.5h20q84 0 133 -17t73 -60h2v269h138v-680zM385 94q56 0 90 5t52 20t24 42.5t6 73.5v13
q0 46 -6 73.5t-24.5 42.5t-52.5 19.5t-89 4.5h-28q-55 0 -88 -4.5t-51 -19.5t-23.5 -42.5t-5.5 -73.5v-13q0 -46 5.5 -73.5t23.5 -42.5t51 -20t88 -5h28zM867 604q0 -69 -26 -100.5t-94 -32.5v58q23 2 30.5 12t7.5 41v7h-36v91h118v-76z" />
    <glyph glyph-name="Dcroat" unicode="&#x110;" horiz-adv-x="1007" 
d="M19 387h57v293h448q93 0 161 -4t115 -16.5t76 -35t45 -59.5t21.5 -89.5t5.5 -125.5v-20q0 -72 -5.5 -124t-21 -89t-44.5 -59.5t-76.5 -35.5t-115 -17.5t-161.5 -4.5h-448v308h-57v79zM512 118q100 0 157.5 7t86 29.5t36 65.5t7.5 115v12q0 75 -7.5 118t-37 65t-86.5 28
t-156 6h-287v-177h221v-79h-221v-190h287z" />
    <glyph glyph-name="dcroat" unicode="&#x111;" horiz-adv-x="764" 
d="M693 0h-133v70h-2q-14 -23 -32.5 -38t-44.5 -24t-60.5 -12.5t-80.5 -3.5h-13q-85 0 -138.5 9.5t-84 35.5t-42 73.5t-11.5 124.5v13q0 77 12 124t43 73t84.5 34.5t136.5 8.5h20q84 0 133 -17t73 -60h2v131h-193v76h193v62h138v-62h50v-76h-50v-542zM385 94q56 0 90 5
t52 20t24 42.5t6 73.5v13q0 46 -6 73.5t-24.5 42.5t-52.5 19.5t-89 4.5h-28q-55 0 -88 -4.5t-51 -19.5t-23.5 -42.5t-5.5 -73.5v-13q0 -46 5.5 -73.5t23.5 -42.5t51 -20t88 -5h28z" />
    <glyph glyph-name="Emacron" unicode="&#x112;" horiz-adv-x="819" 
d="M786 0h-710v680h702v-114h-554v-164h527v-111h-527v-174h562v-117zM579 767h-308v72h308v-72z" />
    <glyph glyph-name="emacron" unicode="&#x113;" horiz-adv-x="715" 
d="M358 -8q-95 0 -154.5 9.5t-93.5 36t-46.5 74t-12.5 122.5v12q0 73 13 120t46 74t89 37.5t143 10.5h29q89 0 145.5 -9t88.5 -32.5t44 -63.5t12 -103v-65h-474v-10q0 -39 6 -63t24.5 -36.5t52.5 -17t89 -4.5h19q49 0 80 3.5t47.5 11.5t22.5 22.5t6 35.5v6h130v-11
q0 -46 -14.5 -77t-47 -49.5t-85 -26t-128.5 -7.5h-31zM530 294v15q0 28 -5.5 46t-22.5 28t-49.5 14t-86.5 4h-11q-54 0 -87 -5t-51 -17t-24 -33t-6 -52h343zM513 588h-308v72h308v-72z" />
    <glyph glyph-name="Ebreve" unicode="&#x114;" horiz-adv-x="819" 
d="M786 0h-710v680h702v-114h-554v-164h527v-111h-527v-174h562v-117zM601 864q-2 -33 -16 -57t-37.5 -40.5t-55 -24.5t-66.5 -8t-66 8t-55 24.5t-38.5 40.5t-15.5 57h69q8 -35 37 -47.5t69 -12.5q42 0 70 12t36 48h69z" />
    <glyph glyph-name="ebreve" unicode="&#x115;" horiz-adv-x="715" 
d="M358 -8q-95 0 -154.5 9.5t-93.5 36t-46.5 74t-12.5 122.5v12q0 73 13 120t46 74t89 37.5t143 10.5h29q89 0 145.5 -9t88.5 -32.5t44 -63.5t12 -103v-65h-474v-10q0 -39 6 -63t24.5 -36.5t52.5 -17t89 -4.5h19q49 0 80 3.5t47.5 11.5t22.5 22.5t6 35.5v6h130v-11
q0 -46 -14.5 -77t-47 -49.5t-85 -26t-128.5 -7.5h-31zM530 294v15q0 28 -5.5 46t-22.5 28t-49.5 14t-86.5 4h-11q-54 0 -87 -5t-51 -17t-24 -33t-6 -52h343zM534 679q-2 -33 -16 -57.5t-37.5 -41t-55 -24.5t-66.5 -8t-66 8t-55 24.5t-38.5 41t-15.5 57.5h69q8 -35 37 -48
t69 -13q42 0 70 12t36 49h69z" />
    <glyph glyph-name="Edotaccent" unicode="&#x116;" horiz-adv-x="819" 
d="M786 0h-710v680h702v-114h-554v-164h527v-111h-527v-174h562v-117zM490 744h-138v119h138v-119z" />
    <glyph glyph-name="edotaccent" unicode="&#x117;" horiz-adv-x="715" 
d="M358 -8q-95 0 -154.5 9.5t-93.5 36t-46.5 74t-12.5 122.5v12q0 73 13 120t46 74t89 37.5t143 10.5h29q89 0 145.5 -9t88.5 -32.5t44 -63.5t12 -103v-65h-474v-10q0 -39 6 -63t24.5 -36.5t52.5 -17t89 -4.5h19q49 0 80 3.5t47.5 11.5t22.5 22.5t6 35.5v6h130v-11
q0 -46 -14.5 -77t-47 -49.5t-85 -26t-128.5 -7.5h-31zM530 294v15q0 28 -5.5 46t-22.5 28t-49.5 14t-86.5 4h-11q-54 0 -87 -5t-51 -17t-24 -33t-6 -52h343zM428 561h-138v119h138v-119z" />
    <glyph glyph-name="Eogonek" unicode="&#x118;" horiz-adv-x="819" 
d="M763 -184q-26 -8 -54.5 -12t-57.5 -4q-103 0 -103 73q0 41 27 70.5t76 56.5h-575v680h702v-114h-554v-164h527v-111h-527v-174h562v-117h-50q-54 -26 -77 -52t-23 -49q0 -19 12 -26.5t40 -7.5q34 0 75 7v-56z" />
    <glyph glyph-name="eogonek" unicode="&#x119;" horiz-adv-x="715" 
d="M544 -184q-26 -8 -53.5 -12t-57.5 -4q-104 0 -104 73q0 38 24.5 65t74.5 55q-10 -1 -21 -1h-25h-24q-92 0 -151 8.5t-94 34t-48.5 73.5t-13.5 126v12q0 78 15 125.5t49.5 73.5t90 34.5t136.5 8.5h29q85 0 141 -8.5t89 -31t46.5 -62t13.5 -100.5v-71h-474v-10q0 -39 6 -63
t24.5 -37t52.5 -17t89 -4h19q49 0 80 3t47.5 11.5t22.5 22.5t6 36v6h130v-11q0 -69 -32.5 -104t-104.5 -47q-61 -30 -85.5 -54.5t-24.5 -47.5q0 -19 13 -26.5t40 -7.5q36 0 74 7v-56zM530 294v11q0 30 -5.5 48.5t-22.5 29t-49.5 14.5t-86.5 4h-11q-54 0 -87 -4.5t-51 -16
t-24 -32.5t-6 -54h343z" />
    <glyph glyph-name="Ecaron" unicode="&#x11a;" horiz-adv-x="819" 
d="M786 0h-710v680h702v-114h-554v-164h527v-111h-527v-174h562v-117zM428 720l-167 112l38 45l129 -67l129 67l38 -45z" />
    <glyph glyph-name="ecaron" unicode="&#x11b;" horiz-adv-x="715" 
d="M358 -8q-95 0 -154.5 9.5t-93.5 36t-46.5 74t-12.5 122.5v12q0 73 13 120t46 74t89 37.5t143 10.5h29q89 0 145.5 -9t88.5 -32.5t44 -63.5t12 -103v-65h-474v-10q0 -39 6 -63t24.5 -36.5t52.5 -17t89 -4.5h19q49 0 80 3.5t47.5 11.5t22.5 22.5t6 35.5v6h130v-11
q0 -46 -14.5 -77t-47 -49.5t-85 -26t-128.5 -7.5h-31zM530 294v15q0 28 -5.5 46t-22.5 28t-49.5 14t-86.5 4h-11q-54 0 -87 -5t-51 -17t-24 -33t-6 -52h343zM359 529l-167 117l38 45l129 -72l129 72l38 -45z" />
    <glyph glyph-name="Gcircumflex" unicode="&#x11c;" horiz-adv-x="964" 
d="M484 -8q-138 0 -222 12t-129 48t-59.5 102.5t-14.5 175.5v20q0 73 6 126.5t22.5 91t46 61t77 37t114.5 18t159 4.5h30q120 0 195 -8.5t117 -31.5t56.5 -64t14.5 -105v-21h-145v8q0 34 -7.5 55t-32.5 32.5t-73 15.5t-130 4h-20q-96 0 -152 -6t-84.5 -29t-36.5 -68.5
t-8 -123.5v-12q0 -52 3 -88.5t13 -61.5t28.5 -40t49.5 -22.5t77 -10t110 -2.5h20q86 0 136 5t75.5 18.5t32.5 37.5t7 62v31h-309v103h454v-130q0 -74 -15.5 -121.5t-58 -74.5t-119 -37.5t-198.5 -10.5h-30zM613 736l-129 67l-129 -67l-38 45l167 112l167 -112z" />
    <glyph glyph-name="gcircumflex" unicode="&#x11d;" horiz-adv-x="754" 
d="M345 -178q-80 0 -134 6t-86 22.5t-45.5 45.5t-13.5 76v12h138v-7q0 -14 5 -24t20 -16.5t43 -10t73 -3.5h29q57 0 91 4t52 17.5t23.5 38t5.5 66.5v63h-3q-11 -21 -27 -35.5t-40 -24.5t-57.5 -14.5t-79.5 -4.5h-13q-81 0 -134.5 8t-84.5 31.5t-43.5 66.5t-12.5 113v12
q0 70 11.5 114t42 68.5t83 33t133.5 8.5h13q43 0 76 -3.5t59 -12.5t45 -24t33 -38h2v70h134v-412q0 -78 -13.5 -126t-48.5 -75t-94.5 -36t-152.5 -9h-29zM378 134q54 0 87 5t51 18t24.5 36.5t6.5 61.5v13q0 37 -6.5 60.5t-25 37t-51.5 18t-86 4.5h-26q-53 0 -85 -4.5
t-50 -17t-24 -36t-6 -62.5v-13q0 -38 6 -62t24 -37t50 -17.5t85 -4.5h26zM476 547l-129 73l-129 -73l-38 45l167 117l167 -117z" />
    <glyph glyph-name="Gbreve" unicode="&#x11e;" horiz-adv-x="964" 
d="M484 -8q-138 0 -222 12t-129 48t-59.5 102.5t-14.5 175.5v20q0 73 6 126.5t22.5 91t46 61t77 37t114.5 18t159 4.5h30q120 0 195 -8.5t117 -31.5t56.5 -64t14.5 -105v-21h-145v8q0 34 -7.5 55t-32.5 32.5t-73 15.5t-130 4h-20q-96 0 -152 -6t-84.5 -29t-36.5 -68.5
t-8 -123.5v-12q0 -52 3 -88.5t13 -61.5t28.5 -40t49.5 -22.5t77 -10t110 -2.5h20q86 0 136 5t75.5 18.5t32.5 37.5t7 62v31h-309v103h454v-130q0 -74 -15.5 -121.5t-58 -74.5t-119 -37.5t-198.5 -10.5h-30zM658 864q-2 -33 -16 -57t-37.5 -40.5t-55 -24.5t-66.5 -8t-66 8
t-55 24.5t-38.5 40.5t-15.5 57h69q8 -35 37 -47.5t69 -12.5q42 0 70 12t36 48h69z" />
    <glyph glyph-name="gbreve" unicode="&#x11f;" horiz-adv-x="754" 
d="M345 -178q-80 0 -134 6t-86 22.5t-45.5 45.5t-13.5 76v12h138v-7q0 -14 5 -24t20 -16.5t43 -10t73 -3.5h29q57 0 91 4t52 17.5t23.5 38t5.5 66.5v63h-3q-11 -21 -27 -35.5t-40 -24.5t-57.5 -14.5t-79.5 -4.5h-13q-81 0 -134.5 8t-84.5 31.5t-43.5 66.5t-12.5 113v12
q0 70 11.5 114t42 68.5t83 33t133.5 8.5h13q43 0 76 -3.5t59 -12.5t45 -24t33 -38h2v70h134v-412q0 -78 -13.5 -126t-48.5 -75t-94.5 -36t-152.5 -9h-29zM378 134q54 0 87 5t51 18t24.5 36.5t6.5 61.5v13q0 37 -6.5 60.5t-25 37t-51.5 18t-86 4.5h-26q-53 0 -85 -4.5
t-50 -17t-24 -36t-6 -62.5v-13q0 -38 6 -62t24 -37t50 -17.5t85 -4.5h26zM518 679q-2 -33 -16 -57.5t-37.5 -41t-55 -24.5t-66.5 -8t-66 8t-55 24.5t-38.5 41t-15.5 57.5h69q8 -35 37 -48t69 -13q42 0 70 12t36 49h69z" />
    <glyph glyph-name="Gdotaccent" unicode="&#x120;" horiz-adv-x="964" 
d="M484 -8q-138 0 -222 12t-129 48t-59.5 102.5t-14.5 175.5v20q0 73 6 126.5t22.5 91t46 61t77 37t114.5 18t159 4.5h30q120 0 195 -8.5t117 -31.5t56.5 -64t14.5 -105v-21h-145v8q0 34 -7.5 55t-32.5 32.5t-73 15.5t-130 4h-20q-96 0 -152 -6t-84.5 -29t-36.5 -68.5
t-8 -123.5v-12q0 -52 3 -88.5t13 -61.5t28.5 -40t49.5 -22.5t77 -10t110 -2.5h20q86 0 136 5t75.5 18.5t32.5 37.5t7 62v31h-309v103h454v-130q0 -74 -15.5 -121.5t-58 -74.5t-119 -37.5t-198.5 -10.5h-30zM555 744h-138v119h138v-119z" />
    <glyph glyph-name="gdotaccent" unicode="&#x121;" horiz-adv-x="754" 
d="M345 -178q-80 0 -134 6t-86 22.5t-45.5 45.5t-13.5 76v12h138v-7q0 -14 5 -24t20 -16.5t43 -10t73 -3.5h29q57 0 91 4t52 17.5t23.5 38t5.5 66.5v63h-3q-11 -21 -27 -35.5t-40 -24.5t-57.5 -14.5t-79.5 -4.5h-13q-81 0 -134.5 8t-84.5 31.5t-43.5 66.5t-12.5 113v12
q0 70 11.5 114t42 68.5t83 33t133.5 8.5h13q43 0 76 -3.5t59 -12.5t45 -24t33 -38h2v70h134v-412q0 -78 -13.5 -126t-48.5 -75t-94.5 -36t-152.5 -9h-29zM378 134q54 0 87 5t51 18t24.5 36.5t6.5 61.5v13q0 37 -6.5 60.5t-25 37t-51.5 18t-86 4.5h-26q-53 0 -85 -4.5
t-50 -17t-24 -36t-6 -62.5v-13q0 -38 6 -62t24 -37t50 -17.5t85 -4.5h26zM417 561h-138v119h138v-119z" />
    <glyph glyph-name="Gcommaaccent" unicode="&#x122;" horiz-adv-x="964" 
d="M484 -8q-138 0 -222 12t-129 48t-59.5 102.5t-14.5 175.5v20q0 73 6 126.5t22.5 91t46 61t77 37t114.5 18t159 4.5h30q120 0 195 -8.5t117 -31.5t56.5 -64t14.5 -105v-21h-145v8q0 34 -7.5 55t-32.5 32.5t-73 15.5t-130 4h-20q-96 0 -152 -6t-84.5 -29t-36.5 -68.5
t-8 -123.5v-12q0 -52 3 -88.5t13 -61.5t28.5 -40t49.5 -22.5t77 -10t110 -2.5h20q86 0 136 5t75.5 18.5t32.5 37.5t7 62v31h-309v103h454v-130q0 -74 -15.5 -121.5t-58 -74.5t-119 -37.5t-198.5 -10.5h-30zM557 -139q0 -27 -5 -46t-20 -31t-41.5 -18t-69.5 -7v49
q19 1 29.5 3.5t15.5 8t6 14t1 20.5v6h-35v91h119v-90z" />
    <glyph glyph-name="gcommaaccent" unicode="&#x123;" horiz-adv-x="754" 
d="M345 -178q-80 0 -134 6t-86 22.5t-45.5 45.5t-13.5 76v12h138v-7q0 -14 5 -24t20 -16.5t43 -10t73 -3.5h29q57 0 91 4t52 17.5t23.5 38t5.5 66.5v63h-3q-11 -21 -27 -35.5t-40 -24.5t-57.5 -14.5t-79.5 -4.5h-13q-81 0 -134.5 8t-84.5 31.5t-43.5 66.5t-12.5 113v12
q0 70 11.5 114t42 68.5t83 33t133.5 8.5h13q43 0 76 -3.5t59 -12.5t45 -24t33 -38h2v70h134v-412q0 -78 -13.5 -126t-48.5 -75t-94.5 -36t-152.5 -9h-29zM378 134q54 0 87 5t51 18t24.5 36.5t6.5 61.5v13q0 37 -6.5 60.5t-25 37t-51.5 18t-86 4.5h-26q-53 0 -85 -4.5
t-50 -17t-24 -36t-6 -62.5v-13q0 -38 6 -62t24 -37t50 -17.5t85 -4.5h26zM397 543h-119v89q0 27 5 46t20 31.5t41.5 18.5t69.5 7v-49q-18 -1 -28.5 -4t-16 -8t-6.5 -13.5t-1 -20.5v-6h35v-91z" />
    <glyph glyph-name="Hcircumflex" unicode="&#x124;" horiz-adv-x="978" 
d="M902 0h-149v288h-528v-288h-149v680h149v-268h528v268h149v-680zM618 736l-129 67l-129 -67l-38 45l167 112l167 -112z" />
    <glyph glyph-name="hcircumflex" unicode="&#x125;" horiz-adv-x="761" 
d="M693 0h-138v249q0 41 -5.5 67t-22 40.5t-47.5 20t-82 5.5h-13q-48 0 -81.5 -6.5t-54.5 -22t-30.5 -41.5t-9.5 -64v-248h-138v680h138v-284h2q13 24 30.5 41t42.5 28.5t59.5 17t82.5 5.5h13q76 0 125 -10t77.5 -35t40 -68t11.5 -110v-265zM273 736l-129 67l-129 -67
l-38 45l167 112l167 -112z" />
    <glyph glyph-name="Hbar" unicode="&#x126;" horiz-adv-x="978" 
d="M902 0h-149v288h-528v-288h-149v505h-48v74h48v101h149v-101h528v101h149v-101h48v-74h-48v-505zM753 412v93h-528v-93h528z" />
    <glyph glyph-name="hbar" unicode="&#x127;" horiz-adv-x="761" 
d="M693 0h-138v249q0 41 -5.5 67t-22 40.5t-47.5 20t-82 5.5h-13q-48 0 -81.5 -6.5t-54.5 -22t-30.5 -41.5t-9.5 -64v-248h-138v542h-49v76h49v62h138v-62h195v-76h-195v-146h2q13 24 30.5 41t42.5 28.5t59.5 17t82.5 5.5h13q76 0 125 -10t77.5 -35t40 -68t11.5 -110v-265z
" />
    <glyph glyph-name="Itilde" unicode="&#x128;" horiz-adv-x="301" 
d="M225 0h-149v680h149v-680zM317 858q-7 -54 -31 -83.5t-69 -29.5q-18 0 -35 6.5t-37 18.5q-39 23 -62 23q-16 0 -28.5 -10t-19.5 -36l-48 15q5 49 31 79t67 30q32 0 72 -23q42 -26 64 -26q20 0 30 14t14 36z" />
    <glyph glyph-name="itilde" unicode="&#x129;" horiz-adv-x="280" 
d="M209 0h-138v480h138v-480zM304 669q-7 -54 -31 -83.5t-69 -29.5q-18 0 -35 6.5t-37 18.5q-39 23 -62 23q-16 0 -28.5 -10t-19.5 -36l-48 14q5 50 31 80t67 30q32 0 72 -23q42 -26 64 -26q20 0 30 14t14 36z" />
    <glyph glyph-name="Imacron" unicode="&#x12a;" horiz-adv-x="301" 
d="M225 0h-149v680h149v-680zM306 767h-308v72h308v-72z" />
    <glyph glyph-name="imacron" unicode="&#x12b;" horiz-adv-x="280" 
d="M209 0h-138v480h138v-480zM295 588h-308v72h308v-72z" />
    <glyph glyph-name="Iogonek" unicode="&#x12e;" horiz-adv-x="301" 
d="M240 -186q-25 -7 -49 -10.5t-54 -3.5q-21 0 -40 3t-32.5 11t-21.5 22t-8 37q0 41 22.5 69t65.5 58h-47v680h149v-680h-32q-42 -33 -56 -58.5t-14 -42.5q0 -19 12 -26.5t39 -7.5q18 0 32.5 1t33.5 5v-57z" />
    <glyph glyph-name="iogonek" unicode="&#x12f;" horiz-adv-x="280" 
d="M229 -186q-25 -7 -49 -10.5t-53 -3.5q-46 0 -74.5 15t-28.5 58q0 39 22 67.5t66 59.5h-41v480h138v-480h-26q-42 -34 -56.5 -59t-14.5 -42q0 -19 12.5 -26.5t39.5 -7.5q17 0 31 1t34 5v-57zM209 561h-138v119h138v-119z" />
    <glyph glyph-name="Idotaccent" unicode="&#x130;" horiz-adv-x="301" 
d="M225 0h-149v680h149v-680zM220 744h-138v119h138v-119z" />
    <glyph glyph-name="dotlessi" unicode="&#x131;" horiz-adv-x="280" 
d="M209 0h-138v480h138v-480z" />
    <glyph glyph-name="Jcircumflex" unicode="&#x134;" horiz-adv-x="765" 
d="M343 -8q-99 0 -159.5 8.5t-94 33t-45 68t-11.5 113.5v47h146v-18q0 -44 5.5 -70.5t23 -40.5t50.5 -18.5t89 -4.5h20q59 0 94 4.5t53 19.5t23.5 44t5.5 79v423h149v-432q0 -83 -12 -133.5t-46.5 -77.5t-97 -36t-162.5 -9h-31zM744 736l-129 67l-129 -67l-38 45l167 112
l167 -112z" />
    <glyph glyph-name="jcircumflex" unicode="&#x135;" horiz-adv-x="280" 
d="M209 -20q0 -84 -34 -119t-118 -35q-32 0 -62 3v102q10 -1 16.5 -1h11.5q28 0 38 12.5t10 53.5v484h138v-500zM268 547l-129 73l-129 -73l-38 45l167 117l167 -117z" />
    <glyph glyph-name="Kcommaaccent" unicode="&#x136;" horiz-adv-x="912" 
d="M912 0h-215l-363 285h-109v-285h-149v680h149v-274h116l337 274h198l-422 -331zM492 -139q0 -27 -5 -46t-20 -31t-41.5 -18t-69.5 -7v49q19 1 29.5 3.5t15.5 8t6 14t1 20.5v6h-35v91h119v-90z" />
    <glyph glyph-name="kcommaaccent" unicode="&#x137;" horiz-adv-x="682" 
d="M680 0h-186l-244 209h-41v-209h-138v680h138v-375h42l212 175h180l-280 -224zM397 -139q0 -27 -5 -46t-20 -31t-41.5 -18t-69.5 -7v49q19 1 29.5 3.5t15.5 8t6 14t1 20.5v6h-35v91h119v-90z" />
    <glyph glyph-name="Lacute" unicode="&#x139;" horiz-adv-x="729" 
d="M717 0h-641v680h149v-562h492v-118zM363 801l-226 -72l-26 46l207 108z" />
    <glyph glyph-name="lacute" unicode="&#x13a;" horiz-adv-x="280" 
d="M209 0h-138v680h138v-680zM333 801l-226 -72l-26 46l207 108z" />
    <glyph glyph-name="Lcommaaccent" unicode="&#x13b;" horiz-adv-x="729" 
d="M717 0h-641v680h149v-562h492v-118zM459 -139q0 -27 -5 -46t-20 -31t-41.5 -18t-69.5 -7v49q19 1 29.5 3.5t15.5 8t6 14t1 20.5v6h-35v91h119v-90z" />
    <glyph glyph-name="lcommaaccent" unicode="&#x13c;" horiz-adv-x="280" 
d="M209 0h-138v680h138v-680zM201 -139q0 -27 -5 -46t-20 -31t-41.5 -18t-69.5 -7v49q19 1 29.5 3.5t15.5 8t6 14t1 20.5v6h-35v91h119v-90z" />
    <glyph glyph-name="Lcaron" unicode="&#x13d;" horiz-adv-x="729" 
d="M717 0h-641v680h149v-562h492v-118zM439 604q0 -69 -26 -100.5t-94 -32.5v58q23 2 30.5 12t7.5 41v7h-36v91h118v-76z" />
    <glyph glyph-name="lcaron" unicode="&#x13e;" horiz-adv-x="280" 
d="M209 0h-138v680h138v-680zM384 604q0 -69 -26 -100.5t-94 -32.5v58q23 2 30.5 12t7.5 41v7h-36v91h118v-76z" />
    <glyph glyph-name="Ldot" unicode="&#x13f;" horiz-adv-x="729" 
d="M717 0h-641v680h149v-562h492v-118zM601 305h-148v155h148v-155z" />
    <glyph glyph-name="ldot" unicode="&#x140;" horiz-adv-x="472" 
d="M209 0h-138v680h138v-680zM450 275h-148v155h148v-155z" />
    <glyph glyph-name="Lslash" unicode="&#x141;" horiz-adv-x="729" 
d="M717 0h-641v276l-67 -24v81l67 25v322h149v-273l222 80v-76l-222 -85v-208h492v-118z" />
    <glyph glyph-name="lslash" unicode="&#x142;" horiz-adv-x="280" 
d="M209 0h-138v262l-56 -37v80l56 37v338h138v-274l55 38v-80l-55 -38v-326z" />
    <glyph glyph-name="Nacute" unicode="&#x143;" horiz-adv-x="1019" 
d="M943 0h-224l-491 553h-5v-553h-147v680h228l487 -553h5v553h147v-680zM647 801l-226 -72l-26 46l207 108z" />
    <glyph glyph-name="nacute" unicode="&#x144;" horiz-adv-x="761" 
d="M693 0h-138v249q0 41 -5.5 67t-22 40.5t-47.5 20t-82 5.5h-13q-48 0 -81.5 -6.5t-54.5 -22t-30.5 -41.5t-9.5 -64v-248h-138v480h138v-84h2q13 24 30.5 41t42.5 28.5t59.5 17t82.5 5.5h13q76 0 125 -10t77.5 -35t40 -68t11.5 -110v-265zM334 534l-32 43l190 138l55 -77z
" />
    <glyph glyph-name="Ncommaaccent" unicode="&#x145;" horiz-adv-x="1019" 
d="M943 0h-224l-491 553h-5v-553h-147v680h228l487 -553h5v553h147v-680zM582 -139q0 -27 -5 -46t-20 -31t-41.5 -18t-69.5 -7v49q19 1 29.5 3.5t15.5 8t6 14t1 20.5v6h-35v91h119v-90z" />
    <glyph glyph-name="ncommaaccent" unicode="&#x146;" horiz-adv-x="761" 
d="M693 0h-138v249q0 41 -5.5 67t-22 40.5t-47.5 20t-82 5.5h-13q-48 0 -81.5 -6.5t-54.5 -22t-30.5 -41.5t-9.5 -64v-248h-138v480h138v-84h2q13 24 30.5 41t42.5 28.5t59.5 17t82.5 5.5h13q76 0 125 -10t77.5 -35t40 -68t11.5 -110v-265zM447 -139q0 -27 -5 -46t-20 -31
t-41.5 -18t-69.5 -7v49q19 1 29.5 3.5t15.5 8t6 14t1 20.5v6h-35v91h119v-90z" />
    <glyph glyph-name="Ncaron" unicode="&#x147;" horiz-adv-x="1019" 
d="M943 0h-224l-491 553h-5v-553h-147v680h228l487 -553h5v553h147v-680zM518 720l-167 112l38 45l129 -67l129 67l38 -45z" />
    <glyph glyph-name="ncaron" unicode="&#x148;" horiz-adv-x="761" 
d="M693 0h-138v249q0 41 -5.5 67t-22 40.5t-47.5 20t-82 5.5h-13q-48 0 -81.5 -6.5t-54.5 -22t-30.5 -41.5t-9.5 -64v-248h-138v480h138v-84h2q13 24 30.5 41t42.5 28.5t59.5 17t82.5 5.5h13q76 0 125 -10t77.5 -35t40 -68t11.5 -110v-265zM405 529l-167 117l38 45l129 -72
l129 72l38 -45z" />
    <glyph glyph-name="Omacron" unicode="&#x14c;" horiz-adv-x="1010" 
d="M490 -8q-94 0 -162.5 4.5t-116 17.5t-77.5 36t-46.5 60.5t-22.5 91.5t-6 128v20q0 74 6 128t22.5 91.5t46.5 61t77.5 36t116 17t162.5 4.5h30q94 0 162.5 -4.5t116 -17t77.5 -36t46.5 -61t22.5 -91.5t6 -128v-20q0 -74 -6 -128t-22.5 -91.5t-46.5 -61t-77.5 -36t-116 -17
t-162.5 -4.5h-30zM515 109q99 0 156 6t86 29t36.5 68t7.5 123v11q0 78 -7.5 123.5t-36.5 68.5t-86 29t-156 6h-20q-99 0 -156 -6t-86 -29t-36.5 -68.5t-7.5 -123.5v-11q0 -78 7.5 -123t36.5 -68t86 -29t156 -6h20zM659 767h-308v72h308v-72z" />
    <glyph glyph-name="omacron" unicode="&#x14d;" horiz-adv-x="744" 
d="M386 93q57 0 91 4.5t52 19.5t23.5 43t5.5 75v13q0 46 -5.5 74t-23.5 43t-52 19.5t-91 4.5h-28q-57 0 -91 -4.5t-52 -19.5t-23.5 -43t-5.5 -74v-13q0 -46 5.5 -74t23.5 -43t52 -20t91 -5h28zM354 -8q-94 0 -153 9.5t-92.5 36.5t-45.5 74.5t-12 122.5v13q0 76 12.5 123
t46 73t92.5 35t152 9h37q94 0 153 -9t92 -35t45 -73t12 -123v-13q0 -75 -12 -122.5t-45 -74.5t-92 -36.5t-153 -9.5h-37zM526 588h-308v72h308v-72z" />
    <glyph glyph-name="Obreve" unicode="&#x14e;" horiz-adv-x="1010" 
d="M490 -8q-94 0 -162.5 4.5t-116 17.5t-77.5 36t-46.5 60.5t-22.5 91.5t-6 128v20q0 74 6 128t22.5 91.5t46.5 61t77.5 36t116 17t162.5 4.5h30q94 0 162.5 -4.5t116 -17t77.5 -36t46.5 -61t22.5 -91.5t6 -128v-20q0 -74 -6 -128t-22.5 -91.5t-46.5 -61t-77.5 -36t-116 -17
t-162.5 -4.5h-30zM515 109q99 0 156 6t86 29t36.5 68t7.5 123v11q0 78 -7.5 123.5t-36.5 68.5t-86 29t-156 6h-20q-99 0 -156 -6t-86 -29t-36.5 -68.5t-7.5 -123.5v-11q0 -78 7.5 -123t36.5 -68t86 -29t156 -6h20zM680 864q-2 -33 -16 -57t-37.5 -40.5t-55 -24.5t-66.5 -8
t-66 8t-55 24.5t-38.5 40.5t-15.5 57h69q8 -35 37 -47.5t69 -12.5q42 0 70 12t36 48h69z" />
    <glyph glyph-name="obreve" unicode="&#x14f;" horiz-adv-x="744" 
d="M386 93q57 0 91 4.5t52 19.5t23.5 43t5.5 75v13q0 46 -5.5 74t-23.5 43t-52 19.5t-91 4.5h-28q-57 0 -91 -4.5t-52 -19.5t-23.5 -43t-5.5 -74v-13q0 -46 5.5 -74t23.5 -43t52 -20t91 -5h28zM354 -8q-94 0 -153 9.5t-92.5 36.5t-45.5 74.5t-12 122.5v13q0 76 12.5 123
t46 73t92.5 35t152 9h37q94 0 153 -9t92 -35t45 -73t12 -123v-13q0 -75 -12 -122.5t-45 -74.5t-92 -36.5t-153 -9.5h-37zM547 679q-2 -33 -16 -57.5t-37.5 -41t-55 -24.5t-66.5 -8t-66 8t-55 24.5t-38.5 41t-15.5 57.5h69q8 -35 37 -48t69 -13q42 0 70 12t36 49h69z" />
    <glyph glyph-name="Ohungarumlaut" unicode="&#x150;" horiz-adv-x="1010" 
d="M490 -8q-94 0 -162.5 4.5t-116 17.5t-77.5 36t-46.5 60.5t-22.5 91.5t-6 128v20q0 74 6 128t22.5 91.5t46.5 61t77.5 36t116 17t162.5 4.5h30q94 0 162.5 -4.5t116 -17t77.5 -36t46.5 -61t22.5 -91.5t6 -128v-20q0 -74 -6 -128t-22.5 -91.5t-46.5 -61t-77.5 -36t-116 -17
t-162.5 -4.5h-30zM515 109q99 0 156 6t86 29t36.5 68t7.5 123v11q0 78 -7.5 123.5t-36.5 68.5t-86 29t-156 6h-20q-99 0 -156 -6t-86 -29t-36.5 -68.5t-7.5 -123.5v-11q0 -78 7.5 -123t36.5 -68t86 -29t156 -6h20zM371 722l-36 42l161 130l55 -59zM564 722l-36 42l168 130
l55 -59z" />
    <glyph glyph-name="ohungarumlaut" unicode="&#x151;" horiz-adv-x="744" 
d="M386 93q57 0 91 4.5t52 19.5t23.5 43t5.5 75v13q0 46 -5.5 74t-23.5 43t-52 19.5t-91 4.5h-28q-57 0 -91 -4.5t-52 -19.5t-23.5 -43t-5.5 -74v-13q0 -46 5.5 -74t23.5 -43t52 -20t91 -5h28zM354 -8q-94 0 -153 9.5t-92.5 36.5t-45.5 74.5t-12 122.5v13q0 76 12.5 123
t46 73t92.5 35t152 9h37q94 0 153 -9t92 -35t45 -73t12 -123v-13q0 -75 -12 -122.5t-45 -74.5t-92 -36.5t-153 -9.5h-37zM445 648l-180 -113l-36 41l161 130zM645 648l-187 -113l-36 41l168 130z" />
    <glyph glyph-name="OE" unicode="&#x152;" horiz-adv-x="1544" 
d="M1511 0h-705v64h-3q-16 -18 -36.5 -31.5t-52 -22.5t-78.5 -13.5t-116 -4.5h-30q-94 0 -162.5 4.5t-116 17t-77.5 35.5t-46.5 60.5t-22.5 91.5t-6 129v20q0 74 6 128.5t22.5 92t46.5 60.5t77.5 35.5t116 17t162.5 4.5h30q75 0 123.5 -4t79.5 -13t49 -22t31 -31h3v62h697
v-114h-555v-164h528v-111h-528v-174h563v-117zM515 109q98 0 155 6t86 28t37 65t8 117v33q0 75 -8.5 117.5t-38 64.5t-86.5 27.5t-153 5.5h-20q-66 0 -112.5 -2t-78.5 -10t-50.5 -23t-28.5 -40t-13 -62.5t-3 -89.5v-11q0 -78 7.5 -123.5t36.5 -68t86 -28.5t156 -6h20z" />
    <glyph glyph-name="oe" unicode="&#x153;" horiz-adv-x="1215" 
d="M1164 152q0 -48 -15.5 -79t-48.5 -49t-83.5 -25t-119.5 -7h-31q-105 0 -162.5 14t-73.5 52h-1q-17 -40 -75.5 -53t-162.5 -13h-37q-94 0 -153 9.5t-92.5 36.5t-45.5 74.5t-12 122.5v13q0 75 12.5 122t46 73.5t92.5 35.5t152 9h37q54 0 94.5 -3t69 -10.5t46.5 -20.5
t27 -33h1q15 37 66 52t150 15h29q80 0 135 -7.5t88.5 -29t48.5 -61.5t15 -104v-71h-469v-10q0 -38 5.5 -61.5t23.5 -37t52.5 -18t93.5 -4.5h19q47 0 76 3.5t45.5 11.5t22 22.5t5.5 35.5v6h129v-11zM386 93q57 0 91 5t52 20t23.5 43t5.5 74v13q0 46 -5.5 74t-23.5 43
t-52 19.5t-91 4.5h-28q-57 0 -91 -4.5t-52 -19.5t-23.5 -43t-5.5 -74v-13q0 -46 5.5 -74t23.5 -43t52 -20t91 -5h28zM1030 294v11q0 30 -5.5 49t-22.5 29.5t-49 14t-84 3.5h-11q-54 0 -86 -4t-49.5 -15t-23.5 -32.5t-7 -55.5h338z" />
    <glyph glyph-name="Racute" unicode="&#x154;" horiz-adv-x="928" 
d="M542 333q52 0 85 5t51.5 17t25 32.5t6.5 52.5v15q0 37 -6 59t-25 34t-53.5 16t-91.5 4h-310v-235h318zM859 0h-148v65q0 51 -6.5 82.5t-28.5 48t-64 22t-113 5.5h-275v-223h-148v680h514q81 0 133.5 -9t83 -32t42 -61.5t11.5 -98.5v-25q0 -80 -29.5 -118.5t-92.5 -51.5
v-4q36 -6 59.5 -15.5t37 -28t19 -48.5t5.5 -76v-112zM592 801l-226 -72l-26 46l207 108z" />
    <glyph glyph-name="racute" unicode="&#x155;" horiz-adv-x="621" 
d="M209 0h-138v480h136v-99h3q9 26 24 46t38 33.5t55.5 20.5t77.5 7h10q57 0 93 -8.5t55.5 -28t26.5 -50.5t7 -76v-21.5t-1 -24.5h-125v26q0 25 -4.5 41t-17.5 25t-36 12t-60 3h-9q-69 0 -102 -29t-33 -107v-250zM243 534l-32 43l190 138l55 -77z" />
    <glyph glyph-name="Rcommaaccent" unicode="&#x156;" horiz-adv-x="928" 
d="M542 333q52 0 85 5t51.5 17t25 32.5t6.5 52.5v15q0 37 -6 59t-25 34t-53.5 16t-91.5 4h-310v-235h318zM859 0h-148v65q0 51 -6.5 82.5t-28.5 48t-64 22t-113 5.5h-275v-223h-148v680h514q81 0 133.5 -9t83 -32t42 -61.5t11.5 -98.5v-25q0 -80 -29.5 -118.5t-92.5 -51.5
v-4q36 -6 59.5 -15.5t37 -28t19 -48.5t5.5 -76v-112zM534 -139q0 -27 -5 -46t-20 -31t-41.5 -18t-69.5 -7v49q19 1 29.5 3.5t15.5 8t6 14t1 20.5v6h-35v91h119v-90z" />
    <glyph glyph-name="rcommaaccent" unicode="&#x157;" horiz-adv-x="621" 
d="M209 0h-138v480h136v-99h3q9 26 24 46t38 33.5t55.5 20.5t77.5 7h10q57 0 93 -8.5t55.5 -28t26.5 -50.5t7 -76v-21.5t-1 -24.5h-125v26q0 25 -4.5 41t-17.5 25t-36 12t-60 3h-9q-69 0 -102 -29t-33 -107v-250zM201 -139q0 -27 -5 -46t-20 -31t-41.5 -18t-69.5 -7v49
q19 1 29.5 3.5t15.5 8t6 14t1 20.5v6h-35v91h119v-90z" />
    <glyph glyph-name="Rcaron" unicode="&#x158;" horiz-adv-x="928" 
d="M542 333q52 0 85 5t51.5 17t25 32.5t6.5 52.5v15q0 37 -6 59t-25 34t-53.5 16t-91.5 4h-310v-235h318zM859 0h-148v65q0 51 -6.5 82.5t-28.5 48t-64 22t-113 5.5h-275v-223h-148v680h514q81 0 133.5 -9t83 -32t42 -61.5t11.5 -98.5v-25q0 -80 -29.5 -118.5t-92.5 -51.5
v-4q36 -6 59.5 -15.5t37 -28t19 -48.5t5.5 -76v-112zM463 720l-167 112l38 45l129 -67l129 67l38 -45z" />
    <glyph glyph-name="rcaron" unicode="&#x159;" horiz-adv-x="621" 
d="M209 0h-138v480h136v-99h3q9 26 24 46t38 33.5t55.5 20.5t77.5 7h10q57 0 93 -8.5t55.5 -28t26.5 -50.5t7 -76v-21.5t-1 -24.5h-125v26q0 25 -4.5 41t-17.5 25t-36 12t-60 3h-9q-69 0 -102 -29t-33 -107v-250zM320 529l-167 117l38 45l129 -72l129 72l38 -45z" />
    <glyph glyph-name="Sacute" unicode="&#x15a;" horiz-adv-x="925" 
d="M864 196q0 -62 -13.5 -102t-54 -62.5t-113.5 -31t-192 -8.5h-32q-133 0 -210.5 7.5t-118 29.5t-52 62t-11.5 105v21h148v-16q0 -33 8 -52t32.5 -29t70.5 -13t123 -3h27q81 0 129 3.5t73 13.5t32.5 27t7.5 44v7q0 28 -6.5 46t-31.5 28t-75 13.5t-137 3.5q-89 0 -152.5 3
t-107 11.5t-69 22t-39.5 35t-18 51t-4 69.5v8q0 61 13.5 99.5t51.5 60.5t106.5 30t178.5 8h34q85 0 146.5 -4t103.5 -12.5t68 -23.5t40 -37.5t18.5 -52.5t4.5 -70v-18h-147v11q0 30 -7 49t-29 29.5t-64 14.5t-112 4h-26q-79 0 -125.5 -3t-70.5 -12.5t-31 -27t-7 -45.5v-7
q0 -25 6 -40.5t31.5 -24.5t77.5 -12t144 -3q84 0 145 -3t103.5 -11t68.5 -22t40 -36t19 -53.5t5 -73.5v-8zM597 801l-226 -72l-26 46l207 108z" />
    <glyph glyph-name="sacute" unicode="&#x15b;" horiz-adv-x="714" 
d="M335 -8q-88 0 -142.5 7.5t-85 24t-41 42t-10.5 61.5v21h136v-4q0 -18 5 -29.5t19.5 -18.5t41.5 -9.5t72 -2.5h42q54 0 86 2.5t48.5 9t21.5 17.5t5 28v6q0 17 -5 27.5t-23.5 16.5t-54.5 8.5t-97 2.5q-95 0 -151.5 6t-87 21.5t-40 42t-9.5 67.5v11q0 39 11.5 65.5t41 42.5
t80.5 23t130 7h33q88 0 143 -6t86 -21.5t41.5 -42t10.5 -66.5v-12h-132v5q0 18 -4.5 29t-19 17.5t-42.5 9t-75 2.5h-26q-47 0 -76 -2t-44.5 -8t-20.5 -16t-5 -26v-7q0 -15 5 -24.5t23 -14.5t52.5 -7t93.5 -2q93 0 150.5 -6t89.5 -21.5t43 -42.5t11 -70v-13q0 -44 -13 -73.5
t-45.5 -46.5t-88.5 -24t-142 -7h-41zM273 534l-32 43l190 138l55 -77z" />
    <glyph glyph-name="Scircumflex" unicode="&#x15c;" horiz-adv-x="925" 
d="M864 196q0 -62 -13.5 -102t-54 -62.5t-113.5 -31t-192 -8.5h-32q-133 0 -210.5 7.5t-118 29.5t-52 62t-11.5 105v21h148v-16q0 -33 8 -52t32.5 -29t70.5 -13t123 -3h27q81 0 129 3.5t73 13.5t32.5 27t7.5 44v7q0 28 -6.5 46t-31.5 28t-75 13.5t-137 3.5q-89 0 -152.5 3
t-107 11.5t-69 22t-39.5 35t-18 51t-4 69.5v8q0 61 13.5 99.5t51.5 60.5t106.5 30t178.5 8h34q85 0 146.5 -4t103.5 -12.5t68 -23.5t40 -37.5t18.5 -52.5t4.5 -70v-18h-147v11q0 30 -7 49t-29 29.5t-64 14.5t-112 4h-26q-79 0 -125.5 -3t-70.5 -12.5t-31 -27t-7 -45.5v-7
q0 -25 6 -40.5t31.5 -24.5t77.5 -12t144 -3q84 0 145 -3t103.5 -11t68.5 -22t40 -36t19 -53.5t5 -73.5v-8zM596 736l-129 67l-129 -67l-38 45l167 112l167 -112z" />
    <glyph glyph-name="scircumflex" unicode="&#x15d;" horiz-adv-x="714" 
d="M335 -8q-88 0 -142.5 7.5t-85 24t-41 42t-10.5 61.5v21h136v-4q0 -18 5 -29.5t19.5 -18.5t41.5 -9.5t72 -2.5h42q54 0 86 2.5t48.5 9t21.5 17.5t5 28v6q0 17 -5 27.5t-23.5 16.5t-54.5 8.5t-97 2.5q-95 0 -151.5 6t-87 21.5t-40 42t-9.5 67.5v11q0 39 11.5 65.5t41 42.5
t80.5 23t130 7h33q88 0 143 -6t86 -21.5t41.5 -42t10.5 -66.5v-12h-132v5q0 18 -4.5 29t-19 17.5t-42.5 9t-75 2.5h-26q-47 0 -76 -2t-44.5 -8t-20.5 -16t-5 -26v-7q0 -15 5 -24.5t23 -14.5t52.5 -7t93.5 -2q93 0 150.5 -6t89.5 -21.5t43 -42.5t11 -70v-13q0 -44 -13 -73.5
t-45.5 -46.5t-88.5 -24t-142 -7h-41zM477 547l-129 73l-129 -73l-38 45l167 117l167 -117z" />
    <glyph glyph-name="Scedilla" unicode="&#x15e;" horiz-adv-x="925" 
d="M864 196q0 -62 -13.5 -102t-54 -62.5t-113.5 -31t-192 -8.5h-32q-133 0 -210.5 7.5t-118 29.5t-52 62t-11.5 105v21h148v-16q0 -33 8 -52t32.5 -29t70.5 -13t123 -3h27q81 0 129 3.5t73 13.5t32.5 27t7.5 44v7q0 28 -6.5 46t-31.5 28t-75 13.5t-137 3.5q-89 0 -152.5 3
t-107 11.5t-69 22t-39.5 35t-18 51t-4 69.5v8q0 61 13.5 99.5t51.5 60.5t106.5 30t178.5 8h34q85 0 146.5 -4t103.5 -12.5t68 -23.5t40 -37.5t18.5 -52.5t4.5 -70v-18h-147v11q0 30 -7 49t-29 29.5t-64 14.5t-112 4h-26q-79 0 -125.5 -3t-70.5 -12.5t-31 -27t-7 -45.5v-7
q0 -25 6 -40.5t31.5 -24.5t77.5 -12t144 -3q84 0 145 -3t103.5 -11t68.5 -22t40 -36t19 -53.5t5 -73.5v-8zM349 -187l-35 41l189 137l62 -73z" />
    <glyph glyph-name="scedilla" unicode="&#x15f;" horiz-adv-x="714" 
d="M335 -8q-88 0 -142.5 7.5t-85 24t-41 42t-10.5 61.5v21h136v-4q0 -18 5 -29.5t19.5 -18.5t41.5 -9.5t72 -2.5h42q54 0 86 2.5t48.5 9t21.5 17.5t5 28v6q0 17 -5 27.5t-23.5 16.5t-54.5 8.5t-97 2.5q-95 0 -151.5 6t-87 21.5t-40 42t-9.5 67.5v11q0 39 11.5 65.5t41 42.5
t80.5 23t130 7h33q88 0 143 -6t86 -21.5t41.5 -42t10.5 -66.5v-12h-132v5q0 18 -4.5 29t-19 17.5t-42.5 9t-75 2.5h-26q-47 0 -76 -2t-44.5 -8t-20.5 -16t-5 -26v-7q0 -15 5 -24.5t23 -14.5t52.5 -7t93.5 -2q93 0 150.5 -6t89.5 -21.5t43 -42.5t11 -70v-13q0 -44 -13 -73.5
t-45.5 -46.5t-88.5 -24t-142 -7h-41zM233 -187l-35 41l189 137l62 -73z" />
    <glyph glyph-name="Scaron" unicode="&#x160;" horiz-adv-x="925" 
d="M864 196q0 -62 -13.5 -102t-54 -62.5t-113.5 -31t-192 -8.5h-32q-133 0 -210.5 7.5t-118 29.5t-52 62t-11.5 105v21h148v-16q0 -33 8 -52t32.5 -29t70.5 -13t123 -3h27q81 0 129 3.5t73 13.5t32.5 27t7.5 44v7q0 28 -6.5 46t-31.5 28t-75 13.5t-137 3.5q-89 0 -152.5 3
t-107 11.5t-69 22t-39.5 35t-18 51t-4 69.5v8q0 61 13.5 99.5t51.5 60.5t106.5 30t178.5 8h34q85 0 146.5 -4t103.5 -12.5t68 -23.5t40 -37.5t18.5 -52.5t4.5 -70v-18h-147v11q0 30 -7 49t-29 29.5t-64 14.5t-112 4h-26q-79 0 -125.5 -3t-70.5 -12.5t-31 -27t-7 -45.5v-7
q0 -25 6 -40.5t31.5 -24.5t77.5 -12t144 -3q84 0 145 -3t103.5 -11t68.5 -22t40 -36t19 -53.5t5 -73.5v-8zM462 720l-167 112l38 45l129 -67l129 67l38 -45z" />
    <glyph glyph-name="scaron" unicode="&#x161;" horiz-adv-x="714" 
d="M335 -8q-88 0 -142.5 7.5t-85 24t-41 42t-10.5 61.5v21h136v-4q0 -18 5 -29.5t19.5 -18.5t41.5 -9.5t72 -2.5h42q54 0 86 2.5t48.5 9t21.5 17.5t5 28v6q0 17 -5 27.5t-23.5 16.5t-54.5 8.5t-97 2.5q-95 0 -151.5 6t-87 21.5t-40 42t-9.5 67.5v11q0 39 11.5 65.5t41 42.5
t80.5 23t130 7h33q88 0 143 -6t86 -21.5t41.5 -42t10.5 -66.5v-12h-132v5q0 18 -4.5 29t-19 17.5t-42.5 9t-75 2.5h-26q-47 0 -76 -2t-44.5 -8t-20.5 -16t-5 -26v-7q0 -15 5 -24.5t23 -14.5t52.5 -7t93.5 -2q93 0 150.5 -6t89.5 -21.5t43 -42.5t11 -70v-13q0 -44 -13 -73.5
t-45.5 -46.5t-88.5 -24t-142 -7h-41zM352 529l-167 117l38 45l129 -72l129 72l38 -45z" />
    <glyph glyph-name="Tcommaaccent" unicode="&#x162;" horiz-adv-x="799" 
d="M474 0h-149v563h-313v117h775v-117h-313v-563zM461 -139q0 -27 -5 -46t-20 -31t-41.5 -18t-69.5 -7v49q19 1 29.5 3.5t15.5 8t6 14t1 20.5v6h-35v91h119v-90z" />
    <glyph glyph-name="tcommaaccent" unicode="&#x163;" horiz-adv-x="594" 
d="M312 -8q-61 0 -100.5 8.5t-62.5 30.5t-32 60.5t-9 98.5v194h-92v96h92v125h137v-125h311v-96h-311v-172q0 -41 3 -64.5t12.5 -35.5t28 -15.5t48.5 -3.5h14q30 0 48.5 4t28.5 14.5t13 28.5t3 47v27h120v-49q0 -50 -11 -83.5t-37.5 -53.5t-70.5 -28t-110 -8h-23zM396 -139
q0 -27 -5 -46t-20 -31t-41.5 -18t-69.5 -7v49q19 1 29.5 3.5t15.5 8t6 14t1 20.5v6h-35v91h119v-90z" />
    <glyph glyph-name="Tcaron" unicode="&#x164;" horiz-adv-x="799" 
d="M474 0h-149v563h-313v117h775v-117h-313v-563zM400 720l-167 112l38 45l129 -67l129 67l38 -45z" />
    <glyph glyph-name="tcaron" unicode="&#x165;" horiz-adv-x="594" 
d="M325 -8q-63 0 -104.5 7.5t-65.5 29.5t-33.5 60.5t-9.5 100.5v194h-92v96h92v125h137v-125h226v-96h-226v-172q0 -41 3.5 -65t13 -36t28 -15t48.5 -3h14q30 0 48.5 4.5t28 15t12.5 28.5t3 46v27h120v-49q0 -50 -11.5 -83.5t-37 -53.5t-68 -28t-103.5 -8h-23zM637 604
q0 -69 -26 -100.5t-94 -32.5v58q23 2 30.5 12t7.5 41v7h-36v91h118v-76z" />
    <glyph glyph-name="Tbar" unicode="&#x166;" horiz-adv-x="799" 
d="M474 0h-149v368h-230v76h230v119h-313v117h775v-117h-313v-119h235v-76h-235v-368z" />
    <glyph glyph-name="tbar" unicode="&#x167;" horiz-adv-x="594" 
d="M564 165q0 -50 -11 -83.5t-37.5 -53.5t-70.5 -28t-110 -8h-23q-61 0 -100.5 8.5t-62.5 30.5t-32 60.5t-9 98.5v78h-73v60h73v56h-92v96h92v125h137v-125h311v-96h-311v-56h158v-60h-158v-56q0 -41 3 -64.5t13 -35.5t28.5 -15.5t48.5 -3.5h14q31 0 49.5 4.5t28 15t12 28.5
t2.5 46v27h120v-49z" />
    <glyph glyph-name="Utilde" unicode="&#x168;" horiz-adv-x="966" 
d="M472 -8q-126 0 -204 11.5t-121.5 40.5t-58.5 79t-15 127v430h149v-398q0 -58 8.5 -92t35 -52t75.5 -23t130 -5h22q81 0 130.5 5.5t76 23.5t35.5 52t9 91v398h149v-430q0 -77 -15 -126.5t-58.5 -79t-122 -41t-205.5 -11.5h-20zM648 858q-7 -54 -31 -83.5t-69 -29.5
q-18 0 -35 6.5t-37 18.5q-39 23 -62 23q-16 0 -28.5 -10t-19.5 -36l-48 15q5 49 31 79t67 30q32 0 72 -23q42 -26 64 -26q20 0 30 14t14 36z" />
    <glyph glyph-name="utilde" unicode="&#x169;" horiz-adv-x="755" 
d="M684 0h-138v87h-1q-12 -25 -29 -43t-42.5 -29.5t-61 -17t-83.5 -5.5h-12q-78 0 -127.5 9.5t-77.5 34.5t-38.5 68t-10.5 111v265h138v-248q0 -42 5 -68.5t21.5 -41.5t47.5 -20.5t83 -5.5h13q48 0 81.5 6.5t54.5 22t30 42t9 66.5v247h138v-480zM542 669q-7 -54 -31 -83.5
t-69 -29.5q-18 0 -35 6.5t-37 18.5q-39 23 -62 23q-16 0 -28.5 -10t-19.5 -36l-48 14q5 50 31 80t67 30q32 0 72 -23q42 -26 64 -26q20 0 30 14t14 36z" />
    <glyph glyph-name="Umacron" unicode="&#x16a;" horiz-adv-x="966" 
d="M472 -8q-126 0 -204 11.5t-121.5 40.5t-58.5 79t-15 127v430h149v-398q0 -58 8.5 -92t35 -52t75.5 -23t130 -5h22q81 0 130.5 5.5t76 23.5t35.5 52t9 91v398h149v-430q0 -77 -15 -126.5t-58.5 -79t-122 -41t-205.5 -11.5h-20zM637 767h-308v72h308v-72z" />
    <glyph glyph-name="umacron" unicode="&#x16b;" horiz-adv-x="755" 
d="M684 0h-138v87h-1q-12 -25 -29 -43t-42.5 -29.5t-61 -17t-83.5 -5.5h-12q-78 0 -127.5 9.5t-77.5 34.5t-38.5 68t-10.5 111v265h138v-248q0 -42 5 -68.5t21.5 -41.5t47.5 -20.5t83 -5.5h13q48 0 81.5 6.5t54.5 22t30 42t9 66.5v247h138v-480zM528 588h-308v72h308v-72z
" />
    <glyph glyph-name="Ubreve" unicode="&#x16c;" horiz-adv-x="966" 
d="M472 -8q-126 0 -204 11.5t-121.5 40.5t-58.5 79t-15 127v430h149v-398q0 -58 8.5 -92t35 -52t75.5 -23t130 -5h22q81 0 130.5 5.5t76 23.5t35.5 52t9 91v398h149v-430q0 -77 -15 -126.5t-58.5 -79t-122 -41t-205.5 -11.5h-20zM658 864q-2 -33 -16 -57t-37.5 -40.5
t-55 -24.5t-66.5 -8t-66 8t-55 24.5t-38.5 40.5t-15.5 57h69q8 -35 37 -47.5t69 -12.5q42 0 70 12t36 48h69z" />
    <glyph glyph-name="ubreve" unicode="&#x16d;" horiz-adv-x="755" 
d="M684 0h-138v87h-1q-12 -25 -29 -43t-42.5 -29.5t-61 -17t-83.5 -5.5h-12q-78 0 -127.5 9.5t-77.5 34.5t-38.5 68t-10.5 111v265h138v-248q0 -42 5 -68.5t21.5 -41.5t47.5 -20.5t83 -5.5h13q48 0 81.5 6.5t54.5 22t30 42t9 66.5v247h138v-480zM549 679q-2 -33 -16 -57.5
t-37.5 -41t-55 -24.5t-66.5 -8t-66 8t-55 24.5t-38.5 41t-15.5 57.5h69q8 -35 37 -48t69 -13q42 0 70 12t36 49h69z" />
    <glyph glyph-name="Uring" unicode="&#x16e;" horiz-adv-x="966" 
d="M472 -8q-126 0 -204 11.5t-121.5 40.5t-58.5 79t-15 127v430h149v-398q0 -58 8.5 -92t35 -52t75.5 -23t130 -5h22q81 0 130.5 5.5t76 23.5t35.5 52t9 91v398h149v-430q0 -77 -15 -126.5t-58.5 -79t-122 -41t-205.5 -11.5h-20zM480 721q-38 0 -62.5 4.5t-39 14t-20.5 25
t-6 37.5v6q0 22 6 37.5t20.5 25.5t39 14t62.5 4h6q37 0 62 -4t39.5 -14t20.5 -25.5t6 -37.5v-6q0 -22 -6 -37.5t-20.5 -25t-39.5 -14t-62 -4.5h-6zM486 763q47 0 62.5 8.5t15.5 30.5v6q0 22 -15.5 30t-62.5 8h-6q-47 0 -62.5 -8t-15.5 -30v-6q0 -22 15.5 -30.5t62.5 -8.5h6z
" />
    <glyph glyph-name="uring" unicode="&#x16f;" horiz-adv-x="755" 
d="M684 0h-138v87h-1q-12 -25 -29 -43t-42.5 -29.5t-61 -17t-83.5 -5.5h-12q-78 0 -127.5 9.5t-77.5 34.5t-38.5 68t-10.5 111v265h138v-248q0 -42 5 -68.5t21.5 -41.5t47.5 -20.5t83 -5.5h13q48 0 81.5 6.5t54.5 22t30 42t9 66.5v247h138v-480zM371 544q-38 0 -62.5 4.5
t-39 14t-20.5 25t-6 37.5v6q0 22 6 37.5t20.5 25t39 13.5t62.5 4h6q37 0 62 -4t39.5 -13.5t20.5 -25t6 -37.5v-6q0 -22 -6 -37.5t-20.5 -25t-39.5 -14t-62 -4.5h-6zM377 586q47 0 62.5 8.5t15.5 30.5v6q0 22 -15.5 30t-62.5 8h-6q-47 0 -62.5 -8t-15.5 -30v-6
q0 -22 15.5 -30.5t62.5 -8.5h6z" />
    <glyph glyph-name="Uhungarumlaut" unicode="&#x170;" horiz-adv-x="966" 
d="M472 -8q-126 0 -204 11.5t-121.5 40.5t-58.5 79t-15 127v430h149v-398q0 -58 8.5 -92t35 -52t75.5 -23t130 -5h22q81 0 130.5 5.5t76 23.5t35.5 52t9 91v398h149v-430q0 -77 -15 -126.5t-58.5 -79t-122 -41t-205.5 -11.5h-20zM361 722l-36 42l161 130l55 -59zM554 722
l-36 42l168 130l55 -59z" />
    <glyph glyph-name="uhungarumlaut" unicode="&#x171;" horiz-adv-x="755" 
d="M684 0h-138v87h-1q-12 -25 -29 -43t-42.5 -29.5t-61 -17t-83.5 -5.5h-12q-78 0 -127.5 9.5t-77.5 34.5t-38.5 68t-10.5 111v265h138v-248q0 -42 5 -68.5t21.5 -41.5t47.5 -20.5t83 -5.5h13q48 0 81.5 6.5t54.5 22t30 42t9 66.5v247h138v-480zM442 648l-180 -113l-36 41
l161 130zM642 648l-187 -113l-36 41l168 130z" />
    <glyph glyph-name="Uogonek" unicode="&#x172;" horiz-adv-x="966" 
d="M603 -184q-26 -8 -54 -12t-57 -4q-103 0 -103 73q0 40 23 66.5t68 52.5q-127 0 -206.5 11t-124 39t-60.5 77t-16 125v436h149v-399q0 -58 8.5 -92t35 -51.5t75.5 -22.5t130 -5h22q81 0 130.5 5t76 23t35.5 52t9 91v399h149v-435q0 -72 -14.5 -119.5t-52.5 -76.5
t-104 -41.5t-170 -14.5q-45 -32 -59.5 -53.5t-14.5 -40.5t11.5 -26.5t39.5 -7.5q33 0 74 7v-56z" />
    <glyph glyph-name="uogonek" unicode="&#x173;" horiz-adv-x="755" 
d="M675 -185q-50 -15 -110 -15q-102 0 -102 73q0 20 6 36.5t19.5 31.5t35 29t51.5 30h-29v87h-1q-12 -25 -29 -43t-42.5 -29.5t-61 -17t-83.5 -5.5h-12q-78 0 -127.5 9.5t-77.5 34.5t-38.5 68t-10.5 111v265h138v-248q0 -42 5 -68.5t21.5 -41.5t47.5 -20.5t83 -5.5h13
q48 0 81.5 6.5t54.5 22t30 42t9 66.5v247h138v-480h-22q-63 -26 -87 -52.5t-24 -48.5q0 -19 12 -26.5t39 -7.5q17 0 35 1.5t38 5.5v-57z" />
    <glyph glyph-name="Wcircumflex" unicode="&#x174;" horiz-adv-x="1282" 
d="M1025 0h-181l-201 512h-2l-202 -512h-183l-248 680h159l192 -547h2l211 547h149l212 -548h2l186 548h153zM775 736l-129 67l-129 -67l-38 45l167 112l167 -112z" />
    <glyph glyph-name="wcircumflex" unicode="&#x175;" horiz-adv-x="1018" 
d="M815 0h-180l-125 319h-4l-124 -319h-180l-194 480h146l139 -381h4l148 381h128l149 -381h3l139 381h146zM637 547l-129 73l-129 -73l-38 45l167 117l167 -117z" />
    <glyph glyph-name="Ycircumflex" unicode="&#x176;" horiz-adv-x="917" 
d="M532 0h-149v247l-379 433h180l275 -315h4l270 315h180l-381 -433v-247zM590 736l-129 67l-129 -67l-38 45l167 112l167 -112z" />
    <glyph glyph-name="ycircumflex" unicode="&#x177;" horiz-adv-x="658" 
d="M102 -74q11 -1 22.5 -1h19.5q32 0 53.5 4t37 14t27.5 27.5t26 44.5h-46l-238 465h147l180 -367h6l172 367h145l-211 -422q-37 -74 -65.5 -119.5t-57.5 -70.5t-63.5 -33.5t-84.5 -8.5h-32.5t-37.5 2v98zM463 547l-129 73l-129 -73l-38 45l167 117l167 -117z" />
    <glyph glyph-name="Ydieresis" unicode="&#x178;" horiz-adv-x="917" 
d="M532 0h-149v247l-379 433h180l275 -315h4l270 315h180l-381 -433v-247zM405 744h-118v119h118v-119zM637 744h-118v119h118v-119z" />
    <glyph glyph-name="Zacute" unicode="&#x179;" horiz-adv-x="882" 
d="M836 0h-790v114l584 456v1h-566v109h763v-117l-584 -451v-1h593v-111zM586 801l-226 -72l-26 46l207 108z" />
    <glyph glyph-name="zacute" unicode="&#x17a;" horiz-adv-x="603" 
d="M572 0h-538v92l357 292v2h-342v94h515v-100l-349 -281v-2h357v-97zM230 534l-32 43l190 138l55 -77z" />
    <glyph glyph-name="Zdotaccent" unicode="&#x17b;" horiz-adv-x="882" 
d="M836 0h-790v114l584 456v1h-566v109h763v-117l-584 -451v-1h593v-111zM507 744h-138v119h138v-119z" />
    <glyph glyph-name="zdotaccent" unicode="&#x17c;" horiz-adv-x="603" 
d="M572 0h-538v92l357 292v2h-342v94h515v-100l-349 -281v-2h357v-97zM370 561h-138v119h138v-119z" />
    <glyph glyph-name="Zcaron" unicode="&#x17d;" horiz-adv-x="882" 
d="M836 0h-790v114l584 456v1h-566v109h763v-117l-584 -451v-1h593v-111zM440 720l-167 112l38 45l129 -67l129 67l38 -45z" />
    <glyph glyph-name="zcaron" unicode="&#x17e;" horiz-adv-x="603" 
d="M572 0h-538v92l357 292v2h-342v94h515v-100l-349 -281v-2h357v-97zM303 529l-167 117l38 45l129 -72l129 72l38 -45z" />
    <glyph glyph-name="florin" unicode="&#x192;" horiz-adv-x="852" 
d="M443 52q-11 -48 -29 -85t-48.5 -62t-76.5 -38t-113 -13q-34 0 -68 2t-57 7v109q18 -4 45.5 -7.5t53.5 -3.5q36 0 62.5 5t45.5 18t31 35.5t20 58.5l45 200h-196v110h221l23 103q14 61 37.5 99.5t56.5 60t75 29t93 7.5q39 0 70.5 -3t66.5 -8v-110q-23 5 -55.5 9.5
t-61.5 4.5q-34 0 -59 -4.5t-43 -17.5t-30 -36.5t-20 -60.5l-16 -73h231v-110h-255z" />
    <glyph glyph-name="Scommaaccent" unicode="&#x218;" horiz-adv-x="925" 
d="M864 196q0 -62 -13.5 -102t-54 -62.5t-113.5 -31t-192 -8.5h-32q-133 0 -210.5 7.5t-118 29.5t-52 62t-11.5 105v21h148v-16q0 -33 8 -52t32.5 -29t70.5 -13t123 -3h27q81 0 129 3.5t73 13.5t32.5 27t7.5 44v7q0 28 -6.5 46t-31.5 28t-75 13.5t-137 3.5q-89 0 -152.5 3
t-107 11.5t-69 22t-39.5 35t-18 51t-4 69.5v8q0 61 13.5 99.5t51.5 60.5t106.5 30t178.5 8h34q85 0 146.5 -4t103.5 -12.5t68 -23.5t40 -37.5t18.5 -52.5t4.5 -70v-18h-147v11q0 30 -7 49t-29 29.5t-64 14.5t-112 4h-26q-79 0 -125.5 -3t-70.5 -12.5t-31 -27t-7 -45.5v-7
q0 -25 6 -40.5t31.5 -24.5t77.5 -12t144 -3q84 0 145 -3t103.5 -11t68.5 -22t40 -36t19 -53.5t5 -73.5v-8zM540 -139q0 -27 -5 -46t-20 -31t-41.5 -18t-69.5 -7v49q19 1 29.5 3.5t15.5 8t6 14t1 20.5v6h-35v91h119v-90z" />
    <glyph glyph-name="scommaaccent" unicode="&#x219;" horiz-adv-x="714" 
d="M335 -8q-88 0 -142.5 7.5t-85 24t-41 42t-10.5 61.5v21h136v-4q0 -18 5 -29.5t19.5 -18.5t41.5 -9.5t72 -2.5h42q54 0 86 2.5t48.5 9t21.5 17.5t5 28v6q0 17 -5 27.5t-23.5 16.5t-54.5 8.5t-97 2.5q-95 0 -151.5 6t-87 21.5t-40 42t-9.5 67.5v11q0 39 11.5 65.5t41 42.5
t80.5 23t130 7h33q88 0 143 -6t86 -21.5t41.5 -42t10.5 -66.5v-12h-132v5q0 18 -4.5 29t-19 17.5t-42.5 9t-75 2.5h-26q-47 0 -76 -2t-44.5 -8t-20.5 -16t-5 -26v-7q0 -15 5 -24.5t23 -14.5t52.5 -7t93.5 -2q93 0 150.5 -6t89.5 -21.5t43 -42.5t11 -70v-13q0 -44 -13 -73.5
t-45.5 -46.5t-88.5 -24t-142 -7h-41zM432 -139q0 -27 -5 -46t-20 -31t-41.5 -18t-69.5 -7v49q19 1 29.5 3.5t15.5 8t6 14t1 20.5v6h-35v91h119v-90z" />
    <glyph glyph-name="uni021A" unicode="&#x21a;" horiz-adv-x="799" 
d="M474 0h-149v563h-313v117h775v-117h-313v-563zM461 -139q0 -27 -5 -46t-20 -31t-41.5 -18t-69.5 -7v49q19 1 29.5 3.5t15.5 8t6 14t1 20.5v6h-35v91h119v-90z" />
    <glyph glyph-name="uni021B" unicode="&#x21b;" horiz-adv-x="594" 
d="M312 -8q-61 0 -100.5 8.5t-62.5 30.5t-32 60.5t-9 98.5v194h-92v96h92v125h137v-125h311v-96h-311v-172q0 -41 3 -64.5t12.5 -35.5t28 -15.5t48.5 -3.5h14q30 0 48.5 4t28.5 14.5t13 28.5t3 47v27h120v-49q0 -50 -11 -83.5t-37.5 -53.5t-70.5 -28t-110 -8h-23zM396 -139
q0 -27 -5 -46t-20 -31t-41.5 -18t-69.5 -7v49q19 1 29.5 3.5t15.5 8t6 14t1 20.5v6h-35v91h119v-90z" />
    <glyph glyph-name="dotlessj" unicode="&#x237;" horiz-adv-x="280" 
d="M209 -20q0 -84 -34 -119t-118 -35q-32 0 -62 3v102q10 -1 16.5 -1h11.5q28 0 38 12.5t10 53.5v484h138v-500z" />
    <glyph glyph-name="circumflex" unicode="&#x2c6;" 
d="M379 547l-129 73l-129 -73l-38 45l167 117l167 -117z" />
    <glyph glyph-name="caron" unicode="&#x2c7;" 
d="M250 529l-167 117l38 45l129 -72l129 72l38 -45z" />
    <glyph glyph-name="uni02C9" unicode="&#x2c9;" 
d="M404 767h-308v72h308v-72z" />
    <glyph glyph-name="breve" unicode="&#x2d8;" 
d="M425 679q-2 -33 -16 -57.5t-37.5 -41t-55 -24.5t-66.5 -8t-66 8t-55 24.5t-38.5 41t-15.5 57.5h69q8 -35 37 -48t69 -13q42 0 70 12t36 49h69z" />
    <glyph glyph-name="dotaccent" unicode="&#x2d9;" 
d="M319 561h-138v119h138v-119z" />
    <glyph glyph-name="ring" unicode="&#x2da;" 
d="M247 544q-38 0 -62.5 4.5t-39 14t-20.5 25t-6 37.5v6q0 22 6 37.5t20.5 25t39 13.5t62.5 4h6q37 0 62 -4t39.5 -13.5t20.5 -25t6 -37.5v-6q0 -22 -6 -37.5t-20.5 -25t-39.5 -14t-62 -4.5h-6zM253 586q47 0 62.5 8.5t15.5 30.5v6q0 22 -15.5 30t-62.5 8h-6q-47 0 -62.5 -8
t-15.5 -30v-6q0 -22 15.5 -30.5t62.5 -8.5h6z" />
    <glyph glyph-name="ogonek" unicode="&#x2db;" horiz-adv-x="449" 
d="M326 -184q-26 -8 -54.5 -12t-57.5 -4q-50 0 -76.5 17t-26.5 56q0 44 26.5 71t77.5 56h68q-26 -19 -42 -33t-25.5 -26t-13 -22t-3.5 -20q0 -19 12 -26.5t40 -7.5q34 0 75 7v-56z" />
    <glyph glyph-name="tilde" unicode="&#x2dc;" 
d="M415 669q-7 -54 -31 -83.5t-69 -29.5q-18 0 -35 6.5t-37 18.5q-39 23 -62 23q-16 0 -28.5 -10t-19.5 -36l-48 14q5 50 31 80t67 30q32 0 72 -23q42 -26 64 -26q20 0 30 14t14 36z" />
    <glyph glyph-name="hungarumlaut" unicode="&#x2dd;" 
d="M281 648l-180 -113l-36 41l161 130zM481 648l-187 -113l-36 41l168 130z" />
    <glyph glyph-name="uni0394" unicode="&#x394;" horiz-adv-x="898" 
d="M885 0h-872l373 680h132zM678 116l-225 432h-4l-229 -432h458z" />
    <glyph glyph-name="uni03A9" unicode="&#x3a9;" horiz-adv-x="827" 
d="M764 0h-290v219q77 14 118.5 62.5t41.5 117.5q0 40 -14.5 73.5t-43 57.5t-69.5 37.5t-94 13.5t-93.5 -13.5t-69 -37.5t-43 -57.5t-14.5 -73.5q0 -69 41.5 -117.5t118.5 -62.5v-219h-290v110h189v42q-92 28 -147 91t-55 160q0 63 25 115.5t72.5 90t114.5 58.5t151 21
t151.5 -21t115 -58.5t72.5 -90t25 -115.5q0 -97 -55 -160t-147 -91v-42h189v-110z" />
    <glyph glyph-name="uni03BC" unicode="&#x3bc;" horiz-adv-x="768" 
d="M697 0h-138v87h-1q-12 -24 -28.5 -42t-40.5 -30t-56.5 -17.5t-76.5 -5.5h-11q-48 0 -83.5 12t-51.5 36h-1v-227h-138v667h138v-255q0 -39 8 -64t27.5 -39.5t51 -20t78.5 -5.5h13q48 0 80.5 7t53 22.5t29.5 42t9 65.5v247h138v-480z" />
    <glyph glyph-name="pi" unicode="&#x3c0;" horiz-adv-x="793" 
d="M749 11q-20 -9 -42 -13.5t-52 -4.5q-68 0 -95 36.5t-27 111.5v230h-280v-371h-138v371h-70v109h704v-109h-78v-216q0 -36 9.5 -49t34.5 -13q11 0 19 2t15 4v-88z" />
    <glyph glyph-name="endash" unicode="&#x2013;" horiz-adv-x="834" 
d="M834 215h-834v76h834v-76z" />
    <glyph glyph-name="emdash" unicode="&#x2014;" horiz-adv-x="1200" 
d="M1167 215h-1134v76h1134v-76z" />
    <glyph glyph-name="quoteleft" unicode="&#x2018;" horiz-adv-x="282" 
d="M206 376h-133v143q0 40 5.5 69.5t21.5 49.5t45.5 30t76.5 12v-75q-20 -1 -31 -6.5t-16.5 -14.5t-7 -22t-1.5 -29v-9h40v-148z" />
    <glyph glyph-name="quoteright" unicode="&#x2019;" horiz-adv-x="282" 
d="M209 537q0 -40 -5.5 -69.5t-21.5 -49.5t-45.5 -30.5t-76.5 -11.5v75q20 1 31 6.5t16.5 14.5t7 22t1.5 29v9h-40v148h133v-143z" />
    <glyph glyph-name="quotesinglbase" unicode="&#x201a;" horiz-adv-x="282" 
d="M209 5q0 -40 -5.5 -69.5t-21.5 -49.5t-45.5 -30.5t-76.5 -11.5v75q20 1 31 6.5t16.5 14.5t7 22t1.5 29v9h-40v148h133v-143z" />
    <glyph glyph-name="quotedblleft" unicode="&#x201c;" horiz-adv-x="495" 
d="M206 376h-133v143q0 40 5.5 69.5t21.5 49.5t45.5 30t76.5 12v-75q-20 -1 -31 -6.5t-16.5 -14.5t-7 -22t-1.5 -29v-9h40v-148zM419 376h-133v143q0 40 5.5 69.5t21.5 49.5t45.5 30t76.5 12v-75q-20 -1 -31 -6.5t-16.5 -14.5t-7 -22t-1.5 -29v-9h40v-148z" />
    <glyph glyph-name="quotedblright" unicode="&#x201d;" horiz-adv-x="495" 
d="M209 537q0 -40 -5.5 -69.5t-21.5 -49.5t-45.5 -30.5t-76.5 -11.5v75q20 1 31 6.5t16.5 14.5t7 22t1.5 29v9h-40v148h133v-143zM422 537q0 -40 -5.5 -69.5t-21.5 -49.5t-45.5 -30.5t-76.5 -11.5v75q20 1 31 6.5t16.5 14.5t7 22t1.5 29v9h-40v148h133v-143z" />
    <glyph glyph-name="quotedblbase" unicode="&#x201e;" horiz-adv-x="495" 
d="M209 5q0 -40 -5.5 -69.5t-21.5 -49.5t-45.5 -30.5t-76.5 -11.5v75q20 1 31 6.5t16.5 14.5t7 22t1.5 29v9h-40v148h133v-143zM422 5q0 -40 -5.5 -69.5t-21.5 -49.5t-45.5 -30.5t-76.5 -11.5v75q20 1 31 6.5t16.5 14.5t7 22t1.5 29v9h-40v148h133v-143z" />
    <glyph glyph-name="dagger" unicode="&#x2020;" horiz-adv-x="738" 
d="M425 -90h-113v465h-226v102h226v203h113v-203h227v-102h-227v-465z" />
    <glyph glyph-name="daggerdbl" unicode="&#x2021;" horiz-adv-x="704" 
d="M409 -90h-114v178h-209v94h209v232h-209v94h209v172h114v-172h209v-94h-209v-232h209v-94h-209v-178z" />
    <glyph glyph-name="bullet" unicode="&#x2022;" horiz-adv-x="569" 
d="M435 339q0 -31 -12 -58.5t-32 -47.5t-48 -32t-59 -12t-58.5 12t-47.5 32t-32 47.5t-12 58.5t12 58.5t32 47.5t47.5 32t58.5 12t59 -12t48 -32t32 -47.5t12 -58.5z" />
    <glyph glyph-name="ellipsis" unicode="&#x2026;" horiz-adv-x="864" 
d="M218 0h-148v155h148v-155zM506 0h-148v155h148v-155zM794 0h-148v155h148v-155z" />
    <glyph glyph-name="perthousand" unicode="&#x2030;" horiz-adv-x="1378" 
d="M232 361q-50 0 -81.5 6t-49.5 23t-25 47.5t-7 80.5v8q0 49 7 79.5t25 47t49.5 22.5t81.5 6h21q51 0 83 -6t50.5 -22.5t25.5 -47t7 -79.5v-8q0 -50 -7 -80.5t-25.5 -47.5t-50.5 -23t-83 -6h-21zM251 427q25 0 40 3t23 12.5t10.5 27.5t2.5 48v8q0 30 -2.5 47.5t-10.5 26.5
t-23 12t-40 3h-14q-25 0 -40 -3t-23 -12t-10.5 -26.5t-2.5 -47.5v-8q0 -30 2.5 -48t10.5 -27.5t23 -12.5t40 -3h14zM353 0h-84l343 680h84zM715 -1q-50 0 -81.5 6t-49.5 23t-25 47.5t-7 80.5v8q0 49 7 79.5t25 47t49.5 22.5t81.5 6h21q51 0 83 -6t50.5 -22.5t25.5 -47
t7 -79.5v-8q0 -50 -7 -80.5t-25.5 -47.5t-50.5 -23t-83 -6h-21zM734 65q25 0 40 3t23 12.5t10.5 27.5t2.5 48v8q0 30 -2.5 47.5t-10.5 26.5t-23 12t-40 3h-14q-25 0 -40 -3t-23 -12t-10.5 -26.5t-2.5 -47.5v-8q0 -30 2.5 -48t10.5 -27.5t23 -12.5t40 -3h14zM1121 -1
q-50 0 -81.5 6t-49.5 23t-25 47.5t-7 80.5v8q0 49 7 79.5t25 47t49.5 22.5t81.5 6h21q51 0 83 -6t50.5 -22.5t25.5 -47t7 -79.5v-8q0 -50 -7 -80.5t-25.5 -47.5t-50.5 -23t-83 -6h-21zM1140 65q25 0 40 3t23 12.5t10.5 27.5t2.5 48v8q0 30 -2.5 47.5t-10.5 26.5t-23 12
t-40 3h-14q-25 0 -40 -3t-23 -12t-10.5 -26.5t-2.5 -47.5v-8q0 -30 2.5 -48t10.5 -27.5t23 -12.5t40 -3h14z" />
    <glyph glyph-name="guilsinglleft" unicode="&#x2039;" horiz-adv-x="325" 
d="M261 102l-95 -31l-113 200l113 201l95 -31l-94 -170z" />
    <glyph glyph-name="guilsinglright" unicode="&#x203a;" horiz-adv-x="325" 
d="M159 72l-95 31l94 169l-94 170l95 31l113 -201z" />
    <glyph glyph-name="fraction" unicode="&#x2044;" horiz-adv-x="159" 
d="M-50 0h-84l343 680h84z" />
    <glyph glyph-name="zero.superior" unicode="&#x2070;" horiz-adv-x="571" 
d="M296 523q45 0 72 3.5t42 15t19.5 34t4.5 60.5v7q0 37 -4.5 59.5t-19.5 34t-42 15t-72 3.5h-21q-45 0 -72 -3.5t-41.5 -15t-19 -34t-4.5 -59.5v-7q0 -38 4.5 -60.5t19 -34t41.5 -15t72 -3.5h21zM273 449q-74 0 -119 7t-69.5 26.5t-33 55.5t-8.5 95v12q0 58 8.5 94.5t33 56
t69.5 26.5t119 7h25q75 0 120 -7t69.5 -27t32.5 -56t8 -94v-12q0 -58 -8 -94t-32.5 -56t-69.5 -27t-120 -7h-25z" />
    <glyph glyph-name="four.superior" unicode="&#x2074;" horiz-adv-x="573" 
d="M473 453h-97v80h-337v102l314 190h120v-227h67v-65h-67v-80zM376 598v161h-2l-257 -159v-2h259z" />
    <glyph glyph-name="five.superior" unicode="&#x2075;" horiz-adv-x="558" 
d="M266 449q-68 0 -110 4.5t-65.5 16.5t-31.5 33t-8 54v12h89v-6q0 -15 5.5 -24.5t19 -15t37 -7.5t59.5 -2h24q45 0 73 2t43.5 8t21 17t5.5 30v8q0 18 -4.5 29.5t-18.5 18t-40.5 8.5t-71.5 2h-25q-33 0 -55 -1t-36 -4t-20.5 -8.5t-9.5 -14.5h-88v216h441v-66h-353v-88h2
q11 16 43.5 23t100.5 7h23q62 0 101.5 -5.5t61.5 -18.5t30 -35t8 -56v-16q0 -36 -9.5 -59t-35 -37t-70 -19.5t-114.5 -5.5h-22z" />
    <glyph glyph-name="six.superior" unicode="&#x2076;" horiz-adv-x="553" 
d="M290 516q45 0 71 2t39.5 8t17 16t3.5 25v7q0 15 -4 24t-17.5 14.5t-39.5 7.5t-70 2h-21q-44 0 -69.5 -2t-39.5 -7t-18 -14t-4 -22v-7q0 -16 3.5 -26.5t17 -16.5t39.5 -8.5t71 -2.5h21zM267 449q-74 0 -118 6t-67 24.5t-30 52t-7 88.5v28q0 58 8.5 94t34 55t71 25.5
t119.5 6.5h25q63 0 102 -4.5t61.5 -16.5t30.5 -32.5t8 -53.5v-12h-90v7q0 14 -4.5 23t-17.5 14.5t-35.5 7.5t-58.5 2h-21q-45 0 -72.5 -3.5t-42 -13.5t-19 -29t-4.5 -50v-14h2q5 7 13 12.5t23 9.5t37.5 6t55.5 2h22q72 0 115.5 -4.5t67 -16t31 -32.5t7.5 -54v-9
q0 -38 -8 -61t-32 -36t-67.5 -17.5t-114.5 -4.5h-25z" />
    <glyph glyph-name="seven.superior" unicode="&#x2077;" horiz-adv-x="539" 
d="M218 453h-110l268 296v2h-330v74h447v-66z" />
    <glyph glyph-name="eight.superior" unicode="&#x2078;" horiz-adv-x="546" 
d="M259 449q-74 0 -117 4t-65 15t-28 30.5t-6 49.5v10q0 38 16 57.5t54 25.5v1q-39 8 -52 26t-13 59v9q0 28 6.5 46t28 28.5t63.5 14.5t113 4h28q71 0 113 -4t63.5 -14.5t28 -28.5t6.5 -46v-9q0 -41 -13 -59t-52 -26v-1q38 -6 54 -25.5t16 -57.5v-10q0 -30 -6 -49.5
t-28 -30.5t-65 -15t-117 -4h-28zM284 672q43 0 67.5 1.5t36.5 6t15 13.5t3 23v4q0 14 -3 22.5t-15.5 13.5t-37 6.5t-66.5 1.5h-23q-42 0 -66 -1.5t-36.5 -6.5t-15.5 -13.5t-3 -22.5v-4q0 -14 3 -23t15 -13.5t36 -6t67 -1.5h23zM284 514q45 0 70 2t37.5 7t15.5 13.5t3 22.5
v10q0 14 -3 23t-16 13.5t-38 6t-69 1.5h-23q-44 0 -69 -1.5t-37.5 -6t-15.5 -13.5t-3 -23v-10q0 -14 3 -22.5t15.5 -13.5t37.5 -7t69 -2h23z" />
    <glyph glyph-name="nine.superior" unicode="&#x2079;" horiz-adv-x="559" 
d="M289 656q43 0 69.5 2t40 7t18 13.5t4.5 22.5v7q0 16 -4 26.5t-17.5 16.5t-39.5 8.5t-71 2.5h-20q-45 0 -71 -2t-39.5 -8t-17 -16t-3.5 -25v-7q0 -15 4 -24t17.5 -14.5t39.5 -7.5t70 -2h20zM255 449q-66 0 -106.5 4.5t-63 16.5t-30 32.5t-7.5 53.5v12h90v-7q0 -14 4.5 -23
t17.5 -14.5t36.5 -7.5t62.5 -2h21q47 0 74.5 3.5t42 13.5t18.5 29t4 50v14h-2q-6 -8 -14.5 -13.5t-23 -9t-36.5 -5.5t-55 -2h-22q-72 0 -115.5 4.5t-67 16.5t-31 33.5t-7.5 56.5v9q0 36 8 58.5t32 35t67.5 17t114.5 4.5h25q73 0 117 -6t67 -24t30 -51t7 -87v-27
q0 -60 -8 -96.5t-33 -56t-70.5 -26t-121.5 -6.5h-25z" />
    <glyph glyph-name="zero.inferior" unicode="&#x2080;" horiz-adv-x="571" 
d="M296 -84q45 0 72 3.5t42 15t19.5 34t4.5 60.5v7q0 37 -4.5 59.5t-19.5 34t-42 15t-72 3.5h-21q-45 0 -72 -3.5t-41.5 -15t-19 -34t-4.5 -59.5v-7q0 -38 4.5 -60.5t19 -34t41.5 -15t72 -3.5h21zM273 -158q-74 0 -119 7t-69.5 26.5t-33 55.5t-8.5 95v12q0 58 8.5 94.5
t33 56t69.5 26.5t119 7h25q75 0 120 -7t69.5 -27t32.5 -56t8 -94v-12q0 -58 -8 -94t-32.5 -56t-69.5 -27t-120 -7h-25z" />
    <glyph glyph-name="one.inferior" unicode="&#x2081;" horiz-adv-x="369" 
d="M304 -154h-98v296h-4l-117 -82l-45 60l142 98h122v-372z" />
    <glyph glyph-name="two.inferior" unicode="&#x2082;" horiz-adv-x="551" 
d="M515 -154h-468v67q0 36 10.5 61t35.5 40.5t67.5 23t106.5 9.5q50 2 79.5 4.5t44.5 8.5t19.5 15.5t4.5 24.5v7q0 15 -4.5 24.5t-19.5 14.5t-42.5 7t-72.5 2h-10q-41 0 -65 -2t-36.5 -8t-16.5 -17t-4 -29v-10h-90v17q0 37 7.5 59.5t29.5 35t63 17t109 4.5h15q74 0 119.5 -5
t70 -18t33 -34t8.5 -53v-8q0 -34 -9.5 -57t-34.5 -37t-68.5 -20.5t-111.5 -8.5q-48 -2 -77.5 -4.5t-45 -9t-20.5 -17t-5 -28.5v-9h378v-67z" />
    <glyph glyph-name="three.inferior" unicode="&#x2083;" horiz-adv-x="562" 
d="M265 -158q-69 0 -111.5 4t-66 16.5t-31 35.5t-7.5 61v15h91v-14q0 -18 4 -28t17 -15t38.5 -6.5t68.5 -1.5h12q51 0 80 2t43.5 7t18.5 14.5t4 23.5v6q0 12 -3 20.5t-12 13t-25 6.5t-42 2h-119v62h120q23 0 36.5 2t21 6.5t10 12.5t2.5 19v8q0 12 -4 20t-18 12.5t-41 6.5
t-72 2h-10q-41 0 -66 -1.5t-38 -6.5t-17 -15t-4 -28v-12h-90v14q0 37 8 60t30.5 35.5t64 16.5t109.5 4h16q73 0 118 -4t69.5 -15t32.5 -29.5t8 -46.5v-7q0 -41 -13 -58.5t-51 -24.5v-1q38 -5 56 -21.5t18 -57.5v-13q0 -33 -9.5 -53t-35.5 -31t-72.5 -14.5t-120.5 -3.5h-18z
" />
    <glyph glyph-name="four.inferior" unicode="&#x2084;" horiz-adv-x="573" 
d="M473 -154h-97v80h-337v102l314 190h120v-227h67v-65h-67v-80zM376 -9v161h-2l-257 -159v-2h259z" />
    <glyph glyph-name="five.inferior" unicode="&#x2085;" horiz-adv-x="558" 
d="M266 -158q-68 0 -110 4.5t-65.5 16.5t-31.5 33t-8 54v12h89v-6q0 -15 5.5 -24.5t19 -15t37 -7.5t59.5 -2h24q45 0 73 2t43.5 8t21 17t5.5 30v8q0 18 -4.5 29.5t-18.5 18t-40.5 8.5t-71.5 2h-25q-33 0 -55 -1t-36 -4t-20.5 -8.5t-9.5 -14.5h-88v216h441v-66h-353v-88h2
q11 16 43.5 23t100.5 7h23q62 0 101.5 -5.5t61.5 -18.5t30 -35t8 -56v-16q0 -36 -9.5 -59t-35 -37t-70 -19.5t-114.5 -5.5h-22z" />
    <glyph glyph-name="six.inferior" unicode="&#x2086;" horiz-adv-x="553" 
d="M290 -91q45 0 71 2t39.5 8t17 16t3.5 25v7q0 15 -4 24t-17.5 14.5t-39.5 7.5t-70 2h-21q-44 0 -69.5 -2t-39.5 -7t-18 -14t-4 -22v-7q0 -16 3.5 -26.5t17 -16.5t39.5 -8.5t71 -2.5h21zM267 -158q-74 0 -118 6t-67 24.5t-30 52t-7 88.5v28q0 58 8.5 94t34 55t71 25.5
t119.5 6.5h25q63 0 102 -4.5t61.5 -16.5t30.5 -32.5t8 -53.5v-12h-90v7q0 14 -4.5 23t-17.5 14.5t-35.5 7.5t-58.5 2h-21q-45 0 -72.5 -3.5t-42 -13.5t-19 -29t-4.5 -50v-14h2q5 7 13 12.5t23 9.5t37.5 6t55.5 2h22q72 0 115.5 -4.5t67 -16t31 -32.5t7.5 -54v-9
q0 -38 -8 -61t-32 -36t-67.5 -17.5t-114.5 -4.5h-25z" />
    <glyph glyph-name="seven.inferior" unicode="&#x2087;" horiz-adv-x="539" 
d="M218 -154h-110l268 296v2h-330v74h447v-66z" />
    <glyph glyph-name="eight.inferior" unicode="&#x2088;" horiz-adv-x="546" 
d="M259 -158q-74 0 -117 4t-65 15t-28 30.5t-6 49.5v10q0 38 16 57.5t54 25.5v1q-39 8 -52 26t-13 59v9q0 28 6.5 46t28 28.5t63.5 14.5t113 4h28q71 0 113 -4t63.5 -14.5t28 -28.5t6.5 -46v-9q0 -41 -13 -59t-52 -26v-1q38 -6 54 -25.5t16 -57.5v-10q0 -30 -6 -49.5
t-28 -30.5t-65 -15t-117 -4h-28zM284 65q43 0 67.5 1.5t36.5 6t15 13.5t3 23v4q0 14 -3 22.5t-15.5 13.5t-37 6.5t-66.5 1.5h-23q-42 0 -66 -1.5t-36.5 -6.5t-15.5 -13.5t-3 -22.5v-4q0 -14 3 -23t15 -13.5t36 -6t67 -1.5h23zM284 -93q45 0 70 2t37.5 7t15.5 13.5t3 22.5v10
q0 14 -3 23t-16 13.5t-38 6t-69 1.5h-23q-44 0 -69 -1.5t-37.5 -6t-15.5 -13.5t-3 -23v-10q0 -14 3 -22.5t15.5 -13.5t37.5 -7t69 -2h23z" />
    <glyph glyph-name="nine.inferior" unicode="&#x2089;" horiz-adv-x="559" 
d="M289 49q43 0 69.5 2t40 7t18 13.5t4.5 22.5v7q0 16 -4 26.5t-17.5 16.5t-39.5 8.5t-71 2.5h-20q-45 0 -71 -2t-39.5 -8t-17 -16t-3.5 -25v-7q0 -15 4 -24t17.5 -14.5t39.5 -7.5t70 -2h20zM255 -158q-66 0 -106.5 4.5t-63 16.5t-30 32.5t-7.5 53.5v12h90v-7q0 -14 4.5 -23
t17.5 -14.5t36.5 -7.5t62.5 -2h21q47 0 74.5 3.5t42 13.5t18.5 29t4 50v14h-2q-6 -8 -14.5 -13.5t-23 -9t-36.5 -5.5t-55 -2h-22q-72 0 -115.5 4.5t-67 16.5t-31 33.5t-7.5 56.5v9q0 36 8 58.5t32 35t67.5 17t114.5 4.5h25q73 0 117 -6t67 -24t30 -51t7 -87v-27
q0 -60 -8 -96.5t-33 -56t-70.5 -26t-121.5 -6.5h-25z" />
    <glyph glyph-name="Euro" unicode="&#x20ac;" horiz-adv-x="966" 
d="M897 174q0 -56 -14.5 -91t-53 -55.5t-107 -28t-176.5 -7.5h-28q-114 0 -187 9t-115 37t-59.5 81t-21.5 140h-88v56h87v59h-87v56h89q3 57 11.5 98.5t26 70.5t45.5 46.5t69.5 27t98 12.5t131.5 3h27q109 0 176 -7t104.5 -27t50.5 -55.5t13 -91.5v-18h-146v9q0 23 -6.5 39
t-27.5 25.5t-61 13.5t-108 4h-17q-72 0 -117.5 -4t-72.5 -19t-38 -45t-14 -82h439v-56h-440v-59h440v-56h-439q3 -55 13 -86.5t36.5 -47.5t72.5 -20t120 -4h17q68 0 110 4t64.5 13.5t30 25.5t7.5 40v8h145v-18z" />
    <glyph glyph-name="afii61289" unicode="&#x2113;" horiz-adv-x="496" 
d="M447 71q-38 -37 -80.5 -58t-88.5 -21q-78 0 -112.5 41t-34.5 121v34q-14 -14 -26 -24t-26 -24l-45 62q25 20 49 41t47 42v209q0 119 45.5 173t123.5 54q66 0 103 -39t37 -103q0 -81 -48.5 -155.5t-143.5 -157.5v-90q0 -54 15 -76t51 -22q24 0 47.5 14.5t45.5 35.5z
M247 367q48 51 74.5 102t26.5 103q0 71 -46 71q-26 0 -40.5 -25.5t-14.5 -84.5v-166z" />
    <glyph glyph-name="trademark" unicode="&#x2122;" horiz-adv-x="1000" 
d="M252 350h-90v262h-132v68h357v-68h-135v-262zM940 350h-85v230h-4l-129 -230h-56l-131 230h-3v-230h-89v330h122l130 -230h2l127 230h116v-330z" />
    <glyph glyph-name="Omega" unicode="&#x2126;" horiz-adv-x="827" 
d="M764 0h-290v219q77 14 118.5 62.5t41.5 117.5q0 40 -14.5 73.5t-43 57.5t-69.5 37.5t-94 13.5t-93.5 -13.5t-69 -37.5t-43 -57.5t-14.5 -73.5q0 -69 41.5 -117.5t118.5 -62.5v-219h-290v110h189v42q-92 28 -147 91t-55 160q0 63 25 115.5t72.5 90t114.5 58.5t151 21
t151.5 -21t115 -58.5t72.5 -90t25 -115.5q0 -97 -55 -160t-147 -91v-42h189v-110z" />
    <glyph glyph-name="estimated" unicode="&#x212e;" horiz-adv-x="746" 
d="M655 164q-28 -43 -57.5 -74.5t-63 -52t-74 -30.5t-89.5 -10q-73 0 -132 27t-101 74t-64.5 109.5t-22.5 134.5t22.5 134.5t64.5 108t101 72t132 26.5t132.5 -25t102 -70t66 -107.5t23.5 -138.5h-503v-226q35 -36 80.5 -54t98.5 -18q78 0 136.5 34.5t104.5 113.5zM554 386
v179q-79 77 -183 77q-53 0 -98.5 -19.5t-80.5 -57.5v-179h362z" />
    <glyph glyph-name="partialdiff" unicode="&#x2202;" horiz-adv-x="639" 
d="M82 641q42 42 95.5 61t113.5 19q74 0 129.5 -27.5t92 -75.5t54.5 -113.5t18 -141.5q0 -79 -17 -147t-51.5 -117.5t-87 -78t-124.5 -28.5q-122 0 -183 62.5t-61 169.5q0 50 16 91t46 70.5t73 46t97 16.5q60 0 103.5 -21.5t66.5 -59.5h2q-1 14 -2 27.5t-3 24.5
q-12 97 -57.5 147.5t-114.5 50.5q-38 0 -76.5 -13.5t-73.5 -44.5zM462 267q-29 45 -68 64t-80 19q-56 0 -90.5 -34.5t-34.5 -96.5q0 -55 31.5 -90t88.5 -35q68 0 104.5 46.5t48.5 126.5z" />
    <glyph glyph-name="Delta" unicode="&#x2206;" horiz-adv-x="898" 
d="M885 0h-872l373 680h132zM678 116l-225 432h-4l-229 -432h458z" />
    <glyph glyph-name="product" unicode="&#x220f;" horiz-adv-x="949" 
d="M826 -214h-137v882h-429v-882h-137v882h-67v118h837v-118h-67v-882z" />
    <glyph glyph-name="summation" unicode="&#x2211;" horiz-adv-x="729" 
d="M676 -214h-625v92l322 439l-309 382v87h601v-118h-413v-2l272 -350l-299 -408v-2h451v-120z" />
    <glyph glyph-name="minus" unicode="&#x2212;" horiz-adv-x="673" 
d="M604 249h-535v98h535v-98z" />
    <glyph glyph-name="uni2215" unicode="&#x2215;" horiz-adv-x="159" 
d="M-50 0h-84l343 680h84z" />
    <glyph glyph-name="uni2219" unicode="&#x2219;" horiz-adv-x="288" 
d="M218 188h-148v155h148v-155z" />
    <glyph glyph-name="radical" unicode="&#x221a;" horiz-adv-x="642" 
d="M392 -214h-122l-161 320l-54 -26l-39 83l149 72l153 -319h2l194 870h113z" />
    <glyph glyph-name="infinity" unicode="&#x221e;" horiz-adv-x="834" 
d="M417 336q43 51 88.5 82t108.5 31q38 0 70 -12t55 -34t36 -53.5t13 -71.5t-12.5 -72t-35.5 -54.5t-55 -35t-71 -12.5q-62 0 -108 30t-89 78q-21 -23 -42 -42.5t-44.5 -34t-50 -22.5t-58.5 -8q-38 0 -70 12t-55.5 34t-37 54t-13.5 73q0 39 13 70.5t36 53.5t54.5 34t69.5 12
q65 0 111 -32t87 -80zM360 275q-35 37 -68 60.5t-66 23.5q-35 0 -56.5 -24t-21.5 -59q0 -36 22 -58.5t58 -22.5q33 0 65 21t67 59zM473 275q35 -38 67 -59.5t67 -21.5q36 0 57.5 23.5t21.5 58.5q0 36 -21.5 60t-59.5 24q-34 0 -66 -24t-66 -61z" />
    <glyph glyph-name="integral" unicode="&#x222b;" horiz-adv-x="494" 
d="M63 -115q8 -2 18.5 -3t21.5 -1q20 0 34.5 7.5t24 30t14 64t4.5 109.5v355q0 101 9 167t31 105t58 54.5t89 15.5q7 0 16.5 -0.5t19 -1.5t17.5 -2t11 -2v-96q-8 2 -18.5 3t-21.5 1q-20 0 -34.5 -7.5t-24 -30t-14 -64t-4.5 -109.5v-355q0 -101 -9.5 -167t-31 -105
t-57.5 -54.5t-89 -15.5q-7 0 -16.5 0.5t-19 1.5t-17.5 2t-11 2v96z" />
    <glyph glyph-name="approxequal" unicode="&#x2248;" horiz-adv-x="673" 
d="M610 464q-10 -79 -44 -122t-105 -43q-34 0 -67.5 10t-62.5 23q-31 13 -61.5 23t-60.5 10t-45 -16t-22 -51h-80q10 84 45.5 125t102.5 41q35 0 69.5 -10.5t66.5 -24.5q29 -12 58.5 -22t57.5 -10q32 0 46 17t21 50h81zM610 251q-10 -79 -44 -122t-105 -43q-34 0 -67.5 10.5
t-62.5 22.5q-31 13 -61.5 23t-60.5 10t-45 -15.5t-22 -50.5h-80q10 83 45.5 124t102.5 41q35 0 69.5 -11t66.5 -24q29 -12 58.5 -21.5t57.5 -9.5q32 0 46 17t21 49h81z" />
    <glyph glyph-name="notequal" unicode="&#x2260;" horiz-adv-x="673" 
d="M604 138h-300l-75 -149l-78 39l56 110h-138v96h187l56 110h-243v96h292l72 142l78 -38l-52 -104h145v-96h-195l-55 -110h250v-96z" />
    <glyph glyph-name="lessequal" unicode="&#x2264;" horiz-adv-x="673" 
d="M604 135l-535 212v80l535 212v-102l-389 -149v-3l389 -146v-104zM604 0h-535v98h535v-98z" />
    <glyph glyph-name="greaterequal" unicode="&#x2265;" horiz-adv-x="673" 
d="M604 347l-535 -212v104l390 146v3l-390 149v102l535 -212v-80zM604 0h-535v98h535v-98z" />
    <glyph glyph-name="lozenge" unicode="&#x25ca;" horiz-adv-x="584" 
d="M294 103l127 244l-129 228h-1l-128 -228l130 -244h1zM341 0h-98l-189 347l189 333h98l189 -333z" />
    <glyph glyph-name="exclam.sc" unicode="&#xe000;" horiz-adv-x="311" 
d="M222 0h-134v125h134v-125zM216 190h-122l-7 338h136z" />
    <glyph glyph-name="dollar.sc" unicode="&#xe001;" horiz-adv-x="756" 
d="M421 -64h-75v58q-96 1 -153 8.5t-86.5 25.5t-38 48t-8.5 77v16h130v-11q0 -22 5 -35.5t21.5 -22t47.5 -11.5t82 -4v138q-93 1 -147.5 10t-83.5 27t-37.5 47t-8.5 71v10q0 41 11.5 69t42 45.5t84.5 25.5t139 8v48h75v-49q86 -1 138 -8.5t80 -25t37 -47t9 -74.5v-14h-131
v10q0 21 -5.5 34t-20 21t-40.5 11t-67 4v-130q90 -1 145.5 -8.5t85.5 -25t40.5 -47t10.5 -72.5v-12q0 -44 -11 -73.5t-41.5 -48t-86 -27t-143.5 -9.5v-57zM421 85q52 1 82 4t46 10.5t20.5 20t4.5 31.5v7q0 18 -4.5 30t-20.5 19.5t-46.5 10.5t-81.5 4v-137zM198 378
q0 -17 3.5 -28.5t18.5 -19t44.5 -10.5t81.5 -4v131q-49 -1 -78.5 -4t-45 -9.5t-20 -18t-4.5 -29.5v-8z" />
    <glyph glyph-name="percent.sc" unicode="&#xe002;" horiz-adv-x="779" 
d="M183 273q-40 0 -66 5.5t-41 19.5t-20.5 38t-5.5 61v7q0 37 5.5 61t20.5 38t41 19.5t66 5.5h16q40 0 66 -5.5t41 -19.5t20.5 -38t5.5 -61v-7q0 -37 -5.5 -61t-20.5 -38t-41 -19.5t-66 -5.5h-16zM196 332q18 0 29.5 3t18.5 10.5t9.5 20.5t2.5 33v5q0 40 -12 53t-48 13h-10
q-36 0 -48 -13t-12 -53v-5q0 -20 2.5 -33t9.5 -20.5t18.5 -10.5t29.5 -3h10zM288 0h-80l281 528h80zM581 0q-40 0 -66 5.5t-41 19.5t-20.5 38t-5.5 61v7q0 37 5.5 61t20.5 38t41 19.5t66 5.5h16q40 0 66 -5.5t41 -19.5t20.5 -38t5.5 -61v-7q0 -37 -5.5 -61t-20.5 -38
t-41 -19.5t-66 -5.5h-16zM594 59q18 0 29.5 3t18.5 10.5t9.5 20.5t2.5 33v5q0 40 -12 53t-48 13h-10q-36 0 -48 -13t-12 -53v-5q0 -20 2.5 -33t9.5 -20.5t18.5 -10.5t29.5 -3h10z" />
    <glyph glyph-name="ampersand.sc" unicode="&#xe003;" horiz-adv-x="812" 
d="M589 289h108v-30q0 -41 -1 -68t-3 -50l122 -59l-47 -87l-102 51q-13 -14 -30 -24.5t-48.5 -17t-82 -9.5t-129.5 -3h-14q-106 0 -167 6.5t-92 24.5t-39 49t-8 81v10q0 34 5.5 58.5t18.5 41t34 26.5t51 15q-29 15 -41.5 39t-12.5 59v10q0 41 11 65.5t40.5 37.5t81 17
t131.5 4h14q90 0 141.5 -5t77.5 -21.5t33 -48t7 -84.5v-12h-114v12q0 23 -4.5 37t-19.5 21.5t-44 10t-79 2.5h-14q-45 0 -71.5 -2.5t-40.5 -7.5t-18 -13.5t-4 -21.5v-7q0 -11 1.5 -18t7.5 -13t17 -12.5t29 -15.5l294 -144q0 7 0.5 17t0.5 18v61zM180 170q0 -27 4.5 -44
t21.5 -26.5t50.5 -13t90.5 -3.5h9q85 0 134.5 3.5t64.5 14.5l-306 153q-20 -1 -33.5 -5.5t-21.5 -13.5t-11 -23.5t-3 -35.5v-6z" />
    <glyph glyph-name="question.sc" unicode="&#xe004;" horiz-adv-x="636" 
d="M355 0h-134v125h134v-125zM348 174h-120v12q0 30 4.5 50t18 33.5t38 21t64.5 12.5q41 5 65 10t36.5 13t16 20t3.5 32v8q0 18 -5.5 30t-20.5 19t-42.5 10t-72.5 3h-15q-48 0 -78 -2.5t-46.5 -10.5t-22.5 -23.5t-6 -41.5v-23h-121v23q0 55 12.5 88t44 50.5t84.5 22.5t133 5
h15q78 0 129 -5.5t80.5 -21.5t41 -44t11.5 -73v-14q0 -39 -7 -65.5t-24.5 -44.5t-48.5 -28t-79 -16q-31 -3 -48.5 -7t-26.5 -8.5t-11 -11.5t-2 -16v-7z" />
    <glyph glyph-name="a.sc" unicode="&#xe005;" horiz-adv-x="790" 
d="M786 0h-155l-56 100h-366l-55 -100h-150l306 528h170zM527 195l-132 240h-4l-132 -240h268z" />
    <glyph glyph-name="b.sc" unicode="&#xe006;" horiz-adv-x="775" 
d="M73 0v528h432q58 0 97 -7t63 -23.5t34.5 -43t10.5 -65.5q0 -50 -18 -75t-50 -37v-2q42 -11 64.5 -39.5t22.5 -86.5q0 -41 -11 -69.5t-36 -46t-65 -25.5t-98 -8h-446zM501 91q56 0 74.5 16t18.5 54q0 40 -18.5 54t-59.5 14h-306v-138h291zM512 313q33 0 49.5 12.5
t16.5 50.5q0 37 -17.5 50t-66.5 13h-284v-126h302z" />
    <glyph glyph-name="c.sc" unicode="&#xe007;" horiz-adv-x="807" 
d="M404 -8q-110 0 -178 10t-105.5 39t-50.5 81t-13 135v15q0 83 12.5 134.5t50 80.5t105.5 39t179 10h24q101 0 163 -8t96 -27.5t45.5 -52.5t11.5 -82v-26h-137v16q0 23 -5 38t-24 23.5t-55 12t-99 3.5h-17q-72 0 -114 -4.5t-63 -21.5t-26.5 -49.5t-5.5 -87.5v-10
q0 -54 5.5 -86.5t26.5 -49.5t63 -22t114 -5h17q66 0 104 3.5t57 12.5t24 25t5 42v14h136v-30q0 -47 -12 -79.5t-46.5 -53t-97.5 -30t-166 -9.5h-24z" />
    <glyph glyph-name="d.sc" unicode="&#xe008;" horiz-adv-x="838" 
d="M781 257q0 -84 -10.5 -134.5t-46.5 -77.5t-105 -36t-185 -9h-361v528h361q114 0 182.5 -8t105 -35t48 -77.5t11.5 -135.5v-15zM424 104q77 0 121 5t66 21.5t27.5 47.5t5.5 83v9q0 52 -6 82.5t-28 46.5t-66 21t-120 5h-213v-321h213z" />
    <glyph glyph-name="e.sc" unicode="&#xe009;" horiz-adv-x="688" 
d="M654 0h-581v528h574v-96h-438v-118h417v-90h-417v-128h445v-96z" />
    <glyph glyph-name="f.sc" unicode="&#xe00a;" horiz-adv-x="650" 
d="M608 204h-398v-204h-137v528h553v-97h-416v-135h398v-92z" />
    <glyph glyph-name="g.sc" unicode="&#xe00b;" horiz-adv-x="807" 
d="M403 -8q-111 0 -179 10.5t-105 40t-49.5 81t-12.5 133.5v15q0 83 12.5 134.5t50 80.5t105 39t178.5 10h24q99 0 160.5 -8.5t96 -27.5t47 -50.5t12.5 -76.5v-19h-136v9q0 21 -6 35t-25 22.5t-55.5 12t-97.5 3.5h-16q-72 0 -114.5 -4.5t-64.5 -21.5t-28 -50t-6 -90v-10
q0 -56 6 -89.5t28 -50.5t64.5 -22t114.5 -5h16q68 0 107 4t59 14t25.5 27.5t5.5 45.5v20h-233v79h363v-100q0 -56 -13.5 -93t-49.5 -59t-98.5 -30.5t-160.5 -8.5h-25z" />
    <glyph glyph-name="h.sc" unicode="&#xe00c;" horiz-adv-x="819" 
d="M746 0h-138v220h-397v-220h-138v528h138v-203h397v203h138v-528z" />
    <glyph glyph-name="i.sc" unicode="&#xe00d;" horiz-adv-x="284" 
d="M211 0h-138v528h138v-528z" />
    <glyph glyph-name="j.sc" unicode="&#xe00e;" horiz-adv-x="646" 
d="M288 -7q-82 0 -132 7t-77.5 26.5t-36.5 54t-9 89.5v40h132v-19q0 -32 4 -50t17 -28t37.5 -12.5t66.5 -2.5h17q44 0 70 3t40 13.5t18 31t4 56.5v326h138v-333q0 -65 -10 -104.5t-39 -61.5t-80.5 -29t-135.5 -7h-24z" />
    <glyph glyph-name="k.sc" unicode="&#xe00f;" horiz-adv-x="764" 
d="M764 0h-192l-292 218h-69v-218h-138v528h138v-207h74l270 207h177l-334 -256z" />
    <glyph glyph-name="l.sc" unicode="&#xe010;" horiz-adv-x="609" 
d="M597 0h-524v528h138v-423h386v-105z" />
    <glyph glyph-name="m.sc" unicode="&#xe011;" horiz-adv-x="1008" 
d="M935 0h-133v401h-2l-242 -401h-107l-242 401h-3v-401h-133v528h190l244 -400h2l239 400h187v-528z" />
    <glyph glyph-name="n.sc" unicode="&#xe012;" horiz-adv-x="846" 
d="M773 0h-191l-373 417h-2v-417h-134v528h197l367 -415h2v415h134v-528z" />
    <glyph glyph-name="o.sc" unicode="&#xe013;" horiz-adv-x="839" 
d="M408 -8q-112 0 -181 10t-106.5 38.5t-50.5 80.5t-13 135v16q0 83 13 135t50.5 80.5t106.5 38.5t181 10h24q112 0 181 -10t106.5 -38.5t50 -80.5t12.5 -135v-16q0 -83 -12.5 -135t-50 -80.5t-106.5 -38.5t-181 -10h-24zM428 97q74 0 117 4.5t64.5 21.5t27.5 49t6 88v10
q0 55 -6 87.5t-27.5 49.5t-64.5 21.5t-117 4.5h-16q-74 0 -117 -4.5t-64.5 -21.5t-27.5 -49.5t-6 -87.5v-10q0 -56 6 -88t27.5 -49t64.5 -21.5t117 -4.5h16z" />
    <glyph glyph-name="p.sc" unicode="&#xe014;" horiz-adv-x="754" 
d="M419 259q52 0 82.5 3t46 11.5t19.5 24.5t4 43v9q0 27 -4.5 43t-20 25t-46 11.5t-81.5 2.5h-208v-173h208zM211 0h-138v528h368q82 0 133.5 -6.5t80.5 -25.5t40 -53.5t11 -90.5v-13q0 -56 -11 -90.5t-40 -54t-80.5 -26t-133.5 -6.5h-230v-162z" />
    <glyph glyph-name="q.sc" unicode="&#xe015;" horiz-adv-x="846" 
d="M408 -8q-112 0 -181 10t-106.5 38.5t-50.5 80.5t-13 135v16q0 83 13 135t50.5 80.5t106.5 38.5t181 10h24q112 0 181 -10t106.5 -38.5t50 -80.5t12.5 -135v-16q0 -44 -3 -78t-11 -61l72 -37l-54 -87l-68 47q-38 -29 -106.5 -38.5t-179.5 -9.5h-24zM428 97q63 0 103.5 3
t64.5 14l-168 91l54 83l162 -101q2 14 3 32.5t1 40.5v10q0 55 -6.5 88t-29.5 49.5t-66.5 21.5t-117.5 5h-16q-74 0 -117 -5t-65 -21.5t-28 -49.5t-6 -88v-10q0 -56 6 -88t28 -49t65 -21.5t117 -4.5h16z" />
    <glyph glyph-name="r.sc" unicode="&#xe016;" horiz-adv-x="777" 
d="M450 266q40 0 64.5 3.5t38 12t18 23.5t4.5 38v12q0 24 -4.5 39.5t-18 23.5t-40 11t-69.5 3h-232v-166h239zM713 0h-136v55q0 38 -5 61t-21.5 35t-48 16t-85.5 4h-206v-171h-138v528h415q68 0 112 -7t69 -25t34.5 -48t9.5 -75v-19q0 -59 -20.5 -88.5t-62.5 -43.5v-1
q25 -5 41 -13.5t25.5 -23t13 -37.5t3.5 -56v-91z" />
    <glyph glyph-name="s.sc" unicode="&#xe017;" horiz-adv-x="763" 
d="M379 -7q-107 0 -170 6t-96 23.5t-43 48t-10 79.5v17h138v-12q0 -21 5.5 -34t23.5 -20t52 -9t91 -2h23q63 0 99.5 2.5t54.5 9.5t23 19t5 31v7q0 18 -5 30t-24 19t-57 9.5t-103 2.5q-108 0 -171 7t-95.5 25t-41.5 48t-9 77v12q0 42 11 70.5t42 45.5t86.5 24t144.5 7h28
q102 0 163 -6.5t94 -23.5t43 -47t10 -77v-14h-134v10q0 20 -5 32.5t-21.5 19.5t-48 9.5t-84.5 2.5h-21q-59 0 -94 -2.5t-53 -8.5t-23 -17t-5 -29v-8q0 -18 4.5 -29t23.5 -17.5t58.5 -9t108.5 -2.5q101 0 162.5 -7t94.5 -25t43.5 -48t10.5 -76v-12q0 -45 -11 -75.5t-43 -49
t-92 -26t-157 -7.5h-26z" />
    <glyph glyph-name="t.sc" unicode="&#xe018;" horiz-adv-x="657" 
d="M397 0h-137v425h-248v103h633v-103h-248v-425z" />
    <glyph glyph-name="u.sc" unicode="&#xe019;" horiz-adv-x="809" 
d="M396 -8q-100 0 -163.5 8.5t-99.5 30.5t-49.5 60.5t-13.5 97.5v339h138v-305q0 -39 5.5 -63t25 -37.5t57 -18.5t100.5 -5h18q63 0 100.5 5t57 18.5t25 37.5t5.5 63v305h137v-339q0 -59 -13 -97.5t-48.5 -60.5t-99 -30.5t-165.5 -8.5h-17z" />
    <glyph glyph-name="v.sc" unicode="&#xe01a;" horiz-adv-x="777" 
d="M471 0h-163l-304 528h155l231 -408h3l229 408h151z" />
    <glyph glyph-name="w.sc" unicode="&#xe01b;" horiz-adv-x="1035" 
d="M826 0h-154l-152 381h-3l-153 -381h-154l-202 528h140l145 -404h2l159 404h127l162 -404h2l143 404h139z" />
    <glyph glyph-name="x.sc" unicode="&#xe01c;" horiz-adv-x="774" 
d="M761 0h-176l-199 205l-201 -205h-172l275 270l-250 258h168l182 -191l182 191h165l-250 -258z" />
    <glyph glyph-name="y.sc" unicode="&#xe01d;" horiz-adv-x="756" 
d="M447 0h-138v193l-305 335h164l212 -236h2l206 236h164l-305 -335v-193z" />
    <glyph glyph-name="z.sc" unicode="&#xe01e;" horiz-adv-x="739" 
d="M691 0h-643v95l448 338v2h-434v93h622v-97l-451 -334v-1h458v-96z" />
    <glyph glyph-name="agrave.sc" unicode="&#xe01f;" horiz-adv-x="790" 
d="M786 0h-155l-56 100h-366l-55 -100h-150l306 528h170zM527 195l-132 240h-4l-132 -240h268zM408 572l-212 102l54 80l189 -138z" />
    <glyph glyph-name="aacute.sc" unicode="&#xe020;" horiz-adv-x="790" 
d="M786 0h-155l-56 100h-366l-55 -100h-150l306 528h170zM527 195l-132 240h-4l-132 -240h268zM357 572l-31 44l190 138l53 -80z" />
    <glyph glyph-name="acircumflex.sc" unicode="&#xe021;" horiz-adv-x="790" 
d="M786 0h-155l-56 100h-366l-55 -100h-150l306 528h170zM527 195l-132 240h-4l-132 -240h268zM523 585l-129 73l-129 -73l-38 46l167 117l167 -117z" />
    <glyph glyph-name="atilde.sc" unicode="&#xe022;" horiz-adv-x="790" 
d="M786 0h-155l-56 100h-366l-55 -100h-150l306 528h170zM527 195l-132 240h-4l-132 -240h268zM558 707q-7 -54 -31 -83t-69 -29q-18 0 -35 6.5t-37 17.5q-20 13 -35 18.5t-27 5.5q-16 0 -28.5 -10.5t-19.5 -36.5l-48 15q5 49 31 79.5t67 30.5q32 0 72 -24
q22 -14 37.5 -19.5t26.5 -5.5q20 0 30 13.5t14 35.5z" />
    <glyph glyph-name="adieresis.sc" unicode="&#xe023;" horiz-adv-x="790" 
d="M786 0h-155l-56 100h-366l-55 -100h-150l306 528h170zM527 195l-132 240h-4l-132 -240h268zM339 600h-118v119h118v-119zM571 600h-118v119h118v-119z" />
    <glyph glyph-name="aring.sc" unicode="&#xe024;" horiz-adv-x="790" 
d="M786 0h-155l-56 100h-366l-55 -100h-150l306 528h170zM527 195l-132 240h-4l-132 -240h268zM391 578q-38 0 -62.5 4.5t-39 14t-20.5 25t-6 38.5v6q0 22 6 37.5t20.5 25t39 13.5t62.5 4h6q37 0 62 -4t39.5 -13.5t20.5 -25t6 -37.5v-6q0 -23 -6 -38.5t-20.5 -25t-39.5 -14
t-62 -4.5h-6zM397 620q47 0 62.5 8.5t15.5 31.5v6q0 22 -15.5 29.5t-62.5 7.5h-6q-47 0 -62.5 -7.5t-15.5 -29.5v-6q0 -23 15.5 -31.5t62.5 -8.5h6z" />
    <glyph glyph-name="amacron.sc" unicode="&#xe025;" horiz-adv-x="790" 
d="M786 0h-155l-56 100h-366l-55 -100h-150l306 528h170zM527 195l-132 240h-4l-132 -240h268zM548 626h-308v72h308v-72z" />
    <glyph glyph-name="abreve.sc" unicode="&#xe026;" horiz-adv-x="790" 
d="M786 0h-155l-56 100h-366l-55 -100h-150l306 528h170zM527 195l-132 240h-4l-132 -240h268zM569 717q-2 -33 -16 -57t-37.5 -40.5t-55 -24.5t-66.5 -8t-66 8t-55 24.5t-38.5 40.5t-15.5 57h69q8 -35 37 -47.5t69 -12.5q42 0 70 12t36 48h69z" />
    <glyph glyph-name="aogonek.sc" unicode="&#xe027;" horiz-adv-x="790" 
d="M786 0h-31q-63 -28 -87.5 -53t-24.5 -48q0 -19 12 -26.5t40 -7.5q17 0 35 1.5t38 5.5v-56q-25 -8 -53 -12t-57 -4q-52 0 -77.5 17.5t-25.5 55.5q0 41 25.5 69t85.5 58h-35l-56 100h-366l-55 -100h-150l306 528h170zM527 195l-132 240h-4l-132 -240h268z" />
    <glyph glyph-name="ae.sc" unicode="&#xe028;" horiz-adv-x="1169" 
d="M1135 0h-579v104h-325l-80 -104h-149l415 528h711v-96h-438v-118h417v-90h-417v-128h445v-96zM556 195v237h-71l-184 -237h255z" />
    <glyph glyph-name="cacute.sc" unicode="&#xe029;" horiz-adv-x="807" 
d="M404 -8q-110 0 -178 10t-105.5 39t-50.5 81t-13 135v15q0 83 12.5 134.5t50 80.5t105.5 39t179 10h24q101 0 163 -8t96 -27.5t45.5 -52.5t11.5 -82v-26h-137v16q0 23 -5 38t-24 23.5t-55 12t-99 3.5h-17q-72 0 -114 -4.5t-63 -21.5t-26.5 -49.5t-5.5 -87.5v-10
q0 -54 5.5 -86.5t26.5 -49.5t63 -22t114 -5h17q66 0 104 3.5t57 12.5t24 25t5 42v14h136v-30q0 -47 -12 -79.5t-46.5 -53t-97.5 -30t-166 -9.5h-24zM341 572l-31 44l190 138l53 -80z" />
    <glyph glyph-name="ccircumflex.sc" unicode="&#xe02a;" horiz-adv-x="807" 
d="M404 -8q-110 0 -178 10t-105.5 39t-50.5 81t-13 135v15q0 83 12.5 134.5t50 80.5t105.5 39t179 10h24q101 0 163 -8t96 -27.5t45.5 -52.5t11.5 -82v-26h-137v16q0 23 -5 38t-24 23.5t-55 12t-99 3.5h-17q-72 0 -114 -4.5t-63 -21.5t-26.5 -49.5t-5.5 -87.5v-10
q0 -54 5.5 -86.5t26.5 -49.5t63 -22t114 -5h17q66 0 104 3.5t57 12.5t24 25t5 42v14h136v-30q0 -47 -12 -79.5t-46.5 -53t-97.5 -30t-166 -9.5h-24zM533 585l-129 73l-129 -73l-38 46l167 117l167 -117z" />
    <glyph glyph-name="ccaron.sc" unicode="&#xe02b;" horiz-adv-x="807" 
d="M404 -8q-110 0 -178 10t-105.5 39t-50.5 81t-13 135v15q0 83 12.5 134.5t50 80.5t105.5 39t179 10h24q101 0 163 -8t96 -27.5t45.5 -52.5t11.5 -82v-26h-137v16q0 23 -5 38t-24 23.5t-55 12t-99 3.5h-17q-72 0 -114 -4.5t-63 -21.5t-26.5 -49.5t-5.5 -87.5v-10
q0 -54 5.5 -86.5t26.5 -49.5t63 -22t114 -5h17q66 0 104 3.5t57 12.5t24 25t5 42v14h136v-30q0 -47 -12 -79.5t-46.5 -53t-97.5 -30t-166 -9.5h-24zM404 567l-167 118l38 45l129 -73l129 73l38 -45z" />
    <glyph glyph-name="cdotaccent.sc" unicode="&#xe02c;" horiz-adv-x="807" 
d="M404 -8q-110 0 -178 10t-105.5 39t-50.5 81t-13 135v15q0 83 12.5 134.5t50 80.5t105.5 39t179 10h24q101 0 163 -8t96 -27.5t45.5 -52.5t11.5 -82v-26h-137v16q0 23 -5 38t-24 23.5t-55 12t-99 3.5h-17q-72 0 -114 -4.5t-63 -21.5t-26.5 -49.5t-5.5 -87.5v-10
q0 -54 5.5 -86.5t26.5 -49.5t63 -22t114 -5h17q66 0 104 3.5t57 12.5t24 25t5 42v14h136v-30q0 -47 -12 -79.5t-46.5 -53t-97.5 -30t-166 -9.5h-24zM471 600h-138v119h138v-119z" />
    <glyph glyph-name="ccedilla.sc" unicode="&#xe02d;" horiz-adv-x="807" 
d="M404 -8q-110 0 -178 10t-105.5 39t-50.5 81t-13 135v15q0 83 12.5 134.5t50 80.5t105.5 39t179 10h24q101 0 163 -8t96 -27.5t45.5 -52.5t11.5 -82v-26h-137v16q0 23 -5 38t-24 23.5t-55 12t-99 3.5h-17q-72 0 -114 -4.5t-63 -21.5t-26.5 -49.5t-5.5 -87.5v-10
q0 -54 5.5 -86.5t26.5 -49.5t63 -22t114 -5h17q66 0 104 3.5t57 12.5t24 25t5 42v14h136v-30q0 -47 -12 -79.5t-46.5 -53t-97.5 -30t-166 -9.5h-24zM286 -187l-35 41l189 137l62 -73z" />
    <glyph glyph-name="dcaron.sc" unicode="&#xe02e;" horiz-adv-x="838" 
d="M781 257q0 -84 -10.5 -134.5t-46.5 -77.5t-105 -36t-185 -9h-361v528h361q114 0 182.5 -8t105 -35t48 -77.5t11.5 -135.5v-15zM424 104q77 0 121 5t66 21.5t27.5 47.5t5.5 83v9q0 52 -6 82.5t-28 46.5t-66 21t-120 5h-213v-321h213zM411 567l-167 118l38 45l129 -73
l129 73l38 -45z" />
    <glyph glyph-name="dcroat.sc" unicode="&#xe02f;" horiz-adv-x="838" 
d="M424 104q77 0 121 5t66 21.5t27.5 47.5t5.5 83v9q0 52 -6 82.5t-28 46.5t-66 21t-120 5h-213v-123h165v-73h-165v-125h213zM781 257q0 -84 -10.5 -134.5t-46.5 -77.5t-105 -36t-185 -9h-361v229h-54v73h54v226h361q114 0 182.5 -8t105 -35t48 -77.5t11.5 -135.5v-15z" />
    <glyph glyph-name="egrave.sc" unicode="&#xe031;" horiz-adv-x="688" 
d="M654 0h-581v528h574v-96h-438v-118h417v-90h-417v-128h445v-96zM440 572l-212 102l54 80l189 -138z" />
    <glyph glyph-name="eacute.sc" unicode="&#xe032;" horiz-adv-x="688" 
d="M654 0h-581v528h574v-96h-438v-118h417v-90h-417v-128h445v-96zM272 572l-31 44l190 138l53 -80z" />
    <glyph glyph-name="ecircumflex.sc" unicode="&#xe033;" horiz-adv-x="688" 
d="M654 0h-581v528h574v-96h-438v-118h417v-90h-417v-128h445v-96zM493 585l-129 73l-129 -73l-38 46l167 117l167 -117z" />
    <glyph glyph-name="ecaron.sc" unicode="&#xe034;" horiz-adv-x="688" 
d="M654 0h-581v528h574v-96h-438v-118h417v-90h-417v-128h445v-96zM361 567l-167 118l38 45l129 -73l129 73l38 -45z" />
    <glyph glyph-name="edieresis.sc" unicode="&#xe035;" horiz-adv-x="688" 
d="M654 0h-581v528h574v-96h-438v-118h417v-90h-417v-128h445v-96zM302 600h-118v119h118v-119zM534 600h-118v119h118v-119z" />
    <glyph glyph-name="edotaccent.sc" unicode="&#xe036;" horiz-adv-x="688" 
d="M654 0h-581v528h574v-96h-438v-118h417v-90h-417v-128h445v-96zM426 600h-138v119h138v-119z" />
    <glyph glyph-name="emacron.sc" unicode="&#xe037;" horiz-adv-x="688" 
d="M654 0h-581v528h574v-96h-438v-118h417v-90h-417v-128h445v-96zM511 626h-308v72h308v-72z" />
    <glyph glyph-name="ebreve.sc" unicode="&#xe038;" horiz-adv-x="688" 
d="M654 0h-581v528h574v-96h-438v-118h417v-90h-417v-128h445v-96zM531 717q-2 -33 -16 -57t-37.5 -40.5t-55 -24.5t-66.5 -8t-66 8t-55 24.5t-38.5 40.5t-15.5 57h69q8 -35 37 -47.5t69 -12.5q42 0 70 12t36 48h69z" />
    <glyph glyph-name="eogonek.sc" unicode="&#xe039;" horiz-adv-x="688" 
d="M626 -184q-26 -8 -54.5 -12t-57.5 -4q-103 0 -103 73q0 41 27 70t76 57h-441v528h574v-96h-438v-118h417v-90h-417v-128h445v-96h-55q-54 -26 -77 -52t-23 -49q0 -19 12 -26.5t40 -7.5q34 0 75 7v-56z" />
    <glyph glyph-name="gcircumflex.sc" unicode="&#xe03a;" horiz-adv-x="807" 
d="M403 -8q-111 0 -179 10.5t-105 40t-49.5 81t-12.5 133.5v15q0 83 12.5 134.5t50 80.5t105 39t178.5 10h24q99 0 160.5 -8.5t96 -27.5t47 -50.5t12.5 -76.5v-19h-136v9q0 21 -6 35t-25 22.5t-55.5 12t-97.5 3.5h-16q-72 0 -114.5 -4.5t-64.5 -21.5t-28 -50t-6 -90v-10
q0 -56 6 -89.5t28 -50.5t64.5 -22t114.5 -5h16q68 0 107 4t59 14t25.5 27.5t5.5 45.5v20h-233v79h363v-100q0 -56 -13.5 -93t-49.5 -59t-98.5 -30.5t-160.5 -8.5h-25zM533 585l-129 73l-129 -73l-38 46l167 117l167 -117z" />
    <glyph glyph-name="gdotaccent.sc" unicode="&#xe03b;" horiz-adv-x="807" 
d="M403 -8q-111 0 -179 10.5t-105 40t-49.5 81t-12.5 133.5v15q0 83 12.5 134.5t50 80.5t105 39t178.5 10h24q99 0 160.5 -8.5t96 -27.5t47 -50.5t12.5 -76.5v-19h-136v9q0 21 -6 35t-25 22.5t-55.5 12t-97.5 3.5h-16q-72 0 -114.5 -4.5t-64.5 -21.5t-28 -50t-6 -90v-10
q0 -56 6 -89.5t28 -50.5t64.5 -22t114.5 -5h16q68 0 107 4t59 14t25.5 27.5t5.5 45.5v20h-233v79h363v-100q0 -56 -13.5 -93t-49.5 -59t-98.5 -30.5t-160.5 -8.5h-25zM472 600h-138v119h138v-119z" />
    <glyph glyph-name="gbreve.sc" unicode="&#xe03c;" horiz-adv-x="807" 
d="M403 -8q-111 0 -179 10.5t-105 40t-49.5 81t-12.5 133.5v15q0 83 12.5 134.5t50 80.5t105 39t178.5 10h24q99 0 160.5 -8.5t96 -27.5t47 -50.5t12.5 -76.5v-19h-136v9q0 21 -6 35t-25 22.5t-55.5 12t-97.5 3.5h-16q-72 0 -114.5 -4.5t-64.5 -21.5t-28 -50t-6 -90v-10
q0 -56 6 -89.5t28 -50.5t64.5 -22t114.5 -5h16q68 0 107 4t59 14t25.5 27.5t5.5 45.5v20h-233v79h363v-100q0 -56 -13.5 -93t-49.5 -59t-98.5 -30.5t-160.5 -8.5h-25zM579 717q-2 -33 -16 -57t-37.5 -40.5t-55 -24.5t-66.5 -8t-66 8t-55 24.5t-38.5 40.5t-15.5 57h69
q8 -35 37 -47.5t69 -12.5q42 0 70 12t36 48h69z" />
    <glyph glyph-name="gcommaaccent.sc" unicode="&#xe03d;" horiz-adv-x="807" 
d="M403 -8q-111 0 -179 10.5t-105 40t-49.5 81t-12.5 133.5v15q0 83 12.5 134.5t50 80.5t105 39t178.5 10h24q99 0 160.5 -8.5t96 -27.5t47 -50.5t12.5 -76.5v-19h-136v9q0 21 -6 35t-25 22.5t-55.5 12t-97.5 3.5h-16q-72 0 -114.5 -4.5t-64.5 -21.5t-28 -50t-6 -90v-10
q0 -56 6 -89.5t28 -50.5t64.5 -22t114.5 -5h16q68 0 107 4t59 14t25.5 27.5t5.5 45.5v20h-233v79h363v-100q0 -56 -13.5 -93t-49.5 -59t-98.5 -30.5t-160.5 -8.5h-25zM471 -139q0 -27 -5 -46t-20 -31t-41.5 -18t-69.5 -7v49q19 1 29.5 3.5t15.5 8t6 14t1 20.5v6h-35v91h119
v-90z" />
    <glyph glyph-name="hcircumflex.sc" unicode="&#xe03e;" horiz-adv-x="819" 
d="M746 0h-138v220h-397v-220h-138v528h138v-203h397v203h138v-528zM538 585l-129 73l-129 -73l-38 46l167 117l167 -117z" />
    <glyph glyph-name="hbar.sc" unicode="&#xe03f;" horiz-adv-x="819" 
d="M746 0h-138v220h-397v-220h-138v389h-42v66h42v73h138v-73h397v73h138v-73h42v-66h-42v-389zM608 325v64h-397v-64h397z" />
    <glyph glyph-name="igrave.sc" unicode="&#xe040;" horiz-adv-x="284" 
d="M211 0h-138v528h138v-528zM166 572l-212 102l54 80l189 -138z" />
    <glyph glyph-name="iacute.sc" unicode="&#xe041;" horiz-adv-x="284" 
d="M211 0h-138v528h138v-528zM110 572l-31 44l190 138l53 -80z" />
    <glyph glyph-name="icircumflex.sc" unicode="&#xe042;" horiz-adv-x="284" 
d="M211 0h-138v528h138v-528zM272 585l-129 73l-129 -73l-38 46l167 117l167 -117z" />
    <glyph glyph-name="itilde.sc" unicode="&#xe043;" horiz-adv-x="284" 
d="M211 0h-138v528h138v-528zM308 707q-7 -54 -31 -83t-69 -29q-18 0 -35 6.5t-37 17.5q-20 13 -35 18.5t-27 5.5q-16 0 -28.5 -10.5t-19.5 -36.5l-48 15q5 49 31 79.5t67 30.5q32 0 72 -24q22 -14 37.5 -19.5t26.5 -5.5q20 0 30 13.5t14 35.5z" />
    <glyph glyph-name="idieresis.sc" unicode="&#xe044;" horiz-adv-x="284" 
d="M211 0h-138v528h138v-528zM86 600h-118v119h118v-119zM318 600h-118v119h118v-119z" />
    <glyph glyph-name="imacron.sc" unicode="&#xe045;" horiz-adv-x="284" 
d="M211 0h-138v528h138v-528zM297 626h-308v72h308v-72z" />
    <glyph glyph-name="idotaccent.sc" unicode="&#xe046;" horiz-adv-x="284" 
d="M211 0h-138v528h138v-528zM212 600h-138v119h138v-119z" />
    <glyph glyph-name="iogonek.sc" unicode="&#xe047;" horiz-adv-x="284" 
d="M230 -186q-25 -7 -49.5 -10.5t-53.5 -3.5q-46 0 -74 15t-28 58q0 39 21.5 67.5t65.5 59.5h-39v528h138v-528h-28q-42 -33 -56 -58.5t-14 -42.5q0 -19 11.5 -26.5t39.5 -7.5q17 0 31.5 1t34.5 5v-57z" />
    <glyph glyph-name="jcircumflex.sc" unicode="&#xe048;" horiz-adv-x="646" 
d="M288 -7q-82 0 -132 7t-77.5 26.5t-36.5 54t-9 89.5v40h132v-19q0 -32 4 -50t17 -28t37.5 -12.5t66.5 -2.5h17q44 0 70 3t40 13.5t18 31t4 56.5v326h138v-333q0 -65 -10 -104.5t-39 -61.5t-80.5 -29t-135.5 -7h-24zM633 585l-129 73l-129 -73l-38 46l167 117l167 -117z
" />
    <glyph glyph-name="kcommaaccent.sc" unicode="&#xe049;" horiz-adv-x="764" 
d="M764 0h-192l-292 218h-69v-218h-138v528h138v-207h74l270 207h177l-334 -256zM431 -139q0 -27 -5 -46t-20 -31t-41.5 -18t-69.5 -7v49q19 1 29.5 3.5t15.5 8t6 14t1 20.5v6h-35v91h119v-90z" />
    <glyph glyph-name="lacute.sc" unicode="&#xe04a;" horiz-adv-x="609" 
d="M597 0h-524v528h138v-423h386v-105zM191 572l-31 44l190 138l53 -80z" />
    <glyph glyph-name="lcaron.sc" unicode="&#xe04b;" horiz-adv-x="609" 
d="M597 0h-524v528h138v-423h386v-105zM401 453q0 -69 -26 -100.5t-94 -32.5v58q23 2 30.5 12t7.5 41v7h-36v91h118v-76z" />
    <glyph glyph-name="lcommaaccent.sc" unicode="&#xe04c;" horiz-adv-x="609" 
d="M597 0h-524v528h138v-423h386v-105zM387 -139q0 -27 -5 -46t-20 -31t-41.5 -18t-69.5 -7v49q19 1 29.5 3.5t15.5 8t6 14t1 20.5v6h-35v91h119v-90z" />
    <glyph glyph-name="ldot.sc" unicode="&#xe04d;" horiz-adv-x="609" 
d="M597 0h-524v528h138v-423h386v-105zM531 250h-148v155h148v-155z" />
    <glyph glyph-name="lslash.sc" unicode="&#xe04e;" horiz-adv-x="609" 
d="M597 0h-524v220l-57 -21v73l57 21v235h138v-191l182 67v-72l-182 -68v-159h386v-105z" />
    <glyph glyph-name="nacute.sc" unicode="&#xe04f;" horiz-adv-x="846" 
d="M773 0h-191l-373 417h-2v-417h-134v528h197l367 -415h2v415h134v-528zM335 572l-31 44l190 138l53 -80z" />
    <glyph glyph-name="ncaron.sc" unicode="&#xe050;" horiz-adv-x="846" 
d="M773 0h-191l-373 417h-2v-417h-134v528h197l367 -415h2v415h134v-528zM427 567l-167 118l38 45l129 -73l129 73l38 -45z" />
    <glyph glyph-name="ntilde.sc" unicode="&#xe051;" horiz-adv-x="846" 
d="M773 0h-191l-373 417h-2v-417h-134v528h197l367 -415h2v415h134v-528zM593 707q-7 -54 -31 -83t-69 -29q-18 0 -35 6.5t-37 17.5q-20 13 -35 18.5t-27 5.5q-16 0 -28.5 -10.5t-19.5 -36.5l-48 15q5 49 31 79.5t67 30.5q32 0 72 -24q22 -14 37.5 -19.5t26.5 -5.5
q20 0 30 13.5t14 35.5z" />
    <glyph glyph-name="ncommaaccent.sc" unicode="&#xe052;" horiz-adv-x="846" 
d="M773 0h-191l-373 417h-2v-417h-134v528h197l367 -415h2v415h134v-528zM487 -139q0 -27 -5 -46t-20 -31t-41.5 -18t-69.5 -7v49q19 1 29.5 3.5t15.5 8t6 14t1 20.5v6h-35v91h119v-90z" />
    <glyph glyph-name="ograve.sc" unicode="&#xe054;" horiz-adv-x="839" 
d="M408 -8q-112 0 -181 10t-106.5 38.5t-50.5 80.5t-13 135v16q0 83 13 135t50.5 80.5t106.5 38.5t181 10h24q112 0 181 -10t106.5 -38.5t50 -80.5t12.5 -135v-16q0 -83 -12.5 -135t-50 -80.5t-106.5 -38.5t-181 -10h-24zM428 97q74 0 117 4.5t64.5 21.5t27.5 49t6 88v10
q0 55 -6 87.5t-27.5 49.5t-64.5 21.5t-117 4.5h-16q-74 0 -117 -4.5t-64.5 -21.5t-27.5 -49.5t-6 -87.5v-10q0 -56 6 -88t27.5 -49t64.5 -21.5t117 -4.5h16zM515 572l-212 102l54 80l189 -138z" />
    <glyph glyph-name="oacute.sc" unicode="&#xe055;" horiz-adv-x="839" 
d="M408 -8q-112 0 -181 10t-106.5 38.5t-50.5 80.5t-13 135v16q0 83 13 135t50.5 80.5t106.5 38.5t181 10h24q112 0 181 -10t106.5 -38.5t50 -80.5t12.5 -135v-16q0 -83 -12.5 -135t-50 -80.5t-106.5 -38.5t-181 -10h-24zM428 97q74 0 117 4.5t64.5 21.5t27.5 49t6 88v10
q0 55 -6 87.5t-27.5 49.5t-64.5 21.5t-117 4.5h-16q-74 0 -117 -4.5t-64.5 -21.5t-27.5 -49.5t-6 -87.5v-10q0 -56 6 -88t27.5 -49t64.5 -21.5t117 -4.5h16zM329 572l-31 44l190 138l53 -80z" />
    <glyph glyph-name="ocircumflex.sc" unicode="&#xe056;" horiz-adv-x="839" 
d="M408 -8q-112 0 -181 10t-106.5 38.5t-50.5 80.5t-13 135v16q0 83 13 135t50.5 80.5t106.5 38.5t181 10h24q112 0 181 -10t106.5 -38.5t50 -80.5t12.5 -135v-16q0 -83 -12.5 -135t-50 -80.5t-106.5 -38.5t-181 -10h-24zM428 97q74 0 117 4.5t64.5 21.5t27.5 49t6 88v10
q0 55 -6 87.5t-27.5 49.5t-64.5 21.5t-117 4.5h-16q-74 0 -117 -4.5t-64.5 -21.5t-27.5 -49.5t-6 -87.5v-10q0 -56 6 -88t27.5 -49t64.5 -21.5t117 -4.5h16zM548 585l-129 73l-129 -73l-38 46l167 117l167 -117z" />
    <glyph glyph-name="otilde.sc" unicode="&#xe057;" horiz-adv-x="839" 
d="M408 -8q-112 0 -181 10t-106.5 38.5t-50.5 80.5t-13 135v16q0 83 13 135t50.5 80.5t106.5 38.5t181 10h24q112 0 181 -10t106.5 -38.5t50 -80.5t12.5 -135v-16q0 -83 -12.5 -135t-50 -80.5t-106.5 -38.5t-181 -10h-24zM428 97q74 0 117 4.5t64.5 21.5t27.5 49t6 88v10
q0 55 -6 87.5t-27.5 49.5t-64.5 21.5t-117 4.5h-16q-74 0 -117 -4.5t-64.5 -21.5t-27.5 -49.5t-6 -87.5v-10q0 -56 6 -88t27.5 -49t64.5 -21.5t117 -4.5h16zM584 707q-7 -54 -31 -83t-69 -29q-18 0 -35 6.5t-37 17.5q-20 13 -35 18.5t-27 5.5q-16 0 -28.5 -10.5t-19.5 -36.5
l-48 15q5 49 31 79.5t67 30.5q32 0 72 -24q22 -14 37.5 -19.5t26.5 -5.5q20 0 30 13.5t14 35.5z" />
    <glyph glyph-name="odieresis.sc" unicode="&#xe058;" horiz-adv-x="839" 
d="M408 -8q-112 0 -181 10t-106.5 38.5t-50.5 80.5t-13 135v16q0 83 13 135t50.5 80.5t106.5 38.5t181 10h24q112 0 181 -10t106.5 -38.5t50 -80.5t12.5 -135v-16q0 -83 -12.5 -135t-50 -80.5t-106.5 -38.5t-181 -10h-24zM428 97q74 0 117 4.5t64.5 21.5t27.5 49t6 88v10
q0 55 -6 87.5t-27.5 49.5t-64.5 21.5t-117 4.5h-16q-74 0 -117 -4.5t-64.5 -21.5t-27.5 -49.5t-6 -87.5v-10q0 -56 6 -88t27.5 -49t64.5 -21.5t117 -4.5h16zM364 600h-118v119h118v-119zM596 600h-118v119h118v-119z" />
    <glyph glyph-name="omacron.sc" unicode="&#xe059;" horiz-adv-x="839" 
d="M408 -8q-112 0 -181 10t-106.5 38.5t-50.5 80.5t-13 135v16q0 83 13 135t50.5 80.5t106.5 38.5t181 10h24q112 0 181 -10t106.5 -38.5t50 -80.5t12.5 -135v-16q0 -83 -12.5 -135t-50 -80.5t-106.5 -38.5t-181 -10h-24zM428 97q74 0 117 4.5t64.5 21.5t27.5 49t6 88v10
q0 55 -6 87.5t-27.5 49.5t-64.5 21.5t-117 4.5h-16q-74 0 -117 -4.5t-64.5 -21.5t-27.5 -49.5t-6 -87.5v-10q0 -56 6 -88t27.5 -49t64.5 -21.5t117 -4.5h16zM573 626h-308v72h308v-72z" />
    <glyph glyph-name="obreve.sc" unicode="&#xe05a;" horiz-adv-x="839" 
d="M408 -8q-112 0 -181 10t-106.5 38.5t-50.5 80.5t-13 135v16q0 83 13 135t50.5 80.5t106.5 38.5t181 10h24q112 0 181 -10t106.5 -38.5t50 -80.5t12.5 -135v-16q0 -83 -12.5 -135t-50 -80.5t-106.5 -38.5t-181 -10h-24zM428 97q74 0 117 4.5t64.5 21.5t27.5 49t6 88v10
q0 55 -6 87.5t-27.5 49.5t-64.5 21.5t-117 4.5h-16q-74 0 -117 -4.5t-64.5 -21.5t-27.5 -49.5t-6 -87.5v-10q0 -56 6 -88t27.5 -49t64.5 -21.5t117 -4.5h16zM594 717q-2 -33 -16 -57t-37.5 -40.5t-55 -24.5t-66.5 -8t-66 8t-55 24.5t-38.5 40.5t-15.5 57h69q8 -35 37 -47.5
t69 -12.5q42 0 70 12t36 48h69z" />
    <glyph glyph-name="ohungarumlaut.sc" unicode="&#xe05b;" horiz-adv-x="839" 
d="M408 -8q-112 0 -181 10t-106.5 38.5t-50.5 80.5t-13 135v16q0 83 13 135t50.5 80.5t106.5 38.5t181 10h24q112 0 181 -10t106.5 -38.5t50 -80.5t12.5 -135v-16q0 -83 -12.5 -135t-50 -80.5t-106.5 -38.5t-181 -10h-24zM428 97q74 0 117 4.5t64.5 21.5t27.5 49t6 88v10
q0 55 -6 87.5t-27.5 49.5t-64.5 21.5t-117 4.5h-16q-74 0 -117 -4.5t-64.5 -21.5t-27.5 -49.5t-6 -87.5v-10q0 -56 6 -88t27.5 -49t64.5 -21.5t117 -4.5h16zM302 574l-36 41l161 130l55 -59zM495 574l-36 41l168 130l55 -59z" />
    <glyph glyph-name="oslash.sc" unicode="&#xe05c;" horiz-adv-x="839" 
d="M28 43l57 39q-17 30 -22.5 72.5t-5.5 101.5v16q0 83 13 135t50.5 80.5t106.5 38.5t181 10h24q104 0 170.5 -8.5t104.5 -32.5l61 42l39 -57l-52 -36q16 -29 21.5 -71.5t5.5 -100.5v-16q0 -83 -12.5 -135t-50 -80.5t-106.5 -38.5t-181 -10h-24q-104 0 -170 8.5t-105 31.5
l-66 -45zM412 436q-74 0 -117.5 -5t-66 -22.5t-29 -50.5t-6.5 -88v-10q0 -32 1.5 -55.5t6.5 -41.5l395 255q-25 11 -65 14.5t-103 3.5h-16zM428 95q74 0 117.5 5t66.5 22t29.5 49.5t6.5 88.5v10q0 30 -2 53.5t-7 40.5l-392 -253q24 -11 64 -13.5t101 -2.5h16z" />
    <glyph glyph-name="oe.sc" unicode="&#xe05d;" horiz-adv-x="1256" 
d="M1222 0h-579v46h-1q-25 -29 -73 -41.5t-137 -12.5h-24q-112 0 -181 10t-106.5 38.5t-50.5 80.5t-13 136v15q0 85 13 136.5t51 80t106.5 38t180.5 9.5h24q48 0 82.5 -3t59 -10t41 -17t27.5 -24h1v46h572v-96h-438v-118h417v-90h-417v-128h445v-96zM643 274q0 54 -6.5 85.5
t-28.5 48t-64.5 21t-115.5 4.5h-16q-74 0 -117 -4.5t-64.5 -21.5t-27.5 -49.5t-6 -87.5v-10q0 -55 6 -87t27.5 -49t64.5 -22t117 -5h16q70 0 112 4.5t65 19t30.5 42.5t7.5 75v36z" />
    <glyph glyph-name="racute.sc" unicode="&#xe05e;" horiz-adv-x="777" 
d="M450 266q40 0 64.5 3.5t38 12t18 23.5t4.5 38v12q0 24 -4.5 39.5t-18 23.5t-40 11t-69.5 3h-232v-166h239zM713 0h-136v55q0 38 -5 61t-21.5 35t-48 16t-85.5 4h-206v-171h-138v528h415q68 0 112 -7t69 -25t34.5 -48t9.5 -75v-19q0 -59 -20.5 -88.5t-62.5 -43.5v-1
q25 -5 41 -13.5t25.5 -23t13 -37.5t3.5 -56v-91zM308 572l-31 44l190 138l53 -80z" />
    <glyph glyph-name="rcommaaccent.sc" unicode="&#xe05f;" horiz-adv-x="777" 
d="M450 266q40 0 64.5 3.5t38 12t18 23.5t4.5 38v12q0 24 -4.5 39.5t-18 23.5t-40 11t-69.5 3h-232v-166h239zM713 0h-136v55q0 38 -5 61t-21.5 35t-48 16t-85.5 4h-206v-171h-138v528h415q68 0 112 -7t69 -25t34.5 -48t9.5 -75v-19q0 -59 -20.5 -88.5t-62.5 -43.5v-1
q25 -5 41 -13.5t25.5 -23t13 -37.5t3.5 -56v-91zM457 -139q0 -27 -5 -46t-20 -31t-41.5 -18t-69.5 -7v49q19 1 29.5 3.5t15.5 8t6 14t1 20.5v6h-35v91h119v-90z" />
    <glyph glyph-name="rcaron.sc" unicode="&#xe060;" horiz-adv-x="777" 
d="M450 266q40 0 64.5 3.5t38 12t18 23.5t4.5 38v12q0 24 -4.5 39.5t-18 23.5t-40 11t-69.5 3h-232v-166h239zM713 0h-136v55q0 38 -5 61t-21.5 35t-48 16t-85.5 4h-206v-171h-138v528h415q68 0 112 -7t69 -25t34.5 -48t9.5 -75v-19q0 -59 -20.5 -88.5t-62.5 -43.5v-1
q25 -5 41 -13.5t25.5 -23t13 -37.5t3.5 -56v-91zM390 567l-167 118l38 45l129 -73l129 73l38 -45z" />
    <glyph glyph-name="sacute.sc" unicode="&#xe061;" horiz-adv-x="763" 
d="M379 -7q-107 0 -170 6t-96 23.5t-43 48t-10 79.5v17h138v-12q0 -21 5.5 -34t23.5 -20t52 -9t91 -2h23q63 0 99.5 2.5t54.5 9.5t23 19t5 31v7q0 18 -5 30t-24 19t-57 9.5t-103 2.5q-108 0 -171 7t-95.5 25t-41.5 48t-9 77v12q0 42 11 70.5t42 45.5t86.5 24t144.5 7h28
q102 0 163 -6.5t94 -23.5t43 -47t10 -77v-14h-134v10q0 20 -5 32.5t-21.5 19.5t-48 9.5t-84.5 2.5h-21q-59 0 -94 -2.5t-53 -8.5t-23 -17t-5 -29v-8q0 -18 4.5 -29t23.5 -17.5t58.5 -9t108.5 -2.5q101 0 162.5 -7t94.5 -25t43.5 -48t10.5 -76v-12q0 -45 -11 -75.5t-43 -49
t-92 -26t-157 -7.5h-26zM300 572l-31 44l190 138l53 -80z" />
    <glyph glyph-name="scircumflex.sc" unicode="&#xe062;" horiz-adv-x="763" 
d="M379 -7q-107 0 -170 6t-96 23.5t-43 48t-10 79.5v17h138v-12q0 -21 5.5 -34t23.5 -20t52 -9t91 -2h23q63 0 99.5 2.5t54.5 9.5t23 19t5 31v7q0 18 -5 30t-24 19t-57 9.5t-103 2.5q-108 0 -171 7t-95.5 25t-41.5 48t-9 77v12q0 42 11 70.5t42 45.5t86.5 24t144.5 7h28
q102 0 163 -6.5t94 -23.5t43 -47t10 -77v-14h-134v10q0 20 -5 32.5t-21.5 19.5t-48 9.5t-84.5 2.5h-21q-59 0 -94 -2.5t-53 -8.5t-23 -17t-5 -29v-8q0 -18 4.5 -29t23.5 -17.5t58.5 -9t108.5 -2.5q101 0 162.5 -7t94.5 -25t43.5 -48t10.5 -76v-12q0 -45 -11 -75.5t-43 -49
t-92 -26t-157 -7.5h-26zM515 585l-129 73l-129 -73l-38 46l167 117l167 -117z" />
    <glyph glyph-name="scaron.sc" unicode="&#xe063;" horiz-adv-x="763" 
d="M379 -7q-107 0 -170 6t-96 23.5t-43 48t-10 79.5v17h138v-12q0 -21 5.5 -34t23.5 -20t52 -9t91 -2h23q63 0 99.5 2.5t54.5 9.5t23 19t5 31v7q0 18 -5 30t-24 19t-57 9.5t-103 2.5q-108 0 -171 7t-95.5 25t-41.5 48t-9 77v12q0 42 11 70.5t42 45.5t86.5 24t144.5 7h28
q102 0 163 -6.5t94 -23.5t43 -47t10 -77v-14h-134v10q0 20 -5 32.5t-21.5 19.5t-48 9.5t-84.5 2.5h-21q-59 0 -94 -2.5t-53 -8.5t-23 -17t-5 -29v-8q0 -18 4.5 -29t23.5 -17.5t58.5 -9t108.5 -2.5q101 0 162.5 -7t94.5 -25t43.5 -48t10.5 -76v-12q0 -45 -11 -75.5t-43 -49
t-92 -26t-157 -7.5h-26zM386 567l-167 118l38 45l129 -73l129 73l38 -45z" />
    <glyph glyph-name="scedilla.sc" unicode="&#xe064;" horiz-adv-x="763" 
d="M379 -7q-107 0 -170 6t-96 23.5t-43 48t-10 79.5v17h138v-12q0 -21 5.5 -34t23.5 -20t52 -9t91 -2h23q63 0 99.5 2.5t54.5 9.5t23 19t5 31v7q0 18 -5 30t-24 19t-57 9.5t-103 2.5q-108 0 -171 7t-95.5 25t-41.5 48t-9 77v12q0 42 11 70.5t42 45.5t86.5 24t144.5 7h28
q102 0 163 -6.5t94 -23.5t43 -47t10 -77v-14h-134v10q0 20 -5 32.5t-21.5 19.5t-48 9.5t-84.5 2.5h-21q-59 0 -94 -2.5t-53 -8.5t-23 -17t-5 -29v-8q0 -18 4.5 -29t23.5 -17.5t58.5 -9t108.5 -2.5q101 0 162.5 -7t94.5 -25t43.5 -48t10.5 -76v-12q0 -45 -11 -75.5t-43 -49
t-92 -26t-157 -7.5h-26zM267 -187l-35 41l189 137l62 -73z" />
    <glyph glyph-name="scommaaccent.sc" unicode="&#xe065;" horiz-adv-x="763" 
d="M379 -7q-107 0 -170 6t-96 23.5t-43 48t-10 79.5v17h138v-12q0 -21 5.5 -34t23.5 -20t52 -9t91 -2h23q63 0 99.5 2.5t54.5 9.5t23 19t5 31v7q0 18 -5 30t-24 19t-57 9.5t-103 2.5q-108 0 -171 7t-95.5 25t-41.5 48t-9 77v12q0 42 11 70.5t42 45.5t86.5 24t144.5 7h28
q102 0 163 -6.5t94 -23.5t43 -47t10 -77v-14h-134v10q0 20 -5 32.5t-21.5 19.5t-48 9.5t-84.5 2.5h-21q-59 0 -94 -2.5t-53 -8.5t-23 -17t-5 -29v-8q0 -18 4.5 -29t23.5 -17.5t58.5 -9t108.5 -2.5q101 0 162.5 -7t94.5 -25t43.5 -48t10.5 -76v-12q0 -45 -11 -75.5t-43 -49
t-92 -26t-157 -7.5h-26zM462 -139q0 -27 -5 -46t-20 -31t-41.5 -18t-69.5 -7v49q19 1 29.5 3.5t15.5 8t6 14t1 20.5v6h-35v91h119v-90z" />
    <glyph glyph-name="germandbls.sc" unicode="&#xe066;" horiz-adv-x="1526" 
d="M379 -7q-107 0 -170 6t-96 23.5t-43 48t-10 79.5v17h138v-12q0 -21 5.5 -34t23.5 -20t52 -9t91 -2h23q63 0 99.5 2.5t54.5 9.5t23 19t5 31v7q0 18 -5 30t-24 19t-57 9.5t-103 2.5q-108 0 -171 7t-95.5 25t-41.5 48t-9 77v12q0 42 11 70.5t42 45.5t86.5 24t144.5 7h28
q102 0 163 -6.5t94 -23.5t43 -47t10 -77v-14h-134v10q0 20 -5 32.5t-21.5 19.5t-48 9.5t-84.5 2.5h-21q-59 0 -94 -2.5t-53 -8.5t-23 -17t-5 -29v-8q0 -18 4.5 -29t23.5 -17.5t58.5 -9t108.5 -2.5q101 0 162.5 -7t94.5 -25t43.5 -48t10.5 -76v-12q0 -45 -11 -75.5t-43 -49
t-92 -26t-157 -7.5h-26zM1142 -7q-107 0 -170 6t-96 23.5t-43 48t-10 79.5v17h138v-12q0 -21 5.5 -34t23.5 -20t52 -9t91 -2h23q63 0 99.5 2.5t54.5 9.5t23 19t5 31v7q0 18 -5 30t-24 19t-57 9.5t-103 2.5q-108 0 -171 7t-95.5 25t-41.5 48t-9 77v12q0 42 11 70.5t42 45.5
t86.5 24t144.5 7h28q102 0 163 -6.5t94 -23.5t43 -47t10 -77v-14h-134v10q0 20 -5 32.5t-21.5 19.5t-48 9.5t-84.5 2.5h-21q-59 0 -94 -2.5t-53 -8.5t-23 -17t-5 -29v-8q0 -18 4.5 -29t23.5 -17.5t58.5 -9t108.5 -2.5q101 0 162.5 -7t94.5 -25t43.5 -48t10.5 -76v-12
q0 -45 -11 -75.5t-43 -49t-92 -26t-157 -7.5h-26z" />
    <glyph glyph-name="tcaron.sc" unicode="&#xe067;" horiz-adv-x="657" 
d="M397 0h-137v425h-248v103h633v-103h-248v-425zM328 567l-167 118l38 45l129 -73l129 73l38 -45z" />
    <glyph glyph-name="tcommaaccent.sc" unicode="&#xe068;" horiz-adv-x="657" 
d="M397 0h-137v425h-248v103h633v-103h-248v-425zM388 -139q0 -27 -5 -46t-20 -31t-41.5 -18t-69.5 -7v49q19 1 29.5 3.5t15.5 8t6 14t1 20.5v6h-35v91h119v-90z" />
    <glyph glyph-name="tbar.sc" unicode="&#xe069;" horiz-adv-x="657" 
d="M397 0h-137v264h-184v70h184v91h-248v103h633v-103h-248v-91h184v-70h-184v-264z" />
    <glyph glyph-name="thorn.sc" unicode="&#xe06a;" horiz-adv-x="755" 
d="M211 0h-138v528h138v-72h230q82 0 133.5 -6.5t81 -25.5t40 -53.5t10.5 -90.5v-12q0 -55 -10.5 -90t-39.5 -54.5t-80.5 -26.5t-134.5 -7h-230v-90zM419 187q52 0 82.5 3t46 12t19.5 25t4 43v8q0 27 -4.5 43t-20 25t-46 11.5t-81.5 2.5h-208v-173h208z" />
    <glyph glyph-name="ugrave.sc" unicode="&#xe06b;" horiz-adv-x="809" 
d="M396 -8q-100 0 -163.5 8.5t-99.5 30.5t-49.5 60.5t-13.5 97.5v339h138v-305q0 -39 5.5 -63t25 -37.5t57 -18.5t100.5 -5h18q63 0 100.5 5t57 18.5t25 37.5t5.5 63v305h137v-339q0 -59 -13 -97.5t-48.5 -60.5t-99 -30.5t-165.5 -8.5h-17zM498 572l-212 102l54 80l189 -138
z" />
    <glyph glyph-name="uacute.sc" unicode="&#xe06c;" horiz-adv-x="809" 
d="M396 -8q-100 0 -163.5 8.5t-99.5 30.5t-49.5 60.5t-13.5 97.5v339h138v-305q0 -39 5.5 -63t25 -37.5t57 -18.5t100.5 -5h18q63 0 100.5 5t57 18.5t25 37.5t5.5 63v305h137v-339q0 -59 -13 -97.5t-48.5 -60.5t-99 -30.5t-165.5 -8.5h-17zM321 572l-31 44l190 138l53 -80z
" />
    <glyph glyph-name="ucircumflex.sc" unicode="&#xe06d;" horiz-adv-x="809" 
d="M396 -8q-100 0 -163.5 8.5t-99.5 30.5t-49.5 60.5t-13.5 97.5v339h138v-305q0 -39 5.5 -63t25 -37.5t57 -18.5t100.5 -5h18q63 0 100.5 5t57 18.5t25 37.5t5.5 63v305h137v-339q0 -59 -13 -97.5t-48.5 -60.5t-99 -30.5t-165.5 -8.5h-17zM533 585l-129 73l-129 -73l-38 46
l167 117l167 -117z" />
    <glyph glyph-name="utilde.sc" unicode="&#xe06e;" horiz-adv-x="809" 
d="M396 -8q-100 0 -163.5 8.5t-99.5 30.5t-49.5 60.5t-13.5 97.5v339h138v-305q0 -39 5.5 -63t25 -37.5t57 -18.5t100.5 -5h18q63 0 100.5 5t57 18.5t25 37.5t5.5 63v305h137v-339q0 -59 -13 -97.5t-48.5 -60.5t-99 -30.5t-165.5 -8.5h-17zM569 707q-7 -54 -31 -83t-69 -29
q-18 0 -35 6.5t-37 17.5q-20 13 -35 18.5t-27 5.5q-16 0 -28.5 -10.5t-19.5 -36.5l-48 15q5 49 31 79.5t67 30.5q32 0 72 -24q22 -14 37.5 -19.5t26.5 -5.5q20 0 30 13.5t14 35.5z" />
    <glyph glyph-name="udieresis.sc" unicode="&#xe06f;" horiz-adv-x="809" 
d="M396 -8q-100 0 -163.5 8.5t-99.5 30.5t-49.5 60.5t-13.5 97.5v339h138v-305q0 -39 5.5 -63t25 -37.5t57 -18.5t100.5 -5h18q63 0 100.5 5t57 18.5t25 37.5t5.5 63v305h137v-339q0 -59 -13 -97.5t-48.5 -60.5t-99 -30.5t-165.5 -8.5h-17zM347 600h-118v119h118v-119z
M579 600h-118v119h118v-119z" />
    <glyph glyph-name="umacron.sc" unicode="&#xe070;" horiz-adv-x="809" 
d="M396 -8q-100 0 -163.5 8.5t-99.5 30.5t-49.5 60.5t-13.5 97.5v339h138v-305q0 -39 5.5 -63t25 -37.5t57 -18.5t100.5 -5h18q63 0 100.5 5t57 18.5t25 37.5t5.5 63v305h137v-339q0 -59 -13 -97.5t-48.5 -60.5t-99 -30.5t-165.5 -8.5h-17zM558 626h-308v72h308v-72z" />
    <glyph glyph-name="ubreve.sc" unicode="&#xe071;" horiz-adv-x="809" 
d="M396 -8q-100 0 -163.5 8.5t-99.5 30.5t-49.5 60.5t-13.5 97.5v339h138v-305q0 -39 5.5 -63t25 -37.5t57 -18.5t100.5 -5h18q63 0 100.5 5t57 18.5t25 37.5t5.5 63v305h137v-339q0 -59 -13 -97.5t-48.5 -60.5t-99 -30.5t-165.5 -8.5h-17zM579 717q-2 -33 -16 -57
t-37.5 -40.5t-55 -24.5t-66.5 -8t-66 8t-55 24.5t-38.5 40.5t-15.5 57h69q8 -35 37 -47.5t69 -12.5q42 0 70 12t36 48h69z" />
    <glyph glyph-name="uring.sc" unicode="&#xe072;" horiz-adv-x="809" 
d="M396 -8q-100 0 -163.5 8.5t-99.5 30.5t-49.5 60.5t-13.5 97.5v339h138v-305q0 -39 5.5 -63t25 -37.5t57 -18.5t100.5 -5h18q63 0 100.5 5t57 18.5t25 37.5t5.5 63v305h137v-339q0 -59 -13 -97.5t-48.5 -60.5t-99 -30.5t-165.5 -8.5h-17zM401 578q-38 0 -62.5 4.5t-39 14
t-20.5 25t-6 38.5v6q0 22 6 37.5t20.5 25t39 13.5t62.5 4h6q37 0 62 -4t39.5 -13.5t20.5 -25t6 -37.5v-6q0 -23 -6 -38.5t-20.5 -25t-39.5 -14t-62 -4.5h-6zM407 620q47 0 62.5 8.5t15.5 31.5v6q0 22 -15.5 29.5t-62.5 7.5h-6q-47 0 -62.5 -7.5t-15.5 -29.5v-6
q0 -23 15.5 -31.5t62.5 -8.5h6z" />
    <glyph glyph-name="uhungarumlaut.sc" unicode="&#xe073;" horiz-adv-x="809" 
d="M396 -8q-100 0 -163.5 8.5t-99.5 30.5t-49.5 60.5t-13.5 97.5v339h138v-305q0 -39 5.5 -63t25 -37.5t57 -18.5t100.5 -5h18q63 0 100.5 5t57 18.5t25 37.5t5.5 63v305h137v-339q0 -59 -13 -97.5t-48.5 -60.5t-99 -30.5t-165.5 -8.5h-17zM280 574l-36 41l161 130l55 -59z
M473 574l-36 41l168 130l55 -59z" />
    <glyph glyph-name="uogonek.sc" unicode="&#xe074;" horiz-adv-x="809" 
d="M516 -184q-26 -8 -54.5 -12t-57.5 -4q-54 0 -78.5 17.5t-24.5 55.5q0 40 23 66.5t68 52.5q-99 0 -162 9t-98.5 31t-48.5 60t-13 97v339h138v-305q0 -39 5.5 -63t25 -37.5t57 -18.5t100.5 -5h18q63 0 100.5 5t57 18.5t25 37.5t5.5 63v305h137v-339q0 -56 -11 -92.5
t-41.5 -59t-84 -32.5t-138.5 -12q-44 -32 -59.5 -53.5t-15.5 -40.5t12.5 -26.5t39.5 -7.5q34 0 75 7v-56z" />
    <glyph glyph-name="wcircumflex.sc" unicode="&#xe075;" horiz-adv-x="1035" 
d="M826 0h-154l-152 381h-3l-153 -381h-154l-202 528h140l145 -404h2l159 404h127l162 -404h2l143 404h139zM647 585l-129 73l-129 -73l-38 46l167 117l167 -117z" />
    <glyph glyph-name="yacute.sc" unicode="&#xe076;" horiz-adv-x="756" 
d="M447 0h-138v193l-305 335h164l212 -236h2l206 236h164l-305 -335v-193zM318 572l-31 44l190 138l53 -80z" />
    <glyph glyph-name="ycircumflex.sc" unicode="&#xe077;" horiz-adv-x="756" 
d="M447 0h-138v193l-305 335h164l212 -236h2l206 236h164l-305 -335v-193zM508 585l-129 73l-129 -73l-38 46l167 117l167 -117z" />
    <glyph glyph-name="ydieresis.sc" unicode="&#xe078;" horiz-adv-x="756" 
d="M447 0h-138v193l-305 335h164l212 -236h2l206 236h164l-305 -335v-193zM324 600h-118v119h118v-119zM556 600h-118v119h118v-119z" />
    <glyph glyph-name="zacute.sc" unicode="&#xe079;" horiz-adv-x="739" 
d="M691 0h-643v95l448 338v2h-434v93h622v-97l-451 -334v-1h458v-96zM289 572l-31 44l190 138l53 -80z" />
    <glyph glyph-name="zcaron.sc" unicode="&#xe07a;" horiz-adv-x="739" 
d="M691 0h-643v95l448 338v2h-434v93h622v-97l-451 -334v-1h458v-96zM373 567l-167 118l38 45l129 -73l129 73l38 -45z" />
    <glyph glyph-name="zdotaccent.sc" unicode="&#xe07b;" horiz-adv-x="739" 
d="M691 0h-643v95l448 338v2h-434v93h622v-97l-451 -334v-1h458v-96zM438 600h-138v119h138v-119z" />
    <glyph glyph-name="fi.sc" unicode="&#xe07c;" horiz-adv-x="960" 
d="M608 204h-398v-204h-137v528h553v-97h-416v-135h398v-92zM887 0h-138v528h138v-528z" />
    <glyph glyph-name="fl.sc" unicode="&#xe07d;" horiz-adv-x="1285" 
d="M608 204h-398v-204h-137v528h553v-97h-416v-135h398v-92zM1273 0h-524v528h138v-423h386v-105z" />
    <glyph glyph-name="ij.sc" unicode="&#xe07e;" horiz-adv-x="935" 
d="M211 0h-138v528h138v-528zM577 -7q-82 0 -132 7t-77.5 26.5t-36.5 54t-9 89.5v40h132v-19q0 -32 4 -50t17 -28t37.5 -12.5t66.5 -2.5h17q44 0 70 3t40 13.5t18 31t4 56.5v326h138v-333q0 -65 -10 -104.5t-39 -61.5t-80.5 -29t-135.5 -7h-24z" />
    <glyph glyph-name="exclamdown.sc" unicode="&#xe07f;" horiz-adv-x="311" 
d="M222 403h-134v125h134v-125zM223 0h-136l7 338h122z" />
    <glyph glyph-name="questiondown.sc" unicode="&#xe080;" horiz-adv-x="642" 
d="M290 528h134v-125h-134v125zM297 354h120v-12q0 -30 -4.5 -50t-18 -33.5t-38 -21.5t-64.5 -12q-41 -5 -65 -10t-36.5 -13t-16 -20.5t-3.5 -31.5v-8q0 -18 5.5 -30t20.5 -19t42.5 -10t72.5 -3h15q48 0 78 2.5t46.5 10.5t22.5 23.5t6 41.5v23h121v-23q0 -56 -12.5 -88.5
t-44 -50t-84.5 -22.5t-133 -5h-15q-78 0 -129 5.5t-80.5 21.5t-41 44t-11.5 73v14q0 39 7 65.5t24.5 44.5t48.5 28t79 16q31 3 48.5 7t26.5 8.5t11 11.5t2 16v7z" />
    <glyph glyph-name="Euro.sc" unicode="&#xe081;" horiz-adv-x="804" 
d="M433 -7q-95 0 -155 7t-95 29t-49.5 62.5t-17.5 107.5h-71v47h71v43h-71v47h71q3 67 18 107t50 60.5t95 26.5t154 6h22q91 0 147 -6t87 -22t41 -44t10 -72v-20h-134v9q0 17 -5 29t-21 19t-46.5 10t-82.5 3h-14q-56 0 -91 -3t-55 -13.5t-28.5 -31.5t-10.5 -58h338v-47h-340
v-43h340v-47h-339q2 -39 10 -61t28.5 -33t56 -14t91.5 -3h14q53 0 85 3t49 10t22.5 18.5t5.5 29.5v10h134v-21q0 -44 -11.5 -72t-44 -44.5t-89 -22.5t-146.5 -6h-23z" />
    <glyph glyph-name="cent.sc" unicode="&#xe082;" horiz-adv-x="641" 
d="M359 -24h-77v86q-69 1 -112 10t-67 30t-32.5 57.5t-8.5 92.5v10q0 55 8 90.5t31.5 56.5t66.5 30t114 10v79h77v-78q66 -1 108.5 -8t67 -23t33.5 -42t9 -64v-20h-120v10q0 18 -4 29.5t-14.5 18.5t-29.5 10t-50 3v-214q30 0 49 3.5t30.5 11.5t15.5 20.5t4 29.5v9h120v-26
q0 -38 -10 -63.5t-34.5 -41.5t-67 -23t-107.5 -8v-86zM182 252q0 -32 4 -51.5t14.5 -31t30 -15.5t51.5 -4v214q-32 0 -51.5 -4.5t-30.5 -15.5t-14.5 -31t-3.5 -51v-10z" />
    <glyph glyph-name="sterling.sc" unicode="&#xe083;" horiz-adv-x="760" 
d="M710 0h-646v94q23 3 38 10.5t24 21.5t13 35t5 51h-85v86h88v2q1 73 13 119.5t42 72t82.5 35t134.5 9.5h14q78 0 126.5 -6.5t76.5 -24t38 -47.5t10 -77v-17h-124v9q0 20 -5 33.5t-18.5 21.5t-38 11t-63.5 3h-15q-47 0 -76 -4.5t-45 -19t-21.5 -42.5t-5.5 -76v-2h250v-86
h-252q-2 -27 -6 -45.5t-11 -31.5t-18 -21.5t-26 -14.5v-2h501v-97z" />
    <glyph glyph-name="florin.sc" unicode="&#xe084;" horiz-adv-x="683" 
d="M367 88q-10 -42 -26 -72t-42.5 -48.5t-64 -27t-90.5 -8.5q-27 0 -57 2t-53 7v94q19 -3 44 -7t44 -4q28 0 47.5 4t33.5 13.5t23 26t15 41.5l27 116h-155v95h178l14 58q11 45 28 75.5t43 48.5t62.5 25.5t86.5 7.5q32 0 62 -3t57 -8v-95q-21 5 -50.5 9t-52.5 4
q-27 0 -45.5 -3t-31.5 -12t-21.5 -25.5t-14.5 -43.5l-9 -38h183v-95h-204z" />
    <glyph glyph-name="yen.sc" unicode="&#xe085;" horiz-adv-x="747" 
d="M440 0h-135v151h-234v60h234v6l-49 55h-185v59h132l-176 197h159l187 -230h1l185 230h161l-177 -197h131v-59h-183l-50 -55v-6h233v-60h-234v-151z" />
    <glyph glyph-name="perthousand.sc" unicode="&#xe087;" horiz-adv-x="1113" 
d="M183 273q-40 0 -66 5.5t-41 19.5t-20.5 38t-5.5 61v7q0 37 5.5 61t20.5 38t41 19.5t66 5.5h16q40 0 66 -5.5t41 -19.5t20.5 -38t5.5 -61v-7q0 -37 -5.5 -61t-20.5 -38t-41 -19.5t-66 -5.5h-16zM196 332q18 0 29.5 3t18.5 10.5t9.5 20.5t2.5 33v5q0 40 -12 53t-48 13h-10
q-36 0 -48 -13t-12 -53v-5q0 -20 2.5 -33t9.5 -20.5t18.5 -10.5t29.5 -3h10zM288 0h-80l281 528h80zM581 0q-40 0 -66 5.5t-41 19.5t-20.5 38t-5.5 61v7q0 37 5.5 61t20.5 38t41 19.5t66 5.5h16q40 0 66 -5.5t41 -19.5t20.5 -38t5.5 -61v-7q0 -37 -5.5 -61t-20.5 -38
t-41 -19.5t-66 -5.5h-16zM594 59q18 0 29.5 3t18.5 10.5t9.5 20.5t2.5 33v5q0 40 -12 53t-48 13h-10q-36 0 -48 -13t-12 -53v-5q0 -20 2.5 -33t9.5 -20.5t18.5 -10.5t29.5 -3h10zM915 0q-40 0 -66 5.5t-41 19.5t-20.5 38t-5.5 61v7q0 37 5.5 61t20.5 38t41 19.5t66 5.5h16
q40 0 66 -5.5t41 -19.5t20.5 -38t5.5 -61v-7q0 -37 -5.5 -61t-20.5 -38t-41 -19.5t-66 -5.5h-16zM928 59q18 0 29.5 3t18.5 10.5t9.5 20.5t2.5 33v5q0 40 -12 53t-48 13h-10q-36 0 -48 -13t-12 -53v-5q0 -20 2.5 -33t9.5 -20.5t18.5 -10.5t29.5 -3h10z" />
    <glyph glyph-name="braceleft.sc" unicode="&#xe0cf;" horiz-adv-x="417" 
d="M336 -8h-64q-35 0 -60.5 6t-42 20t-24.5 38.5t-8 61.5v35q0 39 -13 61t-51 22v61q38 0 51 22t13 62v29q0 36 7.5 60.5t24 39t42 20.5t61.5 6h64v-77h-22q-38 0 -50.5 -13t-12.5 -52v-10q0 -53 -13.5 -81.5t-60.5 -34.5v-2q47 -7 60.5 -35.5t13.5 -80.5v-16
q0 -39 12.5 -52t50.5 -13h22v-77z" />
    <glyph glyph-name="braceright.sc" unicode="&#xe0d0;" horiz-adv-x="418" 
d="M81 -8v77h23q38 0 50.5 13t12.5 52v16q0 26 2.5 46.5t10.5 34.5t22.5 23t38.5 12v2q-48 6 -61 34.5t-13 81.5v10q0 39 -12.5 52t-50.5 13h-23v77h64q36 0 61.5 -6t42 -20.5t24 -39t7.5 -60.5v-29q0 -40 13 -62t52 -22v-61q-39 0 -52 -22t-13 -61v-35q0 -37 -8 -61.5
t-24.5 -38.5t-42 -20t-60.5 -6h-64z" />
    <glyph glyph-name="bracketleft.sc" unicode="&#xe0d1;" horiz-adv-x="411" 
d="M330 -8h-226v544h226v-91h-111v-362h111v-91z" />
    <glyph glyph-name="bracketright.sc" unicode="&#xe0d2;" horiz-adv-x="412" 
d="M308 -8h-227v91h112v362h-112v91h227v-544z" />
    <glyph glyph-name="parenleft.sc" unicode="&#xe0d8;" horiz-adv-x="392" 
d="M311 -7h-24q-63 0 -103.5 8.5t-64 36t-33 79t-9.5 137.5v21q0 86 9.5 137.5t33 79t64 36t103.5 8.5h24v-93h-19q-29 0 -47.5 -5.5t-29.5 -23.5t-15 -51.5t-4 -89.5v-17q0 -56 4 -89.5t15 -51.5t29.5 -23.5t47.5 -5.5h19v-93z" />
    <glyph glyph-name="parenright.sc" unicode="&#xe0d9;" horiz-adv-x="392" 
d="M81 -7v93h19q29 0 47.5 5.5t29.5 23.5t15 51.5t4 89.5v17q0 56 -4 89.5t-15 51.5t-29.5 23.5t-47.5 5.5h-19v93h24q63 0 103.5 -8.5t64 -36t33 -79t9.5 -137.5v-21q0 -86 -9.5 -137.5t-33 -79t-64 -36t-103.5 -8.5h-24z" />
    <glyph glyph-name="quotedblleft.sc" unicode="&#xe0e1;" horiz-adv-x="495" 
d="M206 224h-133v143q0 40 5.5 69.5t21.5 49.5t45.5 30t76.5 12v-75q-20 -1 -31 -6.5t-16.5 -14.5t-7 -22t-1.5 -29v-9h40v-148zM419 224h-133v143q0 40 5.5 69.5t21.5 49.5t45.5 30t76.5 12v-75q-20 -1 -31 -6.5t-16.5 -14.5t-7 -22t-1.5 -29v-9h40v-148z" />
    <glyph glyph-name="quotedblright.sc" unicode="&#xe0e2;" horiz-adv-x="495" 
d="M209 385q0 -40 -5.5 -69.5t-21.5 -49.5t-45.5 -30.5t-76.5 -11.5v75q20 1 31 6.5t16.5 14.5t7 22t1.5 29v9h-40v148h133v-143zM422 385q0 -40 -5.5 -69.5t-21.5 -49.5t-45.5 -30.5t-76.5 -11.5v75q20 1 31 6.5t16.5 14.5t7 22t1.5 29v9h-40v148h133v-143z" />
    <glyph glyph-name="quoteleft.sc" unicode="&#xe0e3;" horiz-adv-x="282" 
d="M73 367q0 40 5.5 69.5t21.5 49.5t45.5 30t76.5 12v-75q-20 -1 -31 -6.5t-16.5 -14.5t-7 -22t-1.5 -29v-9h40v-148h-133v143z" />
    <glyph glyph-name="quoteright.sc" unicode="&#xe0e4;" horiz-adv-x="282" 
d="M209 385q0 -40 -5.5 -69.5t-21.5 -49.5t-45.5 -30.5t-76.5 -11.5v75q20 1 31 6.5t16.5 14.5t7 22t1.5 29v9h-40v148h133v-143z" />
    <glyph glyph-name="zero.sc" unicode="&#xe10a;" horiz-adv-x="766" 
d="M391 100q63 0 100 4.5t55.5 20.5t24 48t5.5 87v10q0 55 -5.5 87t-24 48.5t-55.5 21t-100 4.5h-16q-63 0 -100 -4.5t-55.5 -21t-24 -48.5t-5.5 -87v-10q0 -55 5.5 -87t24 -48t55.5 -20.5t100 -4.5h16zM372 -8q-103 0 -164 9t-93.5 37.5t-42.5 80t-10 137.5v15q0 86 10 138
t42.5 80.5t93.5 37.5t164 9h21q103 0 164.5 -9t94 -37.5t42.5 -80.5t10 -138v-15q0 -86 -10 -137.5t-42.5 -80t-94 -37.5t-164.5 -9h-21z" />
    <glyph glyph-name="one.sc" unicode="&#xe10b;" horiz-adv-x="504" 
d="M382 0h-128v419h-2l-181 -125l-56 84l219 151h148v-529z" />
    <glyph glyph-name="two.sc" unicode="&#xe10c;" horiz-adv-x="732" 
d="M680 0h-619v79q0 56 11 94t42.5 62t88.5 36t150 16q66 3 105 7t59.5 12.5t26.5 22.5t6 36v8q0 21 -5.5 34t-23.5 20.5t-52 10t-90 2.5h-15q-57 0 -91 -2.5t-52 -11t-23 -24.5t-5 -43v-15h-120v15q0 57 11.5 92t42.5 53.5t86.5 25t142.5 6.5h14q92 0 151.5 -7t93.5 -24
t47 -47t13 -75v-17q0 -44 -10.5 -74.5t-39 -51t-78.5 -31.5t-128 -15q-83 -4 -129 -7.5t-69 -12t-28 -22.5t-5 -39v-20h492v-93z" />
    <glyph glyph-name="three.sc" unicode="&#xe10d;" horiz-adv-x="740" 
d="M686 139q0 -45 -13 -74t-49 -45t-99 -22t-162 -6h-24q-90 0 -144.5 6.5t-84 24.5t-39.5 50t-10 83v21h123v-16q0 -23 5 -37t22 -21.5t48 -10t84 -2.5h17q67 0 106.5 2.5t59 9.5t25 19.5t5.5 33.5v10q0 19 -4.5 30.5t-16.5 18t-32.5 8.5t-51.5 2h-161v86h161q55 0 73.5 13
t18.5 45v11q0 19 -5 30.5t-23.5 18.5t-54.5 9.5t-98 2.5h-14q-52 0 -83.5 -2.5t-48 -9.5t-21.5 -21t-5 -36v-17h-122v20q0 51 10.5 82.5t40.5 49.5t84 24t141 6h21q98 0 158.5 -6.5t93.5 -22.5t44.5 -43t11.5 -68v-11q0 -51 -15.5 -76.5t-59.5 -37.5v-1q42 -9 65 -33t23 -81
v-17z" />
    <glyph glyph-name="four.sc" unicode="&#xe10e;" horiz-adv-x="758" 
d="M620 0h-128v112h-435v134l409 283h154v-323h87v-94h-87v-112zM492 206v217h-3l-317 -215v-2h320z" />
    <glyph glyph-name="five.sc" unicode="&#xe10f;" horiz-adv-x="743" 
d="M690 162q0 -51 -11 -84t-45.5 -52t-98 -26.5t-168.5 -7.5h-23q-90 0 -145 6.5t-84.5 23t-39 45.5t-9.5 73v26h124v-10q0 -20 5 -33t23.5 -20.5t54.5 -10.5t97 -3h17q60 0 94.5 2.5t52 11t22.5 24.5t5 42v10q0 26 -5 42t-22.5 24.5t-51.5 11.5t-93 3h-30q-45 0 -74.5 -1
t-47.5 -5t-27 -11t-13 -19h-120v304h591v-94h-471v-139h2q9 15 22 25.5t35.5 18t56 11t84.5 3.5h34q83 0 134 -7.5t78.5 -27t37 -52.5t9.5 -83v-21z" />
    <glyph glyph-name="six.sc" unicode="&#xe110;" horiz-adv-x="744" 
d="M364 -8q-101 0 -160.5 7t-91 32t-41 74t-9.5 132v31q0 90 11 143.5t44 81t94 35.5t162 8h23q90 0 145 -6t85.5 -22.5t40.5 -46t10 -77.5v-14h-123v8q0 20 -5 32.5t-21.5 19t-47 9t-81.5 2.5h-15q-66 0 -104 -3.5t-57.5 -16t-25 -38.5t-5.5 -71v-23h2q31 43 174 43h19
q101 0 161 -6t91 -23.5t40 -50t9 -85.5v-11q0 -50 -10.5 -81.5t-42.5 -50t-91.5 -25.5t-157.5 -7h-22zM384 89q61 0 96.5 2.5t53.5 10t22.5 21.5t4.5 38v8q0 25 -5 39t-23.5 21.5t-53.5 9.5t-95 2h-17q-59 0 -93.5 -2.5t-53.5 -9.5t-24.5 -19t-5.5 -31v-6q0 -29 4.5 -45.5
t22.5 -25t53 -11t97 -2.5h17z" />
    <glyph glyph-name="seven.sc" unicode="&#xe111;" horiz-adv-x="715" 
d="M290 0h-151l375 422v2h-469v104h624v-94z" />
    <glyph glyph-name="eight.sc" unicode="&#xe112;" horiz-adv-x="746" 
d="M363 -8q-102 0 -162.5 5.5t-92 21.5t-41 44t-9.5 73v8q0 29 4 50.5t14.5 36.5t28.5 24.5t45 14.5v1q-24 5 -40 13.5t-25.5 22.5t-14 34.5t-4.5 50.5v8q0 42 9 68.5t39.5 41.5t89.5 20.5t159 5.5h20q100 0 158.5 -5.5t89.5 -20.5t40 -41.5t9 -68.5v-8q0 -30 -4.5 -50.5
t-14 -34.5t-25.5 -22.5t-40 -13.5v-1q27 -5 44.5 -14.5t28 -24.5t15 -36.5t4.5 -50.5v-8q0 -45 -9.5 -73t-41 -44t-92 -21.5t-162.5 -5.5h-20zM379 317q59 0 93 1.5t51.5 8t22 18.5t4.5 33v5q0 19 -4.5 31t-21.5 18.5t-51 8.5t-94 2h-13q-59 0 -93 -2t-51 -8.5t-21.5 -18.5
t-4.5 -31v-5q0 -21 4.5 -33t21.5 -18.5t51 -8t93 -1.5h13zM379 87q63 0 99 2.5t54 9t22.5 19t4.5 32.5v11q0 21 -5.5 33.5t-24 19t-54 8.5t-96.5 2h-12q-61 0 -96.5 -2t-54 -8.5t-24 -19t-5.5 -33.5v-11q0 -20 4.5 -32.5t22.5 -19t54 -9t99 -2.5h12z" />
    <glyph glyph-name="nine.sc" unicode="&#xe113;" horiz-adv-x="746" 
d="M350 -8q-93 0 -149 6t-86.5 22.5t-40 46.5t-9.5 77v14h123v-8q0 -20 5.5 -32t22 -19t47.5 -9t83 -2h16q66 0 104 3.5t57.5 16t25 38.5t5.5 71v23h-2q-17 -23 -58 -33t-116 -10h-19q-102 0 -162 6t-90.5 24t-39 50t-8.5 84v11q0 49 10.5 81t42.5 50.5t91 25.5t157 7h23
q100 0 160 -6.5t91.5 -31.5t41 -74t9.5 -133v-31q0 -91 -11 -144.5t-44 -81t-94.5 -35t-163.5 -7.5h-22zM379 289q58 0 93 2.5t54 9t24.5 18.5t5.5 31v6q0 28 -4.5 45t-22.5 26t-53.5 11.5t-96.5 2.5h-16q-61 0 -96.5 -2.5t-53.5 -10t-22.5 -21.5t-4.5 -38v-8
q0 -24 4.5 -38.5t22.5 -22t53.5 -9.5t96.5 -2h16z" />
    <glyph glyph-name="zero.tab" unicode="&#xe114;" horiz-adv-x="904" 
d="M462 111q85 0 135 6t75 28.5t32 67t7 122.5v12q0 78 -7 122.5t-32 66.5t-75 27.5t-135 5.5h-19q-85 0 -134.5 -5.5t-75 -27.5t-32.5 -66.5t-7 -122.5v-12q0 -78 7 -122.5t32.5 -67t75 -28.5t134.5 -6h19zM440 -8q-84 0 -145.5 4.5t-104.5 18t-69.5 37t-41.5 61t-20.5 91
t-5.5 126.5v20q0 73 5.5 126.5t20.5 91t41.5 61t69.5 37t104.5 18t145.5 4.5h25q84 0 145.5 -4.5t104.5 -18t69.5 -37t41.5 -61t20.5 -91t5.5 -126.5v-20q0 -73 -5.5 -126.5t-20.5 -91t-41.5 -61t-69.5 -37t-104.5 -18t-145.5 -4.5h-25z" />
    <glyph glyph-name="one.tab" unicode="&#xe115;" horiz-adv-x="904" 
d="M596 0h-142v555h-3l-243 -177l-70 101l278 201h180v-680z" />
    <glyph glyph-name="two.tab" unicode="&#xe116;" horiz-adv-x="904" 
d="M840 0h-769q0 8 -0.5 23t-0.5 31v30.5v21.5q0 80 11.5 129t49.5 76.5t109.5 38t191.5 13.5q85 3 135.5 7.5t77 16t34 31.5t7.5 53v10q0 30 -7.5 48.5t-31 29.5t-67 15t-116.5 4h-18q-75 0 -118.5 -4t-66.5 -16t-29.5 -34.5t-6.5 -59.5v-14h-139v14q0 73 12 117.5t49 68
t105.5 31t182.5 7.5h18q115 0 188 -8t115 -29t57.5 -58t15.5 -95v-24q0 -69 -14 -110.5t-49.5 -65t-96.5 -32.5t-155 -12q-108 -4 -168 -8.5t-89.5 -16t-36 -33t-6.5 -57.5v-30h626v-109z" />
    <glyph glyph-name="three.tab" unicode="&#xe117;" horiz-adv-x="904" 
d="M842 175q0 -57 -15 -92.5t-58.5 -55.5t-121 -27.5t-203.5 -7.5h-29q-111 0 -179.5 7t-105.5 29t-49.5 63.5t-12.5 109.5v26h140v-23q0 -36 6.5 -56t28.5 -30.5t64 -13t113 -2.5h20q83 0 133.5 2.5t78 12t36.5 28t9 50.5v13q0 28 -7.5 44.5t-24 24.5t-44 10.5t-67.5 2.5
h-194v105h194q36 0 60.5 4t39 13t20.5 24.5t6 38.5v14q0 28 -8.5 45.5t-34 27t-72.5 13t-123 3.5h-16q-69 0 -110.5 -2.5t-63.5 -13t-29 -30.5t-7 -56v-19h-138v23q0 68 12.5 109t49.5 63t104.5 29t176.5 7h26q123 0 198 -8t115 -28t53 -54t13 -86v-16q0 -39 -5.5 -64.5
t-19.5 -42.5t-37 -27t-57 -16v-2q34 -5 59.5 -13t42 -24t25 -42t8.5 -67v-23z" />
    <glyph glyph-name="four.tab" unicode="&#xe118;" horiz-adv-x="904" 
d="M743 0h-142v146h-545v165l507 369h180v-425h109v-109h-109v-146zM601 255v305h-6l-410 -301v-4h416z" />
    <glyph glyph-name="five.tab" unicode="&#xe119;" horiz-adv-x="904" 
d="M428 -8q-117 0 -187.5 7t-109 27.5t-50.5 58.5t-12 101v17h137v-13q0 -29 8 -46t33.5 -26.5t72.5 -12.5t126 -3h20q77 0 123 3.5t70 15.5t31.5 34.5t7.5 60.5v13q0 37 -5.5 59.5t-28 34.5t-68.5 16t-126 4h-38q-60 0 -98.5 -2t-62 -8t-35 -16.5t-16.5 -26.5h-134v390h725
v-110h-591v-184h2q11 19 28 32t45.5 20.5t70 10.5t100.5 3h42q105 0 170 -9t101 -32t48.5 -64.5t12.5 -105.5v-28q0 -69 -13.5 -112.5t-55 -67.5t-117 -32.5t-198.5 -8.5h-28z" />
    <glyph glyph-name="six.tab" unicode="&#xe11a;" horiz-adv-x="904" 
d="M440 -8q-81 0 -140.5 3.5t-100.5 14.5t-66.5 32t-39.5 55.5t-19 85.5t-5 122v39q0 79 6 135t21.5 94t43.5 61t71.5 35t105 15.5t144.5 3.5h25q106 0 171.5 -7t102 -27.5t49 -58.5t12.5 -100v-16h-137v12q0 28 -7 45.5t-28 27t-61 12.5t-106 3h-17q-85 0 -135 -5.5
t-75.5 -25t-33 -57.5t-7.5 -103v-30h2q11 15 28 26.5t43.5 20t65.5 12.5t93 4h20q120 0 193 -6.5t112.5 -28.5t53 -63.5t13.5 -110.5v-14q0 -66 -13.5 -106t-53.5 -62.5t-113 -30t-192 -7.5h-26zM461 102q80 0 127 3.5t71 15t30.5 32t6.5 53.5v11q0 33 -7 52.5t-31 29.5
t-71 13t-126 3h-17q-75 0 -121 -3t-70.5 -12t-33 -25.5t-8.5 -43.5v-8q0 -41 6 -64.5t29.5 -36.5t70 -16.5t127.5 -3.5h17z" />
    <glyph glyph-name="seven.tab" unicode="&#xe11b;" horiz-adv-x="904" 
d="M367 0h-173l468 556v3h-590v121h763v-115z" />
    <glyph glyph-name="eight.tab" unicode="&#xe11c;" horiz-adv-x="904" 
d="M459 401q79 0 124.5 3t68 12t28 26t5.5 46v8q0 28 -6 45t-29 26t-68 12t-123 3h-16q-78 0 -123 -3t-68 -12t-29 -26t-6 -45v-8q0 -29 5.5 -46t28 -26t68 -12t124.5 -3h16zM460 100q76 0 122.5 2t71.5 11t33 27t8 50v15q0 32 -8 50t-33 27t-71.5 11t-122.5 2h-16
q-77 0 -123 -2t-71 -11t-33 -27t-8 -50v-15q0 -32 8 -50t33 -27t71 -11t123 -2h16zM439 -8q-120 0 -193 6t-113 25t-53 53t-13 91v10q0 43 7 73t23.5 49.5t43 30t66.5 15.5v2q-39 5 -64 14.5t-40 27t-21 46t-6 72.5v10q0 54 11.5 87t49.5 52t110 25.5t192 6.5h24
q120 0 192 -6.5t110 -25.5t49.5 -52t11.5 -87v-10q0 -42 -6 -70.5t-21.5 -46.5t-42.5 -27.5t-70 -15.5v-2q43 -5 72 -15t46.5 -29t25 -49t7.5 -75v-10q0 -57 -13.5 -91t-53 -53t-113 -25t-193.5 -6h-25z" />
    <glyph glyph-name="nine.tab" unicode="&#xe11d;" horiz-adv-x="904" 
d="M419 -8q-107 0 -173.5 7t-104 27.5t-51 58.5t-13.5 100v16h137v-12q0 -28 8 -45t30.5 -26.5t64 -12.5t107.5 -3h16q86 0 136.5 5t76.5 24.5t33 57.5t7 103v30h-2q-11 -15 -27.5 -26.5t-43.5 -19.5t-65.5 -12.5t-93.5 -4.5h-21q-120 0 -192.5 6.5t-112.5 28.5t-53 63.5
t-13 110.5v14q0 67 13.5 107.5t53.5 62.5t113 29t192 7h25q122 0 195.5 -8.5t112.5 -40t51 -94t12 -170.5v-39q0 -79 -6 -135t-21.5 -94t-43 -61t-71 -35t-105 -15.5t-145.5 -3.5h-26zM462 365q75 0 121 3.5t71 12.5t33 25.5t8 43.5v8q0 40 -6 64t-29.5 37t-70 16.5
t-127.5 3.5h-17q-80 0 -126.5 -3.5t-70.5 -15t-30.5 -31.5t-6.5 -53v-12q0 -33 7 -53t31 -30t70.5 -13t125.5 -3h17z" />
    <glyph glyph-name="one.numerator" unicode="&#xe13c;" horiz-adv-x="371" 
d="M304 308h-98v296h-4l-117 -82l-45 60l142 98h122v-372z" />
    <glyph glyph-name="two.numerator" unicode="&#xe13d;" horiz-adv-x="551" 
d="M515 308h-468v67q0 36 10.5 61t35.5 40.5t67.5 23t106.5 9.5q50 2 79.5 4.5t44.5 8.5t19.5 15.5t4.5 24.5v7q0 15 -4.5 24.5t-19.5 14.5t-42.5 7t-72.5 2h-10q-41 0 -65 -2t-36.5 -8t-16.5 -17t-4 -29v-10h-90v17q0 37 7.5 59.5t29.5 35t63 17t109 4.5h15q74 0 119.5 -5
t70 -18t33 -34t8.5 -53v-8q0 -34 -9.5 -57t-34.5 -37t-68.5 -20.5t-111.5 -8.5q-48 -2 -77.5 -4.5t-45 -9t-20.5 -17t-5 -28.5v-9h378v-67z" />
    <glyph glyph-name="three.numerator" unicode="&#xe13e;" horiz-adv-x="562" 
d="M265 304q-69 0 -111.5 4t-66 16.5t-31 35.5t-7.5 61v15h91v-14q0 -18 4 -28t17 -15t38.5 -6.5t68.5 -1.5h12q51 0 80 2t43.5 7t18.5 14.5t4 23.5v6q0 12 -3 20.5t-12 13t-25 6.5t-42 2h-119v62h120q23 0 36.5 2t21 6.5t10 12.5t2.5 19v8q0 12 -4 20t-18 12.5t-41 6.5
t-72 2h-10q-41 0 -66 -1.5t-38 -6.5t-17 -15t-4 -28v-12h-90v14q0 37 8 60t30.5 35.5t64 16.5t109.5 4h16q73 0 118 -4t69.5 -15t32.5 -29.5t8 -46.5v-7q0 -41 -13 -58.5t-51 -24.5v-1q38 -5 56 -21.5t18 -57.5v-13q0 -33 -9.5 -53t-35.5 -31t-72.5 -14.5t-120.5 -3.5h-18z
" />
    <glyph glyph-name="four.numerator" unicode="&#xe13f;" horiz-adv-x="573" 
d="M473 308h-97v80h-337v102l314 190h120v-227h67v-65h-67v-80zM376 453v161h-2l-257 -159v-2h259z" />
    <glyph glyph-name="five.numerator" unicode="&#xe140;" horiz-adv-x="558" 
d="M266 304q-68 0 -110 4.5t-65.5 16.5t-31.5 33t-8 54v12h89v-6q0 -15 5.5 -24.5t19 -15t37 -7.5t59.5 -2h24q45 0 73 2t43.5 8t21 17t5.5 30v8q0 18 -4.5 29.5t-18.5 18t-40.5 8.5t-71.5 2h-25q-33 0 -55 -1t-36 -4t-20.5 -8.5t-9.5 -14.5h-88v216h441v-66h-353v-88h2
q11 16 43.5 23t100.5 7h23q62 0 101.5 -5.5t61.5 -18.5t30 -35t8 -56v-16q0 -36 -9.5 -59t-35 -37t-70 -19.5t-114.5 -5.5h-22z" />
    <glyph glyph-name="six.numerator" unicode="&#xe141;" horiz-adv-x="553" 
d="M290 371q45 0 71 2t39.5 8t17 16t3.5 25v7q0 15 -4 24t-17.5 14.5t-39.5 7.5t-70 2h-21q-44 0 -69.5 -2t-39.5 -7t-18 -14t-4 -22v-7q0 -16 3.5 -26.5t17 -16.5t39.5 -8.5t71 -2.5h21zM267 304q-74 0 -118 6t-67 24.5t-30 52t-7 88.5v28q0 58 8.5 94t34 55t71 25.5
t119.5 6.5h25q63 0 102 -4.5t61.5 -16.5t30.5 -32.5t8 -53.5v-12h-90v7q0 14 -4.5 23t-17.5 14.5t-35.5 7.5t-58.5 2h-21q-45 0 -72.5 -3.5t-42 -13.5t-19 -29t-4.5 -50v-14h2q5 7 13 12.5t23 9.5t37.5 6t55.5 2h22q72 0 115.5 -4.5t67 -16t31 -32.5t7.5 -54v-9
q0 -38 -8 -61t-32 -36t-67.5 -17.5t-114.5 -4.5h-25z" />
    <glyph glyph-name="seven.numerator" unicode="&#xe142;" horiz-adv-x="539" 
d="M218 308h-110l268 296v2h-330v74h447v-66z" />
    <glyph glyph-name="eight.numerator" unicode="&#xe143;" horiz-adv-x="546" 
d="M259 304q-74 0 -117 4t-65 15t-28 30.5t-6 49.5v10q0 38 16 57.5t54 25.5v1q-39 8 -52 26t-13 59v9q0 28 6.5 46t28 28.5t63.5 14.5t113 4h28q71 0 113 -4t63.5 -14.5t28 -28.5t6.5 -46v-9q0 -41 -13 -59t-52 -26v-1q38 -6 54 -25.5t16 -57.5v-10q0 -30 -6 -49.5
t-28 -30.5t-65 -15t-117 -4h-28zM284 527q43 0 67.5 1.5t36.5 6t15 13.5t3 23v4q0 14 -3 22.5t-15.5 13.5t-37 6.5t-66.5 1.5h-23q-42 0 -66 -1.5t-36.5 -6.5t-15.5 -13.5t-3 -22.5v-4q0 -14 3 -23t15 -13.5t36 -6t67 -1.5h23zM284 369q45 0 70 2t37.5 7t15.5 13.5t3 22.5
v10q0 14 -3 23t-16 13.5t-38 6t-69 1.5h-23q-44 0 -69 -1.5t-37.5 -6t-15.5 -13.5t-3 -23v-10q0 -14 3 -22.5t15.5 -13.5t37.5 -7t69 -2h23z" />
    <glyph glyph-name="nine.numerator" unicode="&#xe144;" horiz-adv-x="559" 
d="M289 511q43 0 69.5 2t40 7t18 13.5t4.5 22.5v7q0 16 -4 26.5t-17.5 16.5t-39.5 8.5t-71 2.5h-20q-45 0 -71 -2t-39.5 -8t-17 -16t-3.5 -25v-7q0 -15 4 -24t17.5 -14.5t39.5 -7.5t70 -2h20zM255 304q-66 0 -106.5 4.5t-63 16.5t-30 32.5t-7.5 53.5v12h90v-7q0 -14 4.5 -23
t17.5 -14.5t36.5 -7.5t62.5 -2h21q47 0 74.5 3.5t42 13.5t18.5 29t4 50v14h-2q-6 -8 -14.5 -13.5t-23 -9t-36.5 -5.5t-55 -2h-22q-72 0 -115.5 4.5t-67 16.5t-31 33.5t-7.5 56.5v9q0 36 8 58.5t32 35t67.5 17t114.5 4.5h25q73 0 117 -6t67 -24t30 -51t7 -87v-27
q0 -60 -8 -96.5t-33 -56t-70.5 -26t-121.5 -6.5h-25z" />
    <glyph glyph-name="zero.numerator" unicode="&#xe145;" horiz-adv-x="571" 
d="M296 378q45 0 72 3.5t42 15t19.5 34t4.5 60.5v7q0 37 -4.5 59.5t-19.5 34t-42 15t-72 3.5h-21q-45 0 -72 -3.5t-41.5 -15t-19 -34t-4.5 -59.5v-7q0 -38 4.5 -60.5t19 -34t41.5 -15t72 -3.5h21zM273 304q-74 0 -119 7t-69.5 26.5t-33 55.5t-8.5 95v12q0 58 8.5 94.5t33 56
t69.5 26.5t119 7h25q75 0 120 -7t69.5 -27t32.5 -56t8 -94v-12q0 -58 -8 -94t-32.5 -56t-69.5 -27t-120 -7h-25z" />
    <glyph glyph-name="one.denominator" unicode="&#xe146;" horiz-adv-x="369" 
d="M304 0h-98v296h-4l-117 -82l-45 60l142 98h122v-372z" />
    <glyph glyph-name="two.denominator" unicode="&#xe147;" horiz-adv-x="551" 
d="M515 0h-468v67q0 36 10.5 61t35.5 40.5t67.5 23t106.5 9.5q50 2 79.5 4.5t44.5 8.5t19.5 15.5t4.5 24.5v7q0 15 -4.5 24.5t-19.5 14.5t-42.5 7t-72.5 2h-10q-41 0 -65 -2t-36.5 -8t-16.5 -17t-4 -29v-10h-90v17q0 37 7.5 59.5t29.5 35t63 17t109 4.5h15q74 0 119.5 -5
t70 -18t33 -34t8.5 -53v-8q0 -34 -9.5 -57t-34.5 -37t-68.5 -20.5t-111.5 -8.5q-48 -2 -77.5 -4.5t-45 -9t-20.5 -17t-5 -28.5v-9h378v-67z" />
    <glyph glyph-name="three.denominator" unicode="&#xe148;" horiz-adv-x="562" 
d="M265 -4q-69 0 -111.5 4t-66 16.5t-31 35.5t-7.5 61v15h91v-14q0 -18 4 -28t17 -15t38.5 -6.5t68.5 -1.5h12q51 0 80 2t43.5 7t18.5 14.5t4 23.5v6q0 12 -3 20.5t-12 13t-25 6.5t-42 2h-119v62h120q23 0 36.5 2t21 6.5t10 12.5t2.5 19v8q0 12 -4 20t-18 12.5t-41 6.5
t-72 2h-10q-41 0 -66 -1.5t-38 -6.5t-17 -15t-4 -28v-12h-90v14q0 37 8 60t30.5 35.5t64 16.5t109.5 4h16q73 0 118 -4t69.5 -15t32.5 -29.5t8 -46.5v-7q0 -41 -13 -58.5t-51 -24.5v-1q38 -5 56 -21.5t18 -57.5v-13q0 -33 -9.5 -53t-35.5 -31t-72.5 -14.5t-120.5 -3.5h-18z
" />
    <glyph glyph-name="four.denominator" unicode="&#xe149;" horiz-adv-x="573" 
d="M473 0h-97v80h-337v102l314 190h120v-227h67v-65h-67v-80zM376 145v161h-2l-257 -159v-2h259z" />
    </font>
</defs>
</svg>
